<?xml version="1.0" encoding="utf-8" standalone="no"?>
<!DOCTYPE svg PUBLIC "-//W3C//DTD SVG 1.1//EN"
  "http://www.w3.org/Graphics/SVG/1.1/DTD/svg11.dtd">
<svg xmlns:xlink="http://www.w3.org/1999/xlink" width="864pt" height="324pt" viewBox="0 0 864 324" xmlns="http://www.w3.org/2000/svg" version="1.1">
 <metadata>
  <rdf:RDF xmlns:dc="http://purl.org/dc/elements/1.1/" xmlns:cc="http://creativecommons.org/ns#" xmlns:rdf="http://www.w3.org/1999/02/22-rdf-syntax-ns#">
   <cc:Work>
    <dc:type rdf:resource="http://purl.org/dc/dcmitype/StillImage"/>
    <dc:date>2024-08-27T00:56:26.015464</dc:date>
    <dc:format>image/svg+xml</dc:format>
    <dc:creator>
     <cc:Agent>
      <dc:title>Matplotlib v3.9.0, https://matplotlib.org/</dc:title>
     </cc:Agent>
    </dc:creator>
   </cc:Work>
  </rdf:RDF>
 </metadata>
 <defs>
  <style type="text/css">*{stroke-linejoin: round; stroke-linecap: butt}</style>
 </defs>
 <g id="figure_1">
  <g id="patch_1">
   <path d="M 0 324 
L 864 324 
L 864 0 
L 0 0 
z
" style="fill: #ffffff"/>
  </g>
  <g id="axes_1">
   <g id="patch_2">
    <path d="M 54.83 277.476061 
L 304.038639 277.476061 
L 304.038639 26.88 
L 54.83 26.88 
z
" style="fill: #ffffff"/>
   </g>
   <g id="PolyCollection_1">
    <defs>
     <path id="ma82d3adcfe" d="M 66.157665 -191.677279 
L 66.157665 -190.08806 
L 83.584843 -195.782763 
L 101.01202 -205.450514 
L 118.439198 -151.152185 
L 135.866376 -140.027649 
L 153.293553 -115.394748 
L 170.720731 -110.759525 
L 188.147908 -114.732573 
L 205.575086 -104.005342 
L 223.002263 -109.435175 
L 240.429441 -107.945282 
L 257.856618 -102.680993 
L 275.283796 -94.337591 
L 292.710973 -96.059245 
L 292.710973 -128.538917 
L 292.710973 -128.538917 
L 275.283796 -114.335269 
L 257.856618 -115.262313 
L 240.429441 -115.394748 
L 223.002263 -114.865008 
L 205.575086 -108.773001 
L 188.147908 -118.970492 
L 170.720731 -114.467703 
L 153.293553 -118.573187 
L 135.866376 -142.676348 
L 118.439198 -153.403579 
L 101.01202 -207.569473 
L 83.584843 -197.636852 
L 66.157665 -191.677279 
z
" style="stroke: #dc143c; stroke-opacity: 0.2"/>
    </defs>
    <g clip-path="url(#p93068b84f5)">
     <use xlink:href="#ma82d3adcfe" x="0" y="324" style="fill: #dc143c; fill-opacity: 0.2; stroke: #dc143c; stroke-opacity: 0.2"/>
    </g>
   </g>
   <g id="PolyCollection_2">
    <defs>
     <path id="maa99bf2285" d="M 66.157665 -193.796239 
L 66.157665 -188.76371 
L 83.584843 -194.193543 
L 101.01202 -203.72886 
L 118.439198 -149.43053 
L 135.866376 -138.17356 
L 153.293553 -113.143354 
L 170.720731 -107.842645 
L 188.147908 -111.4217 
L 205.575086 -100.694469 
L 223.002263 -105.326381 
L 240.429441 -102.018818 
L 257.856618 -94.06941 
L 275.283796 -81.617214 
L 292.710973 -74.339914 
L 292.710973 -172.477522 
L 292.710973 -172.477522 
L 275.283796 -141.222874 
L 257.856618 -133.544958 
L 240.429441 -124.80094 
L 223.002263 -121.619191 
L 205.575086 -114.467703 
L 188.147908 -123.744772 
L 170.720731 -119.102927 
L 153.293553 -121.754937 
L 135.866376 -145.589917 
L 118.439198 -156.052278 
L 101.01202 -210.350607 
L 83.584843 -199.755811 
L 66.157665 -193.796239 
z
" style="stroke: #dc143c; stroke-opacity: 0.2"/>
    </defs>
    <g clip-path="url(#p93068b84f5)">
     <use xlink:href="#maa99bf2285" x="0" y="324" style="fill: #dc143c; fill-opacity: 0.2; stroke: #dc143c; stroke-opacity: 0.2"/>
    </g>
   </g>
   <g id="matplotlib.axis_1">
    <g id="xtick_1">
     <g id="line2d_1">
      <path d="M 66.157665 277.476061 
L 66.157665 26.88 
" clip-path="url(#p93068b84f5)" style="fill: none; stroke: #b0b0b0; stroke-opacity: 0.2; stroke-width: 0.8; stroke-linecap: square"/>
     </g>
     <g id="line2d_2">
      <defs>
       <path id="meffa7b80c3" d="M 0 0 
L 0 3.5 
" style="stroke: #000000; stroke-width: 0.8"/>
      </defs>
      <g>
       <use xlink:href="#meffa7b80c3" x="66.157665" y="277.476061" style="stroke: #000000; stroke-width: 0.8"/>
      </g>
     </g>
     <g id="text_1">
      <!-- 2019-06-29 -->
      <g transform="translate(46.029062 310.48834) rotate(-25) scale(0.1 -0.1)">
       <defs>
        <path id="TimesNewRomanPSMT-32" d="M 2934 816 
L 2638 0 
L 138 0 
L 138 116 
Q 1241 1122 1691 1759 
Q 2141 2397 2141 2925 
Q 2141 3328 1894 3587 
Q 1647 3847 1303 3847 
Q 991 3847 742 3664 
Q 494 3481 375 3128 
L 259 3128 
Q 338 3706 661 4015 
Q 984 4325 1469 4325 
Q 1984 4325 2329 3994 
Q 2675 3663 2675 3213 
Q 2675 2891 2525 2569 
Q 2294 2063 1775 1497 
Q 997 647 803 472 
L 1909 472 
Q 2247 472 2383 497 
Q 2519 522 2628 598 
Q 2738 675 2819 816 
L 2934 816 
z
" transform="scale(0.015625)"/>
        <path id="TimesNewRomanPSMT-30" d="M 231 2094 
Q 231 2819 450 3342 
Q 669 3866 1031 4122 
Q 1313 4325 1613 4325 
Q 2100 4325 2488 3828 
Q 2972 3213 2972 2159 
Q 2972 1422 2759 906 
Q 2547 391 2217 158 
Q 1888 -75 1581 -75 
Q 975 -75 572 641 
Q 231 1244 231 2094 
z
M 844 2016 
Q 844 1141 1059 588 
Q 1238 122 1591 122 
Q 1759 122 1940 273 
Q 2122 425 2216 781 
Q 2359 1319 2359 2297 
Q 2359 3022 2209 3506 
Q 2097 3866 1919 4016 
Q 1791 4119 1609 4119 
Q 1397 4119 1231 3928 
Q 1006 3669 925 3112 
Q 844 2556 844 2016 
z
" transform="scale(0.015625)"/>
        <path id="TimesNewRomanPSMT-31" d="M 750 3822 
L 1781 4325 
L 1884 4325 
L 1884 747 
Q 1884 391 1914 303 
Q 1944 216 2037 169 
Q 2131 122 2419 116 
L 2419 0 
L 825 0 
L 825 116 
Q 1125 122 1212 167 
Q 1300 213 1334 289 
Q 1369 366 1369 747 
L 1369 3034 
Q 1369 3497 1338 3628 
Q 1316 3728 1258 3775 
Q 1200 3822 1119 3822 
Q 1003 3822 797 3725 
L 750 3822 
z
" transform="scale(0.015625)"/>
        <path id="TimesNewRomanPSMT-39" d="M 338 -88 
L 338 28 
Q 744 34 1094 217 
Q 1444 400 1770 856 
Q 2097 1313 2225 1859 
Q 1734 1544 1338 1544 
Q 891 1544 572 1889 
Q 253 2234 253 2806 
Q 253 3363 572 3797 
Q 956 4325 1575 4325 
Q 2097 4325 2469 3894 
Q 2925 3359 2925 2575 
Q 2925 1869 2578 1258 
Q 2231 647 1613 244 
Q 1109 -88 516 -88 
L 338 -88 
z
M 2275 2091 
Q 2331 2497 2331 2741 
Q 2331 3044 2228 3395 
Q 2125 3747 1936 3934 
Q 1747 4122 1506 4122 
Q 1228 4122 1018 3872 
Q 809 3622 809 3128 
Q 809 2469 1088 2097 
Q 1291 1828 1588 1828 
Q 1731 1828 1928 1897 
Q 2125 1966 2275 2091 
z
" transform="scale(0.015625)"/>
        <path id="TimesNewRomanPSMT-2d" d="M 259 1672 
L 1875 1672 
L 1875 1200 
L 259 1200 
L 259 1672 
z
" transform="scale(0.015625)"/>
        <path id="TimesNewRomanPSMT-36" d="M 2869 4325 
L 2869 4209 
Q 2456 4169 2195 4045 
Q 1934 3922 1679 3669 
Q 1425 3416 1258 3105 
Q 1091 2794 978 2366 
Q 1428 2675 1881 2675 
Q 2316 2675 2634 2325 
Q 2953 1975 2953 1425 
Q 2953 894 2631 456 
Q 2244 -75 1606 -75 
Q 1172 -75 869 213 
Q 275 772 275 1663 
Q 275 2231 503 2743 
Q 731 3256 1154 3653 
Q 1578 4050 1965 4187 
Q 2353 4325 2688 4325 
L 2869 4325 
z
M 925 2138 
Q 869 1716 869 1456 
Q 869 1156 980 804 
Q 1091 453 1309 247 
Q 1469 100 1697 100 
Q 1969 100 2183 356 
Q 2397 613 2397 1088 
Q 2397 1622 2184 2012 
Q 1972 2403 1581 2403 
Q 1463 2403 1327 2353 
Q 1191 2303 925 2138 
z
" transform="scale(0.015625)"/>
       </defs>
       <use xlink:href="#TimesNewRomanPSMT-32"/>
       <use xlink:href="#TimesNewRomanPSMT-30" x="50"/>
       <use xlink:href="#TimesNewRomanPSMT-31" x="100"/>
       <use xlink:href="#TimesNewRomanPSMT-39" x="150"/>
       <use xlink:href="#TimesNewRomanPSMT-2d" x="200"/>
       <use xlink:href="#TimesNewRomanPSMT-30" x="233.300781"/>
       <use xlink:href="#TimesNewRomanPSMT-36" x="283.300781"/>
       <use xlink:href="#TimesNewRomanPSMT-2d" x="333.300781"/>
       <use xlink:href="#TimesNewRomanPSMT-32" x="366.601562"/>
       <use xlink:href="#TimesNewRomanPSMT-39" x="416.601562"/>
      </g>
     </g>
    </g>
    <g id="xtick_2">
     <g id="line2d_3">
      <path d="M 101.01202 277.476061 
L 101.01202 26.88 
" clip-path="url(#p93068b84f5)" style="fill: none; stroke: #b0b0b0; stroke-opacity: 0.2; stroke-width: 0.8; stroke-linecap: square"/>
     </g>
     <g id="line2d_4">
      <g>
       <use xlink:href="#meffa7b80c3" x="101.01202" y="277.476061" style="stroke: #000000; stroke-width: 0.8"/>
      </g>
     </g>
     <g id="text_2">
      <!-- 2019-07-01 -->
      <g transform="translate(80.883417 310.48834) rotate(-25) scale(0.1 -0.1)">
       <defs>
        <path id="TimesNewRomanPSMT-37" d="M 644 4238 
L 2916 4238 
L 2916 4119 
L 1503 -88 
L 1153 -88 
L 2419 3728 
L 1253 3728 
Q 900 3728 750 3644 
Q 488 3500 328 3200 
L 238 3234 
L 644 4238 
z
" transform="scale(0.015625)"/>
       </defs>
       <use xlink:href="#TimesNewRomanPSMT-32"/>
       <use xlink:href="#TimesNewRomanPSMT-30" x="50"/>
       <use xlink:href="#TimesNewRomanPSMT-31" x="100"/>
       <use xlink:href="#TimesNewRomanPSMT-39" x="150"/>
       <use xlink:href="#TimesNewRomanPSMT-2d" x="200"/>
       <use xlink:href="#TimesNewRomanPSMT-30" x="233.300781"/>
       <use xlink:href="#TimesNewRomanPSMT-37" x="283.300781"/>
       <use xlink:href="#TimesNewRomanPSMT-2d" x="333.300781"/>
       <use xlink:href="#TimesNewRomanPSMT-30" x="366.601562"/>
       <use xlink:href="#TimesNewRomanPSMT-31" x="416.601562"/>
      </g>
     </g>
    </g>
    <g id="xtick_3">
     <g id="line2d_5">
      <path d="M 135.866376 277.476061 
L 135.866376 26.88 
" clip-path="url(#p93068b84f5)" style="fill: none; stroke: #b0b0b0; stroke-opacity: 0.2; stroke-width: 0.8; stroke-linecap: square"/>
     </g>
     <g id="line2d_6">
      <g>
       <use xlink:href="#meffa7b80c3" x="135.866376" y="277.476061" style="stroke: #000000; stroke-width: 0.8"/>
      </g>
     </g>
     <g id="text_3">
      <!-- 2019-07-03 -->
      <g transform="translate(115.737772 310.48834) rotate(-25) scale(0.1 -0.1)">
       <defs>
        <path id="TimesNewRomanPSMT-33" d="M 325 3431 
Q 506 3859 782 4092 
Q 1059 4325 1472 4325 
Q 1981 4325 2253 3994 
Q 2459 3747 2459 3466 
Q 2459 3003 1878 2509 
Q 2269 2356 2469 2072 
Q 2669 1788 2669 1403 
Q 2669 853 2319 450 
Q 1863 -75 997 -75 
Q 569 -75 414 31 
Q 259 138 259 259 
Q 259 350 332 419 
Q 406 488 509 488 
Q 588 488 669 463 
Q 722 447 909 348 
Q 1097 250 1169 231 
Q 1284 197 1416 197 
Q 1734 197 1970 444 
Q 2206 691 2206 1028 
Q 2206 1275 2097 1509 
Q 2016 1684 1919 1775 
Q 1784 1900 1550 2001 
Q 1316 2103 1072 2103 
L 972 2103 
L 972 2197 
Q 1219 2228 1467 2375 
Q 1716 2522 1828 2728 
Q 1941 2934 1941 3181 
Q 1941 3503 1739 3701 
Q 1538 3900 1238 3900 
Q 753 3900 428 3381 
L 325 3431 
z
" transform="scale(0.015625)"/>
       </defs>
       <use xlink:href="#TimesNewRomanPSMT-32"/>
       <use xlink:href="#TimesNewRomanPSMT-30" x="50"/>
       <use xlink:href="#TimesNewRomanPSMT-31" x="100"/>
       <use xlink:href="#TimesNewRomanPSMT-39" x="150"/>
       <use xlink:href="#TimesNewRomanPSMT-2d" x="200"/>
       <use xlink:href="#TimesNewRomanPSMT-30" x="233.300781"/>
       <use xlink:href="#TimesNewRomanPSMT-37" x="283.300781"/>
       <use xlink:href="#TimesNewRomanPSMT-2d" x="333.300781"/>
       <use xlink:href="#TimesNewRomanPSMT-30" x="366.601562"/>
       <use xlink:href="#TimesNewRomanPSMT-33" x="416.601562"/>
      </g>
     </g>
    </g>
    <g id="xtick_4">
     <g id="line2d_7">
      <path d="M 170.720731 277.476061 
L 170.720731 26.88 
" clip-path="url(#p93068b84f5)" style="fill: none; stroke: #b0b0b0; stroke-opacity: 0.2; stroke-width: 0.8; stroke-linecap: square"/>
     </g>
     <g id="line2d_8">
      <g>
       <use xlink:href="#meffa7b80c3" x="170.720731" y="277.476061" style="stroke: #000000; stroke-width: 0.8"/>
      </g>
     </g>
     <g id="text_4">
      <!-- 2019-07-05 -->
      <g transform="translate(150.592128 310.48834) rotate(-25) scale(0.1 -0.1)">
       <defs>
        <path id="TimesNewRomanPSMT-35" d="M 2778 4238 
L 2534 3706 
L 1259 3706 
L 981 3138 
Q 1809 3016 2294 2522 
Q 2709 2097 2709 1522 
Q 2709 1188 2573 903 
Q 2438 619 2231 419 
Q 2025 219 1772 97 
Q 1413 -75 1034 -75 
Q 653 -75 479 54 
Q 306 184 306 341 
Q 306 428 378 495 
Q 450 563 559 563 
Q 641 563 702 538 
Q 763 513 909 409 
Q 1144 247 1384 247 
Q 1750 247 2026 523 
Q 2303 800 2303 1197 
Q 2303 1581 2056 1914 
Q 1809 2247 1375 2428 
Q 1034 2569 447 2591 
L 1259 4238 
L 2778 4238 
z
" transform="scale(0.015625)"/>
       </defs>
       <use xlink:href="#TimesNewRomanPSMT-32"/>
       <use xlink:href="#TimesNewRomanPSMT-30" x="50"/>
       <use xlink:href="#TimesNewRomanPSMT-31" x="100"/>
       <use xlink:href="#TimesNewRomanPSMT-39" x="150"/>
       <use xlink:href="#TimesNewRomanPSMT-2d" x="200"/>
       <use xlink:href="#TimesNewRomanPSMT-30" x="233.300781"/>
       <use xlink:href="#TimesNewRomanPSMT-37" x="283.300781"/>
       <use xlink:href="#TimesNewRomanPSMT-2d" x="333.300781"/>
       <use xlink:href="#TimesNewRomanPSMT-30" x="366.601562"/>
       <use xlink:href="#TimesNewRomanPSMT-35" x="416.601562"/>
      </g>
     </g>
    </g>
    <g id="xtick_5">
     <g id="line2d_9">
      <path d="M 205.575086 277.476061 
L 205.575086 26.88 
" clip-path="url(#p93068b84f5)" style="fill: none; stroke: #b0b0b0; stroke-opacity: 0.2; stroke-width: 0.8; stroke-linecap: square"/>
     </g>
     <g id="line2d_10">
      <g>
       <use xlink:href="#meffa7b80c3" x="205.575086" y="277.476061" style="stroke: #000000; stroke-width: 0.8"/>
      </g>
     </g>
     <g id="text_5">
      <!-- 2019-07-07 -->
      <g transform="translate(185.446483 310.48834) rotate(-25) scale(0.1 -0.1)">
       <use xlink:href="#TimesNewRomanPSMT-32"/>
       <use xlink:href="#TimesNewRomanPSMT-30" x="50"/>
       <use xlink:href="#TimesNewRomanPSMT-31" x="100"/>
       <use xlink:href="#TimesNewRomanPSMT-39" x="150"/>
       <use xlink:href="#TimesNewRomanPSMT-2d" x="200"/>
       <use xlink:href="#TimesNewRomanPSMT-30" x="233.300781"/>
       <use xlink:href="#TimesNewRomanPSMT-37" x="283.300781"/>
       <use xlink:href="#TimesNewRomanPSMT-2d" x="333.300781"/>
       <use xlink:href="#TimesNewRomanPSMT-30" x="366.601562"/>
       <use xlink:href="#TimesNewRomanPSMT-37" x="416.601562"/>
      </g>
     </g>
    </g>
    <g id="xtick_6">
     <g id="line2d_11">
      <path d="M 240.429441 277.476061 
L 240.429441 26.88 
" clip-path="url(#p93068b84f5)" style="fill: none; stroke: #b0b0b0; stroke-opacity: 0.2; stroke-width: 0.8; stroke-linecap: square"/>
     </g>
     <g id="line2d_12">
      <g>
       <use xlink:href="#meffa7b80c3" x="240.429441" y="277.476061" style="stroke: #000000; stroke-width: 0.8"/>
      </g>
     </g>
     <g id="text_6">
      <!-- 2019-07-09 -->
      <g transform="translate(220.300838 310.48834) rotate(-25) scale(0.1 -0.1)">
       <use xlink:href="#TimesNewRomanPSMT-32"/>
       <use xlink:href="#TimesNewRomanPSMT-30" x="50"/>
       <use xlink:href="#TimesNewRomanPSMT-31" x="100"/>
       <use xlink:href="#TimesNewRomanPSMT-39" x="150"/>
       <use xlink:href="#TimesNewRomanPSMT-2d" x="200"/>
       <use xlink:href="#TimesNewRomanPSMT-30" x="233.300781"/>
       <use xlink:href="#TimesNewRomanPSMT-37" x="283.300781"/>
       <use xlink:href="#TimesNewRomanPSMT-2d" x="333.300781"/>
       <use xlink:href="#TimesNewRomanPSMT-30" x="366.601562"/>
       <use xlink:href="#TimesNewRomanPSMT-39" x="416.601562"/>
      </g>
     </g>
    </g>
    <g id="xtick_7">
     <g id="line2d_13">
      <path d="M 275.283796 277.476061 
L 275.283796 26.88 
" clip-path="url(#p93068b84f5)" style="fill: none; stroke: #b0b0b0; stroke-opacity: 0.2; stroke-width: 0.8; stroke-linecap: square"/>
     </g>
     <g id="line2d_14">
      <g>
       <use xlink:href="#meffa7b80c3" x="275.283796" y="277.476061" style="stroke: #000000; stroke-width: 0.8"/>
      </g>
     </g>
     <g id="text_7">
      <!-- 2019-07-11 -->
      <g transform="translate(255.325125 310.329858) rotate(-25) scale(0.1 -0.1)">
       <use xlink:href="#TimesNewRomanPSMT-32"/>
       <use xlink:href="#TimesNewRomanPSMT-30" x="50"/>
       <use xlink:href="#TimesNewRomanPSMT-31" x="100"/>
       <use xlink:href="#TimesNewRomanPSMT-39" x="150"/>
       <use xlink:href="#TimesNewRomanPSMT-2d" x="200"/>
       <use xlink:href="#TimesNewRomanPSMT-30" x="233.300781"/>
       <use xlink:href="#TimesNewRomanPSMT-37" x="283.300781"/>
       <use xlink:href="#TimesNewRomanPSMT-2d" x="333.300781"/>
       <use xlink:href="#TimesNewRomanPSMT-31" x="366.601562"/>
       <use xlink:href="#TimesNewRomanPSMT-31" x="412.851562"/>
      </g>
     </g>
    </g>
   </g>
   <g id="matplotlib.axis_2">
    <g id="ytick_1">
     <g id="line2d_15">
      <path d="M 54.83 265.55228 
L 304.038639 265.55228 
" clip-path="url(#p93068b84f5)" style="fill: none; stroke: #b0b0b0; stroke-opacity: 0.2; stroke-width: 0.8; stroke-linecap: square"/>
     </g>
     <g id="line2d_16">
      <defs>
       <path id="mc60f8b40e0" d="M 0 0 
L -3.5 0 
" style="stroke: #000000; stroke-width: 0.8"/>
      </defs>
      <g>
       <use xlink:href="#mc60f8b40e0" x="54.83" y="265.55228" style="stroke: #000000; stroke-width: 0.8"/>
      </g>
     </g>
     <g id="text_8">
      <!-- 250 -->
      <g transform="translate(32.83 269.024155) scale(0.1 -0.1)">
       <use xlink:href="#TimesNewRomanPSMT-32"/>
       <use xlink:href="#TimesNewRomanPSMT-35" x="50"/>
       <use xlink:href="#TimesNewRomanPSMT-30" x="100"/>
      </g>
     </g>
    </g>
    <g id="ytick_2">
     <g id="line2d_17">
      <path d="M 54.83 232.443543 
L 304.038639 232.443543 
" clip-path="url(#p93068b84f5)" style="fill: none; stroke: #b0b0b0; stroke-opacity: 0.2; stroke-width: 0.8; stroke-linecap: square"/>
     </g>
     <g id="line2d_18">
      <g>
       <use xlink:href="#mc60f8b40e0" x="54.83" y="232.443543" style="stroke: #000000; stroke-width: 0.8"/>
      </g>
     </g>
     <g id="text_9">
      <!-- 500 -->
      <g transform="translate(32.83 235.915418) scale(0.1 -0.1)">
       <use xlink:href="#TimesNewRomanPSMT-35"/>
       <use xlink:href="#TimesNewRomanPSMT-30" x="50"/>
       <use xlink:href="#TimesNewRomanPSMT-30" x="100"/>
      </g>
     </g>
    </g>
    <g id="ytick_3">
     <g id="line2d_19">
      <path d="M 54.83 199.334805 
L 304.038639 199.334805 
" clip-path="url(#p93068b84f5)" style="fill: none; stroke: #b0b0b0; stroke-opacity: 0.2; stroke-width: 0.8; stroke-linecap: square"/>
     </g>
     <g id="line2d_20">
      <g>
       <use xlink:href="#mc60f8b40e0" x="54.83" y="199.334805" style="stroke: #000000; stroke-width: 0.8"/>
      </g>
     </g>
     <g id="text_10">
      <!-- 750 -->
      <g transform="translate(32.83 202.80668) scale(0.1 -0.1)">
       <use xlink:href="#TimesNewRomanPSMT-37"/>
       <use xlink:href="#TimesNewRomanPSMT-35" x="50"/>
       <use xlink:href="#TimesNewRomanPSMT-30" x="100"/>
      </g>
     </g>
    </g>
    <g id="ytick_4">
     <g id="line2d_21">
      <path d="M 54.83 166.226068 
L 304.038639 166.226068 
" clip-path="url(#p93068b84f5)" style="fill: none; stroke: #b0b0b0; stroke-opacity: 0.2; stroke-width: 0.8; stroke-linecap: square"/>
     </g>
     <g id="line2d_22">
      <g>
       <use xlink:href="#mc60f8b40e0" x="54.83" y="166.226068" style="stroke: #000000; stroke-width: 0.8"/>
      </g>
     </g>
     <g id="text_11">
      <!-- 1000 -->
      <g transform="translate(27.83 169.697943) scale(0.1 -0.1)">
       <use xlink:href="#TimesNewRomanPSMT-31"/>
       <use xlink:href="#TimesNewRomanPSMT-30" x="50"/>
       <use xlink:href="#TimesNewRomanPSMT-30" x="100"/>
       <use xlink:href="#TimesNewRomanPSMT-30" x="150"/>
      </g>
     </g>
    </g>
    <g id="ytick_5">
     <g id="line2d_23">
      <path d="M 54.83 133.11733 
L 304.038639 133.11733 
" clip-path="url(#p93068b84f5)" style="fill: none; stroke: #b0b0b0; stroke-opacity: 0.2; stroke-width: 0.8; stroke-linecap: square"/>
     </g>
     <g id="line2d_24">
      <g>
       <use xlink:href="#mc60f8b40e0" x="54.83" y="133.11733" style="stroke: #000000; stroke-width: 0.8"/>
      </g>
     </g>
     <g id="text_12">
      <!-- 1250 -->
      <g transform="translate(27.83 136.589205) scale(0.1 -0.1)">
       <use xlink:href="#TimesNewRomanPSMT-31"/>
       <use xlink:href="#TimesNewRomanPSMT-32" x="50"/>
       <use xlink:href="#TimesNewRomanPSMT-35" x="100"/>
       <use xlink:href="#TimesNewRomanPSMT-30" x="150"/>
      </g>
     </g>
    </g>
    <g id="ytick_6">
     <g id="line2d_25">
      <path d="M 54.83 100.008593 
L 304.038639 100.008593 
" clip-path="url(#p93068b84f5)" style="fill: none; stroke: #b0b0b0; stroke-opacity: 0.2; stroke-width: 0.8; stroke-linecap: square"/>
     </g>
     <g id="line2d_26">
      <g>
       <use xlink:href="#mc60f8b40e0" x="54.83" y="100.008593" style="stroke: #000000; stroke-width: 0.8"/>
      </g>
     </g>
     <g id="text_13">
      <!-- 1500 -->
      <g transform="translate(27.83 103.480468) scale(0.1 -0.1)">
       <use xlink:href="#TimesNewRomanPSMT-31"/>
       <use xlink:href="#TimesNewRomanPSMT-35" x="50"/>
       <use xlink:href="#TimesNewRomanPSMT-30" x="100"/>
       <use xlink:href="#TimesNewRomanPSMT-30" x="150"/>
      </g>
     </g>
    </g>
    <g id="ytick_7">
     <g id="line2d_27">
      <path d="M 54.83 66.899855 
L 304.038639 66.899855 
" clip-path="url(#p93068b84f5)" style="fill: none; stroke: #b0b0b0; stroke-opacity: 0.2; stroke-width: 0.8; stroke-linecap: square"/>
     </g>
     <g id="line2d_28">
      <g>
       <use xlink:href="#mc60f8b40e0" x="54.83" y="66.899855" style="stroke: #000000; stroke-width: 0.8"/>
      </g>
     </g>
     <g id="text_14">
      <!-- 1750 -->
      <g transform="translate(27.83 70.37173) scale(0.1 -0.1)">
       <use xlink:href="#TimesNewRomanPSMT-31"/>
       <use xlink:href="#TimesNewRomanPSMT-37" x="50"/>
       <use xlink:href="#TimesNewRomanPSMT-35" x="100"/>
       <use xlink:href="#TimesNewRomanPSMT-30" x="150"/>
      </g>
     </g>
    </g>
    <g id="ytick_8">
     <g id="line2d_29">
      <path d="M 54.83 33.791118 
L 304.038639 33.791118 
" clip-path="url(#p93068b84f5)" style="fill: none; stroke: #b0b0b0; stroke-opacity: 0.2; stroke-width: 0.8; stroke-linecap: square"/>
     </g>
     <g id="line2d_30">
      <g>
       <use xlink:href="#mc60f8b40e0" x="54.83" y="33.791118" style="stroke: #000000; stroke-width: 0.8"/>
      </g>
     </g>
     <g id="text_15">
      <!-- 2000 -->
      <g transform="translate(27.83 37.262993) scale(0.1 -0.1)">
       <use xlink:href="#TimesNewRomanPSMT-32"/>
       <use xlink:href="#TimesNewRomanPSMT-30" x="50"/>
       <use xlink:href="#TimesNewRomanPSMT-30" x="100"/>
       <use xlink:href="#TimesNewRomanPSMT-30" x="150"/>
      </g>
     </g>
    </g>
    <g id="text_16">
     <!-- Number of cases -->
     <g transform="translate(20.74975 200.562031) rotate(-90) scale(0.144 -0.144)">
      <defs>
       <path id="TimesNewRomanPSMT-4e" d="M -84 4238 
L 1066 4238 
L 3656 1059 
L 3656 3503 
Q 3656 3894 3569 3991 
Q 3453 4122 3203 4122 
L 3056 4122 
L 3056 4238 
L 4531 4238 
L 4531 4122 
L 4381 4122 
Q 4113 4122 4000 3959 
Q 3931 3859 3931 3503 
L 3931 -69 
L 3819 -69 
L 1025 3344 
L 1025 734 
Q 1025 344 1109 247 
Q 1228 116 1475 116 
L 1625 116 
L 1625 0 
L 150 0 
L 150 116 
L 297 116 
Q 569 116 681 278 
Q 750 378 750 734 
L 750 3681 
Q 566 3897 470 3965 
Q 375 4034 191 4094 
Q 100 4122 -84 4122 
L -84 4238 
z
" transform="scale(0.015625)"/>
       <path id="TimesNewRomanPSMT-75" d="M 2709 2863 
L 2709 1128 
Q 2709 631 2732 520 
Q 2756 409 2807 365 
Q 2859 322 2928 322 
Q 3025 322 3147 375 
L 3191 266 
L 2334 -88 
L 2194 -88 
L 2194 519 
Q 1825 119 1631 15 
Q 1438 -88 1222 -88 
Q 981 -88 804 51 
Q 628 191 559 409 
Q 491 628 491 1028 
L 491 2306 
Q 491 2509 447 2587 
Q 403 2666 317 2708 
Q 231 2750 6 2747 
L 6 2863 
L 1009 2863 
L 1009 947 
Q 1009 547 1148 422 
Q 1288 297 1484 297 
Q 1619 297 1789 381 
Q 1959 466 2194 703 
L 2194 2325 
Q 2194 2569 2105 2655 
Q 2016 2741 1734 2747 
L 1734 2863 
L 2709 2863 
z
" transform="scale(0.015625)"/>
       <path id="TimesNewRomanPSMT-6d" d="M 1050 2338 
Q 1363 2650 1419 2697 
Q 1559 2816 1721 2881 
Q 1884 2947 2044 2947 
Q 2313 2947 2506 2790 
Q 2700 2634 2766 2338 
Q 3088 2713 3309 2830 
Q 3531 2947 3766 2947 
Q 3994 2947 4170 2830 
Q 4347 2713 4450 2447 
Q 4519 2266 4519 1878 
L 4519 647 
Q 4519 378 4559 278 
Q 4591 209 4675 161 
Q 4759 113 4950 113 
L 4950 0 
L 3538 0 
L 3538 113 
L 3597 113 
Q 3781 113 3884 184 
Q 3956 234 3988 344 
Q 4000 397 4000 647 
L 4000 1878 
Q 4000 2228 3916 2372 
Q 3794 2572 3525 2572 
Q 3359 2572 3192 2489 
Q 3025 2406 2788 2181 
L 2781 2147 
L 2788 2013 
L 2788 647 
Q 2788 353 2820 281 
Q 2853 209 2943 161 
Q 3034 113 3253 113 
L 3253 0 
L 1806 0 
L 1806 113 
Q 2044 113 2133 169 
Q 2222 225 2256 338 
Q 2272 391 2272 647 
L 2272 1878 
Q 2272 2228 2169 2381 
Q 2031 2581 1784 2581 
Q 1616 2581 1450 2491 
Q 1191 2353 1050 2181 
L 1050 647 
Q 1050 366 1089 281 
Q 1128 197 1204 155 
Q 1281 113 1516 113 
L 1516 0 
L 100 0 
L 100 113 
Q 297 113 375 155 
Q 453 197 493 289 
Q 534 381 534 647 
L 534 1741 
Q 534 2213 506 2350 
Q 484 2453 437 2492 
Q 391 2531 309 2531 
Q 222 2531 100 2484 
L 53 2597 
L 916 2947 
L 1050 2947 
L 1050 2338 
z
" transform="scale(0.015625)"/>
       <path id="TimesNewRomanPSMT-62" d="M 984 2369 
Q 1400 2947 1881 2947 
Q 2322 2947 2650 2570 
Q 2978 2194 2978 1541 
Q 2978 778 2472 313 
Q 2038 -88 1503 -88 
Q 1253 -88 995 3 
Q 738 94 469 275 
L 469 3241 
Q 469 3728 445 3840 
Q 422 3953 372 3993 
Q 322 4034 247 4034 
Q 159 4034 28 3984 
L -16 4094 
L 844 4444 
L 984 4444 
L 984 2369 
z
M 984 2169 
L 984 456 
Q 1144 300 1314 220 
Q 1484 141 1663 141 
Q 1947 141 2192 453 
Q 2438 766 2438 1363 
Q 2438 1913 2192 2208 
Q 1947 2503 1634 2503 
Q 1469 2503 1303 2419 
Q 1178 2356 984 2169 
z
" transform="scale(0.015625)"/>
       <path id="TimesNewRomanPSMT-65" d="M 681 1784 
Q 678 1147 991 784 
Q 1303 422 1725 422 
Q 2006 422 2214 576 
Q 2422 731 2563 1106 
L 2659 1044 
Q 2594 616 2278 264 
Q 1963 -88 1488 -88 
Q 972 -88 605 314 
Q 238 716 238 1394 
Q 238 2128 614 2539 
Q 991 2950 1559 2950 
Q 2041 2950 2350 2633 
Q 2659 2316 2659 1784 
L 681 1784 
z
M 681 1966 
L 2006 1966 
Q 1991 2241 1941 2353 
Q 1863 2528 1708 2628 
Q 1553 2728 1384 2728 
Q 1125 2728 920 2526 
Q 716 2325 681 1966 
z
" transform="scale(0.015625)"/>
       <path id="TimesNewRomanPSMT-72" d="M 1038 2947 
L 1038 2303 
Q 1397 2947 1775 2947 
Q 1947 2947 2059 2842 
Q 2172 2738 2172 2600 
Q 2172 2478 2090 2393 
Q 2009 2309 1897 2309 
Q 1788 2309 1652 2417 
Q 1516 2525 1450 2525 
Q 1394 2525 1328 2463 
Q 1188 2334 1038 2041 
L 1038 669 
Q 1038 431 1097 309 
Q 1138 225 1241 169 
Q 1344 113 1538 113 
L 1538 0 
L 72 0 
L 72 113 
Q 291 113 397 181 
Q 475 231 506 341 
Q 522 394 522 644 
L 522 1753 
Q 522 2253 501 2348 
Q 481 2444 426 2487 
Q 372 2531 291 2531 
Q 194 2531 72 2484 
L 41 2597 
L 906 2947 
L 1038 2947 
z
" transform="scale(0.015625)"/>
       <path id="TimesNewRomanPSMT-20" transform="scale(0.015625)"/>
       <path id="TimesNewRomanPSMT-6f" d="M 1600 2947 
Q 2250 2947 2644 2453 
Q 2978 2031 2978 1484 
Q 2978 1100 2793 706 
Q 2609 313 2286 112 
Q 1963 -88 1566 -88 
Q 919 -88 538 428 
Q 216 863 216 1403 
Q 216 1797 411 2186 
Q 606 2575 925 2761 
Q 1244 2947 1600 2947 
z
M 1503 2744 
Q 1338 2744 1170 2645 
Q 1003 2547 900 2300 
Q 797 2053 797 1666 
Q 797 1041 1045 587 
Q 1294 134 1700 134 
Q 2003 134 2200 384 
Q 2397 634 2397 1244 
Q 2397 2006 2069 2444 
Q 1847 2744 1503 2744 
z
" transform="scale(0.015625)"/>
       <path id="TimesNewRomanPSMT-66" d="M 1319 2638 
L 1319 756 
Q 1319 356 1406 250 
Q 1522 113 1716 113 
L 1975 113 
L 1975 0 
L 266 0 
L 266 113 
L 394 113 
Q 519 113 622 175 
Q 725 238 764 344 
Q 803 450 803 756 
L 803 2638 
L 247 2638 
L 247 2863 
L 803 2863 
L 803 3050 
Q 803 3478 940 3775 
Q 1078 4072 1361 4255 
Q 1644 4438 1997 4438 
Q 2325 4438 2600 4225 
Q 2781 4084 2781 3909 
Q 2781 3816 2700 3733 
Q 2619 3650 2525 3650 
Q 2453 3650 2373 3701 
Q 2294 3753 2178 3923 
Q 2063 4094 1966 4153 
Q 1869 4213 1750 4213 
Q 1606 4213 1506 4136 
Q 1406 4059 1362 3898 
Q 1319 3738 1319 3069 
L 1319 2863 
L 2056 2863 
L 2056 2638 
L 1319 2638 
z
" transform="scale(0.015625)"/>
       <path id="TimesNewRomanPSMT-63" d="M 2631 1088 
Q 2516 522 2178 217 
Q 1841 -88 1431 -88 
Q 944 -88 581 321 
Q 219 731 219 1428 
Q 219 2103 620 2525 
Q 1022 2947 1584 2947 
Q 2006 2947 2278 2723 
Q 2550 2500 2550 2259 
Q 2550 2141 2473 2067 
Q 2397 1994 2259 1994 
Q 2075 1994 1981 2113 
Q 1928 2178 1911 2362 
Q 1894 2547 1784 2644 
Q 1675 2738 1481 2738 
Q 1169 2738 978 2506 
Q 725 2200 725 1697 
Q 725 1184 976 792 
Q 1228 400 1656 400 
Q 1963 400 2206 609 
Q 2378 753 2541 1131 
L 2631 1088 
z
" transform="scale(0.015625)"/>
       <path id="TimesNewRomanPSMT-61" d="M 1822 413 
Q 1381 72 1269 19 
Q 1100 -59 909 -59 
Q 613 -59 420 144 
Q 228 347 228 678 
Q 228 888 322 1041 
Q 450 1253 767 1440 
Q 1084 1628 1822 1897 
L 1822 2009 
Q 1822 2438 1686 2597 
Q 1550 2756 1291 2756 
Q 1094 2756 978 2650 
Q 859 2544 859 2406 
L 866 2225 
Q 866 2081 792 2003 
Q 719 1925 600 1925 
Q 484 1925 411 2006 
Q 338 2088 338 2228 
Q 338 2497 613 2722 
Q 888 2947 1384 2947 
Q 1766 2947 2009 2819 
Q 2194 2722 2281 2516 
Q 2338 2381 2338 1966 
L 2338 994 
Q 2338 584 2353 492 
Q 2369 400 2405 369 
Q 2441 338 2488 338 
Q 2538 338 2575 359 
Q 2641 400 2828 588 
L 2828 413 
Q 2478 -56 2159 -56 
Q 2006 -56 1915 50 
Q 1825 156 1822 413 
z
M 1822 616 
L 1822 1706 
Q 1350 1519 1213 1441 
Q 966 1303 859 1153 
Q 753 1003 753 825 
Q 753 600 887 451 
Q 1022 303 1197 303 
Q 1434 303 1822 616 
z
" transform="scale(0.015625)"/>
       <path id="TimesNewRomanPSMT-73" d="M 2050 2947 
L 2050 1972 
L 1947 1972 
Q 1828 2431 1642 2597 
Q 1456 2763 1169 2763 
Q 950 2763 815 2647 
Q 681 2531 681 2391 
Q 681 2216 781 2091 
Q 878 1963 1175 1819 
L 1631 1597 
Q 2266 1288 2266 781 
Q 2266 391 1970 151 
Q 1675 -88 1309 -88 
Q 1047 -88 709 6 
Q 606 38 541 38 
Q 469 38 428 -44 
L 325 -44 
L 325 978 
L 428 978 
Q 516 541 762 319 
Q 1009 97 1316 97 
Q 1531 97 1667 223 
Q 1803 350 1803 528 
Q 1803 744 1651 891 
Q 1500 1038 1047 1263 
Q 594 1488 453 1669 
Q 313 1847 313 2119 
Q 313 2472 555 2709 
Q 797 2947 1181 2947 
Q 1350 2947 1591 2875 
Q 1750 2828 1803 2828 
Q 1853 2828 1881 2850 
Q 1909 2872 1947 2947 
L 2050 2947 
z
" transform="scale(0.015625)"/>
      </defs>
      <use xlink:href="#TimesNewRomanPSMT-4e"/>
      <use xlink:href="#TimesNewRomanPSMT-75" x="72.216797"/>
      <use xlink:href="#TimesNewRomanPSMT-6d" x="122.216797"/>
      <use xlink:href="#TimesNewRomanPSMT-62" x="200"/>
      <use xlink:href="#TimesNewRomanPSMT-65" x="250"/>
      <use xlink:href="#TimesNewRomanPSMT-72" x="294.384766"/>
      <use xlink:href="#TimesNewRomanPSMT-20" x="327.685547"/>
      <use xlink:href="#TimesNewRomanPSMT-6f" x="352.685547"/>
      <use xlink:href="#TimesNewRomanPSMT-66" x="402.685547"/>
      <use xlink:href="#TimesNewRomanPSMT-20" x="435.986328"/>
      <use xlink:href="#TimesNewRomanPSMT-63" x="460.986328"/>
      <use xlink:href="#TimesNewRomanPSMT-61" x="505.371094"/>
      <use xlink:href="#TimesNewRomanPSMT-73" x="549.755859"/>
      <use xlink:href="#TimesNewRomanPSMT-65" x="588.671875"/>
      <use xlink:href="#TimesNewRomanPSMT-73" x="633.056641"/>
     </g>
    </g>
   </g>
   <g id="line2d_31">
    <path d="M 66.157665 132.455156 
L 83.584843 125.700973 
L 101.01202 112.457478 
L 118.439198 172.053206 
L 135.866376 181.853392 
L 153.293553 209.134992 
L 170.720731 211.783691 
L 188.147908 206.088988 
L 205.575086 211.916126 
L 223.002263 196.023932 
L 240.429441 198.010456 
L 257.856618 191.521143 
L 275.283796 222.246052 
L 292.710973 218.008133 
" clip-path="url(#p93068b84f5)" style="fill: none; stroke: #000000; stroke-width: 1.5; stroke-linecap: square"/>
   </g>
   <g id="line2d_32">
    <path d="M 66.157665 133.11733 
L 83.584843 127.422628 
L 101.01202 117.622441 
L 118.439198 171.788336 
L 135.866376 182.780437 
L 153.293553 207.148467 
L 170.720731 211.651256 
L 188.147908 207.280902 
L 205.575086 217.743263 
L 223.002263 212.048561 
L 240.429441 212.445865 
L 257.856618 215.226999 
L 275.283796 220.524397 
L 292.710973 213.836432 
" clip-path="url(#p93068b84f5)" style="fill: none; stroke: #dc143c; stroke-opacity: 0.75; stroke-width: 1.5; stroke-linecap: square"/>
   </g>
   <g id="line2d_33">
    <path d="M 292.710973 277.476061 
L 292.710973 26.88 
" clip-path="url(#p93068b84f5)" style="fill: none; stroke-dasharray: 5.55,2.4; stroke-dashoffset: 0; stroke: #000000; stroke-width: 1.5"/>
   </g>
   <g id="patch_3">
    <path d="M 54.83 277.476061 
L 54.83 26.88 
" style="fill: none; stroke: #000000; stroke-width: 0.8; stroke-linejoin: miter; stroke-linecap: square"/>
   </g>
   <g id="patch_4">
    <path d="M 304.038639 277.476061 
L 304.038639 26.88 
" style="fill: none; stroke: #000000; stroke-width: 0.8; stroke-linejoin: miter; stroke-linecap: square"/>
   </g>
   <g id="patch_5">
    <path d="M 54.83 277.476061 
L 304.038639 277.476061 
" style="fill: none; stroke: #000000; stroke-width: 0.8; stroke-linejoin: miter; stroke-linecap: square"/>
   </g>
   <g id="patch_6">
    <path d="M 54.83 26.88 
L 304.038639 26.88 
" style="fill: none; stroke: #000000; stroke-width: 0.8; stroke-linejoin: miter; stroke-linecap: square"/>
   </g>
   <g id="text_17">
    <!-- Epinowcast -->
    <g transform="translate(145.841819 20.88) scale(0.144 -0.144)">
     <defs>
      <path id="TimesNewRomanPSMT-45" d="M 1338 4006 
L 1338 2331 
L 2269 2331 
Q 2631 2331 2753 2441 
Q 2916 2584 2934 2947 
L 3050 2947 
L 3050 1472 
L 2934 1472 
Q 2891 1781 2847 1869 
Q 2791 1978 2662 2040 
Q 2534 2103 2269 2103 
L 1338 2103 
L 1338 706 
Q 1338 425 1363 364 
Q 1388 303 1450 267 
Q 1513 231 1688 231 
L 2406 231 
Q 2766 231 2928 281 
Q 3091 331 3241 478 
Q 3434 672 3638 1063 
L 3763 1063 
L 3397 0 
L 131 0 
L 131 116 
L 281 116 
Q 431 116 566 188 
Q 666 238 702 338 
Q 738 438 738 747 
L 738 3500 
Q 738 3903 656 3997 
Q 544 4122 281 4122 
L 131 4122 
L 131 4238 
L 3397 4238 
L 3444 3309 
L 3322 3309 
Q 3256 3644 3176 3769 
Q 3097 3894 2941 3959 
Q 2816 4006 2500 4006 
L 1338 4006 
z
" transform="scale(0.015625)"/>
      <path id="TimesNewRomanPSMT-70" d="M -6 2578 
L 875 2934 
L 994 2934 
L 994 2266 
Q 1216 2644 1439 2795 
Q 1663 2947 1909 2947 
Q 2341 2947 2628 2609 
Q 2981 2197 2981 1534 
Q 2981 794 2556 309 
Q 2206 -88 1675 -88 
Q 1444 -88 1275 -22 
Q 1150 25 994 166 
L 994 -706 
Q 994 -1000 1030 -1079 
Q 1066 -1159 1155 -1206 
Q 1244 -1253 1478 -1253 
L 1478 -1369 
L -22 -1369 
L -22 -1253 
L 56 -1253 
Q 228 -1256 350 -1188 
Q 409 -1153 442 -1076 
Q 475 -1000 475 -688 
L 475 2019 
Q 475 2297 450 2372 
Q 425 2447 370 2484 
Q 316 2522 222 2522 
Q 147 2522 31 2478 
L -6 2578 
z
M 994 2081 
L 994 1013 
Q 994 666 1022 556 
Q 1066 375 1236 237 
Q 1406 100 1666 100 
Q 1978 100 2172 344 
Q 2425 663 2425 1241 
Q 2425 1897 2138 2250 
Q 1938 2494 1663 2494 
Q 1513 2494 1366 2419 
Q 1253 2363 994 2081 
z
" transform="scale(0.015625)"/>
      <path id="TimesNewRomanPSMT-69" d="M 928 4444 
Q 1059 4444 1151 4351 
Q 1244 4259 1244 4128 
Q 1244 3997 1151 3903 
Q 1059 3809 928 3809 
Q 797 3809 703 3903 
Q 609 3997 609 4128 
Q 609 4259 701 4351 
Q 794 4444 928 4444 
z
M 1188 2947 
L 1188 647 
Q 1188 378 1227 289 
Q 1266 200 1342 156 
Q 1419 113 1622 113 
L 1622 0 
L 231 0 
L 231 113 
Q 441 113 512 153 
Q 584 194 626 287 
Q 669 381 669 647 
L 669 1750 
Q 669 2216 641 2353 
Q 619 2453 572 2492 
Q 525 2531 444 2531 
Q 356 2531 231 2484 
L 188 2597 
L 1050 2947 
L 1188 2947 
z
" transform="scale(0.015625)"/>
      <path id="TimesNewRomanPSMT-6e" d="M 1034 2341 
Q 1538 2947 1994 2947 
Q 2228 2947 2397 2830 
Q 2566 2713 2666 2444 
Q 2734 2256 2734 1869 
L 2734 647 
Q 2734 375 2778 278 
Q 2813 200 2889 156 
Q 2966 113 3172 113 
L 3172 0 
L 1756 0 
L 1756 113 
L 1816 113 
Q 2016 113 2095 173 
Q 2175 234 2206 353 
Q 2219 400 2219 647 
L 2219 1819 
Q 2219 2209 2117 2386 
Q 2016 2563 1775 2563 
Q 1403 2563 1034 2156 
L 1034 647 
Q 1034 356 1069 288 
Q 1113 197 1189 155 
Q 1266 113 1500 113 
L 1500 0 
L 84 0 
L 84 113 
L 147 113 
Q 366 113 442 223 
Q 519 334 519 647 
L 519 1709 
Q 519 2225 495 2337 
Q 472 2450 423 2490 
Q 375 2531 294 2531 
Q 206 2531 84 2484 
L 38 2597 
L 900 2947 
L 1034 2947 
L 1034 2341 
z
" transform="scale(0.015625)"/>
      <path id="TimesNewRomanPSMT-77" d="M 41 2863 
L 1241 2863 
L 1241 2747 
Q 1075 2734 1023 2687 
Q 972 2641 972 2553 
Q 972 2456 1025 2319 
L 1638 672 
L 2253 2013 
L 2091 2434 
Q 2016 2622 1894 2694 
Q 1825 2738 1638 2747 
L 1638 2863 
L 3000 2863 
L 3000 2747 
Q 2775 2738 2681 2666 
Q 2619 2616 2619 2506 
Q 2619 2444 2644 2378 
L 3294 734 
L 3897 2319 
Q 3959 2488 3959 2588 
Q 3959 2647 3898 2694 
Q 3838 2741 3659 2747 
L 3659 2863 
L 4563 2863 
L 4563 2747 
Q 4291 2706 4163 2378 
L 3206 -88 
L 3078 -88 
L 2363 1741 
L 1528 -88 
L 1413 -88 
L 494 2319 
Q 403 2547 315 2626 
Q 228 2706 41 2747 
L 41 2863 
z
" transform="scale(0.015625)"/>
      <path id="TimesNewRomanPSMT-74" d="M 1031 3803 
L 1031 2863 
L 1700 2863 
L 1700 2644 
L 1031 2644 
L 1031 788 
Q 1031 509 1111 412 
Q 1191 316 1316 316 
Q 1419 316 1516 380 
Q 1613 444 1666 569 
L 1788 569 
Q 1678 263 1478 108 
Q 1278 -47 1066 -47 
Q 922 -47 784 33 
Q 647 113 581 261 
Q 516 409 516 719 
L 516 2644 
L 63 2644 
L 63 2747 
Q 234 2816 414 2980 
Q 594 3144 734 3369 
Q 806 3488 934 3803 
L 1031 3803 
z
" transform="scale(0.015625)"/>
     </defs>
     <use xlink:href="#TimesNewRomanPSMT-45"/>
     <use xlink:href="#TimesNewRomanPSMT-70" x="61.083984"/>
     <use xlink:href="#TimesNewRomanPSMT-69" x="111.083984"/>
     <use xlink:href="#TimesNewRomanPSMT-6e" x="138.867188"/>
     <use xlink:href="#TimesNewRomanPSMT-6f" x="188.867188"/>
     <use xlink:href="#TimesNewRomanPSMT-77" x="238.867188"/>
     <use xlink:href="#TimesNewRomanPSMT-63" x="311.083984"/>
     <use xlink:href="#TimesNewRomanPSMT-61" x="355.46875"/>
     <use xlink:href="#TimesNewRomanPSMT-73" x="399.853516"/>
     <use xlink:href="#TimesNewRomanPSMT-74" x="438.769531"/>
    </g>
   </g>
   <g id="legend_1">
    <g id="patch_7">
     <path d="M 61.83 105.594063 
L 216.022187 105.594063 
Q 218.022187 105.594063 218.022187 103.594063 
L 218.022187 33.88 
Q 218.022187 31.88 216.022187 31.88 
L 61.83 31.88 
Q 59.83 31.88 59.83 33.88 
L 59.83 103.594063 
Q 59.83 105.594063 61.83 105.594063 
z
" style="fill: #ffffff; opacity: 0.8; stroke: #cccccc; stroke-linejoin: miter"/>
    </g>
    <g id="line2d_34">
     <path d="M 63.83 39.38 
L 73.83 39.38 
L 83.83 39.38 
" style="fill: none; stroke: #000000; stroke-width: 1.5; stroke-linecap: square"/>
    </g>
    <g id="text_18">
     <!-- True count -->
     <g transform="translate(91.83 42.88) scale(0.1 -0.1)">
      <defs>
       <path id="TimesNewRomanPSMT-54" d="M 3703 4238 
L 3750 3244 
L 3631 3244 
Q 3597 3506 3538 3619 
Q 3441 3800 3280 3886 
Q 3119 3972 2856 3972 
L 2259 3972 
L 2259 734 
Q 2259 344 2344 247 
Q 2463 116 2709 116 
L 2856 116 
L 2856 0 
L 1059 0 
L 1059 116 
L 1209 116 
Q 1478 116 1591 278 
Q 1659 378 1659 734 
L 1659 3972 
L 1150 3972 
Q 853 3972 728 3928 
Q 566 3869 450 3700 
Q 334 3531 313 3244 
L 194 3244 
L 244 4238 
L 3703 4238 
z
" transform="scale(0.015625)"/>
      </defs>
      <use xlink:href="#TimesNewRomanPSMT-54"/>
      <use xlink:href="#TimesNewRomanPSMT-72" x="57.583984"/>
      <use xlink:href="#TimesNewRomanPSMT-75" x="90.884766"/>
      <use xlink:href="#TimesNewRomanPSMT-65" x="140.884766"/>
      <use xlink:href="#TimesNewRomanPSMT-20" x="185.269531"/>
      <use xlink:href="#TimesNewRomanPSMT-63" x="210.269531"/>
      <use xlink:href="#TimesNewRomanPSMT-6f" x="254.654297"/>
      <use xlink:href="#TimesNewRomanPSMT-75" x="304.654297"/>
      <use xlink:href="#TimesNewRomanPSMT-6e" x="354.654297"/>
      <use xlink:href="#TimesNewRomanPSMT-74" x="404.654297"/>
     </g>
    </g>
    <g id="line2d_35">
     <path d="M 63.83 53.519063 
L 73.83 53.519063 
L 83.83 53.519063 
" style="fill: none; stroke: #dc143c; stroke-opacity: 0.75; stroke-width: 1.5; stroke-linecap: square"/>
    </g>
    <g id="text_19">
     <!-- Median nowcasted predictions -->
     <g transform="translate(91.83 57.019063) scale(0.1 -0.1)">
      <defs>
       <path id="TimesNewRomanPSMT-4d" d="M 2619 0 
L 981 3566 
L 981 734 
Q 981 344 1066 247 
Q 1181 116 1431 116 
L 1581 116 
L 1581 0 
L 106 0 
L 106 116 
L 256 116 
Q 525 116 638 278 
Q 706 378 706 734 
L 706 3503 
Q 706 3784 644 3909 
Q 600 4000 483 4061 
Q 366 4122 106 4122 
L 106 4238 
L 1306 4238 
L 2844 922 
L 4356 4238 
L 5556 4238 
L 5556 4122 
L 5409 4122 
Q 5138 4122 5025 3959 
Q 4956 3859 4956 3503 
L 4956 734 
Q 4956 344 5044 247 
Q 5159 116 5409 116 
L 5556 116 
L 5556 0 
L 3756 0 
L 3756 116 
L 3906 116 
Q 4178 116 4288 278 
Q 4356 378 4356 734 
L 4356 3566 
L 2722 0 
L 2619 0 
z
" transform="scale(0.015625)"/>
       <path id="TimesNewRomanPSMT-64" d="M 2222 322 
Q 2013 103 1813 7 
Q 1613 -88 1381 -88 
Q 913 -88 563 304 
Q 213 697 213 1313 
Q 213 1928 600 2439 
Q 988 2950 1597 2950 
Q 1975 2950 2222 2709 
L 2222 3238 
Q 2222 3728 2198 3840 
Q 2175 3953 2125 3993 
Q 2075 4034 2000 4034 
Q 1919 4034 1784 3984 
L 1744 4094 
L 2597 4444 
L 2738 4444 
L 2738 1134 
Q 2738 631 2761 520 
Q 2784 409 2836 365 
Q 2888 322 2956 322 
Q 3041 322 3181 375 
L 3216 266 
L 2366 -88 
L 2222 -88 
L 2222 322 
z
M 2222 541 
L 2222 2016 
Q 2203 2228 2109 2403 
Q 2016 2578 1861 2667 
Q 1706 2756 1559 2756 
Q 1284 2756 1069 2509 
Q 784 2184 784 1559 
Q 784 928 1059 592 
Q 1334 256 1672 256 
Q 1956 256 2222 541 
z
" transform="scale(0.015625)"/>
      </defs>
      <use xlink:href="#TimesNewRomanPSMT-4d"/>
      <use xlink:href="#TimesNewRomanPSMT-65" x="88.916016"/>
      <use xlink:href="#TimesNewRomanPSMT-64" x="133.300781"/>
      <use xlink:href="#TimesNewRomanPSMT-69" x="183.300781"/>
      <use xlink:href="#TimesNewRomanPSMT-61" x="211.083984"/>
      <use xlink:href="#TimesNewRomanPSMT-6e" x="255.46875"/>
      <use xlink:href="#TimesNewRomanPSMT-20" x="305.46875"/>
      <use xlink:href="#TimesNewRomanPSMT-6e" x="330.46875"/>
      <use xlink:href="#TimesNewRomanPSMT-6f" x="380.46875"/>
      <use xlink:href="#TimesNewRomanPSMT-77" x="430.46875"/>
      <use xlink:href="#TimesNewRomanPSMT-63" x="502.685547"/>
      <use xlink:href="#TimesNewRomanPSMT-61" x="547.070312"/>
      <use xlink:href="#TimesNewRomanPSMT-73" x="591.455078"/>
      <use xlink:href="#TimesNewRomanPSMT-74" x="630.371094"/>
      <use xlink:href="#TimesNewRomanPSMT-65" x="658.154297"/>
      <use xlink:href="#TimesNewRomanPSMT-64" x="702.539062"/>
      <use xlink:href="#TimesNewRomanPSMT-20" x="752.539062"/>
      <use xlink:href="#TimesNewRomanPSMT-70" x="777.539062"/>
      <use xlink:href="#TimesNewRomanPSMT-72" x="827.539062"/>
      <use xlink:href="#TimesNewRomanPSMT-65" x="860.839844"/>
      <use xlink:href="#TimesNewRomanPSMT-64" x="905.224609"/>
      <use xlink:href="#TimesNewRomanPSMT-69" x="955.224609"/>
      <use xlink:href="#TimesNewRomanPSMT-63" x="983.007812"/>
      <use xlink:href="#TimesNewRomanPSMT-74" x="1027.392578"/>
      <use xlink:href="#TimesNewRomanPSMT-69" x="1055.175781"/>
      <use xlink:href="#TimesNewRomanPSMT-6f" x="1082.958984"/>
      <use xlink:href="#TimesNewRomanPSMT-6e" x="1132.958984"/>
      <use xlink:href="#TimesNewRomanPSMT-73" x="1182.958984"/>
     </g>
    </g>
    <g id="patch_8">
     <path d="M 63.83 71.158125 
L 83.83 71.158125 
L 83.83 64.158125 
L 63.83 64.158125 
z
" style="fill: #dc143c; fill-opacity: 0.2; stroke: #dc143c; stroke-opacity: 0.2; stroke-linejoin: miter"/>
    </g>
    <g id="text_20">
     <!-- 50% CI -->
     <g transform="translate(91.83 71.158125) scale(0.1 -0.1)">
      <defs>
       <path id="TimesNewRomanPSMT-25" d="M 4350 4334 
L 1263 -175 
L 984 -175 
L 4072 4334 
L 4350 4334 
z
M 1138 4334 
Q 1559 4334 1792 3984 
Q 2025 3634 2025 3181 
Q 2025 2638 1762 2341 
Q 1500 2044 1131 2044 
Q 884 2044 678 2180 
Q 472 2316 348 2584 
Q 225 2853 225 3181 
Q 225 3509 350 3786 
Q 475 4063 692 4198 
Q 909 4334 1138 4334 
z
M 1128 4159 
Q 969 4159 845 3971 
Q 722 3784 722 3184 
Q 722 2750 791 2522 
Q 844 2350 956 2256 
Q 1022 2200 1119 2200 
Q 1269 2200 1375 2363 
Q 1531 2603 1531 3166 
Q 1531 3759 1378 4000 
Q 1278 4159 1128 4159 
z
M 4206 2103 
Q 4428 2103 4648 1962 
Q 4869 1822 4989 1553 
Q 5109 1284 5109 963 
Q 5109 409 4843 117 
Q 4578 -175 4216 -175 
Q 3988 -175 3773 -34 
Q 3559 106 3436 367 
Q 3313 628 3313 963 
Q 3313 1291 3436 1562 
Q 3559 1834 3773 1968 
Q 3988 2103 4206 2103 
z
M 4209 1938 
Q 4059 1938 3950 1769 
Q 3809 1550 3809 941 
Q 3809 381 3953 159 
Q 4059 0 4209 0 
Q 4353 0 4466 172 
Q 4616 400 4616 956 
Q 4616 1544 4466 1778 
Q 4363 1938 4209 1938 
z
" transform="scale(0.015625)"/>
       <path id="TimesNewRomanPSMT-43" d="M 3853 4334 
L 3950 2894 
L 3853 2894 
Q 3659 3541 3300 3825 
Q 2941 4109 2438 4109 
Q 2016 4109 1675 3895 
Q 1334 3681 1139 3212 
Q 944 2744 944 2047 
Q 944 1472 1128 1050 
Q 1313 628 1683 403 
Q 2053 178 2528 178 
Q 2941 178 3256 354 
Q 3572 531 3950 1056 
L 4047 994 
Q 3728 428 3303 165 
Q 2878 -97 2294 -97 
Q 1241 -97 663 684 
Q 231 1266 231 2053 
Q 231 2688 515 3219 
Q 800 3750 1298 4042 
Q 1797 4334 2388 4334 
Q 2847 4334 3294 4109 
Q 3425 4041 3481 4041 
Q 3566 4041 3628 4100 
Q 3709 4184 3744 4334 
L 3853 4334 
z
" transform="scale(0.015625)"/>
       <path id="TimesNewRomanPSMT-49" d="M 1975 116 
L 1975 0 
L 159 0 
L 159 116 
L 309 116 
Q 572 116 691 269 
Q 766 369 766 750 
L 766 3488 
Q 766 3809 725 3913 
Q 694 3991 597 4047 
Q 459 4122 309 4122 
L 159 4122 
L 159 4238 
L 1975 4238 
L 1975 4122 
L 1822 4122 
Q 1563 4122 1444 3969 
Q 1366 3869 1366 3488 
L 1366 750 
Q 1366 428 1406 325 
Q 1438 247 1538 191 
Q 1672 116 1822 116 
L 1975 116 
z
" transform="scale(0.015625)"/>
      </defs>
      <use xlink:href="#TimesNewRomanPSMT-35"/>
      <use xlink:href="#TimesNewRomanPSMT-30" x="50"/>
      <use xlink:href="#TimesNewRomanPSMT-25" x="100"/>
      <use xlink:href="#TimesNewRomanPSMT-20" x="183.300781"/>
      <use xlink:href="#TimesNewRomanPSMT-43" x="208.300781"/>
      <use xlink:href="#TimesNewRomanPSMT-49" x="275"/>
     </g>
    </g>
    <g id="patch_9">
     <path d="M 63.83 85.297188 
L 83.83 85.297188 
L 83.83 78.297188 
L 63.83 78.297188 
z
" style="fill: #dc143c; fill-opacity: 0.2; stroke: #dc143c; stroke-opacity: 0.2; stroke-linejoin: miter"/>
    </g>
    <g id="text_21">
     <!-- 95% CI -->
     <g transform="translate(91.83 85.297188) scale(0.1 -0.1)">
      <use xlink:href="#TimesNewRomanPSMT-39"/>
      <use xlink:href="#TimesNewRomanPSMT-35" x="50"/>
      <use xlink:href="#TimesNewRomanPSMT-25" x="100"/>
      <use xlink:href="#TimesNewRomanPSMT-20" x="183.300781"/>
      <use xlink:href="#TimesNewRomanPSMT-43" x="208.300781"/>
      <use xlink:href="#TimesNewRomanPSMT-49" x="275"/>
     </g>
    </g>
    <g id="line2d_36">
     <path d="M 63.83 95.93625 
L 73.83 95.93625 
L 83.83 95.93625 
" style="fill: none; stroke-dasharray: 5.55,2.4; stroke-dashoffset: 0; stroke: #000000; stroke-width: 1.5"/>
    </g>
    <g id="text_22">
     <!-- Current day -->
     <g transform="translate(91.83 99.43625) scale(0.1 -0.1)">
      <defs>
       <path id="TimesNewRomanPSMT-79" d="M 38 2863 
L 1372 2863 
L 1372 2747 
L 1306 2747 
Q 1166 2747 1095 2686 
Q 1025 2625 1025 2534 
Q 1025 2413 1128 2197 
L 1825 753 
L 2466 2334 
Q 2519 2463 2519 2588 
Q 2519 2644 2497 2672 
Q 2472 2706 2419 2726 
Q 2366 2747 2231 2747 
L 2231 2863 
L 3163 2863 
L 3163 2747 
Q 3047 2734 2984 2696 
Q 2922 2659 2847 2556 
Q 2819 2513 2741 2316 
L 1575 -541 
Q 1406 -956 1132 -1168 
Q 859 -1381 606 -1381 
Q 422 -1381 303 -1275 
Q 184 -1169 184 -1031 
Q 184 -900 270 -820 
Q 356 -741 506 -741 
Q 609 -741 788 -809 
Q 913 -856 944 -856 
Q 1038 -856 1148 -759 
Q 1259 -663 1372 -384 
L 1575 113 
L 547 2272 
Q 500 2369 397 2513 
Q 319 2622 269 2659 
Q 197 2709 38 2747 
L 38 2863 
z
" transform="scale(0.015625)"/>
      </defs>
      <use xlink:href="#TimesNewRomanPSMT-43"/>
      <use xlink:href="#TimesNewRomanPSMT-75" x="66.699219"/>
      <use xlink:href="#TimesNewRomanPSMT-72" x="116.699219"/>
      <use xlink:href="#TimesNewRomanPSMT-72" x="150"/>
      <use xlink:href="#TimesNewRomanPSMT-65" x="183.300781"/>
      <use xlink:href="#TimesNewRomanPSMT-6e" x="227.685547"/>
      <use xlink:href="#TimesNewRomanPSMT-74" x="277.685547"/>
      <use xlink:href="#TimesNewRomanPSMT-20" x="305.46875"/>
      <use xlink:href="#TimesNewRomanPSMT-64" x="330.46875"/>
      <use xlink:href="#TimesNewRomanPSMT-61" x="380.46875"/>
      <use xlink:href="#TimesNewRomanPSMT-79" x="424.853516"/>
     </g>
    </g>
   </g>
  </g>
  <g id="axes_2">
   <g id="patch_10">
    <path d="M 329.267008 277.476061 
L 578.475647 277.476061 
L 578.475647 26.88 
L 329.267008 26.88 
z
" style="fill: #ffffff"/>
   </g>
   <g id="PolyCollection_3">
    <defs>
     <path id="m2be988ca3e" d="M 340.594673 -188.399514 
L 340.594673 -162.872678 
L 358.021851 -165.090963 
L 375.449028 -192.471889 
L 392.876206 -135.78973 
L 410.303383 -127.545655 
L 427.730561 -128.903113 
L 445.157738 -121.619191 
L 462.584916 -103.310059 
L 480.012094 -96.059245 
L 497.439271 -118.904274 
L 514.866449 -106.356063 
L 532.293626 -115.427857 
L 549.720804 -84.239426 
L 567.147981 -98.277531 
L 567.147981 -120.06308 
L 567.147981 -120.06308 
L 549.720804 -103.078298 
L 532.293626 -134.76336 
L 514.866449 -124.433433 
L 497.439271 -146.947375 
L 480.012094 -118.308317 
L 462.584916 -132.081552 
L 445.157738 -145.589917 
L 427.730561 -153.37047 
L 410.303383 -150.49001 
L 392.876206 -176.083064 
L 375.449028 -235.215269 
L 358.021851 -196.411829 
L 340.594673 -188.399514 
z
" style="stroke: #dc143c; stroke-opacity: 0.2"/>
    </defs>
    <g clip-path="url(#pbec6726070)">
     <use xlink:href="#m2be988ca3e" x="0" y="324" style="fill: #dc143c; fill-opacity: 0.2; stroke: #dc143c; stroke-opacity: 0.2"/>
    </g>
   </g>
   <g id="PolyCollection_4">
    <defs>
     <path id="m6cb03e8068" d="M 340.594673 -217.134588 
L 340.594673 -140.275964 
L 358.021851 -140.216369 
L 375.449028 -159.88627 
L 392.876206 -113.798907 
L 410.303383 -96.572431 
L 427.730561 -106.587824 
L 445.157738 -103.349789 
L 462.584916 -87.844968 
L 480.012094 -82.676694 
L 497.439271 -97.595491 
L 514.866449 -91.669027 
L 532.293626 -103.965612 
L 549.720804 -69.568945 
L 567.147981 -78.00174 
L 567.147981 -156.101941 
L 567.147981 -156.101941 
L 549.720804 -132.406017 
L 532.293626 -151.74152 
L 514.866449 -150.168855 
L 497.439271 -174.219042 
L 480.012094 -151.830914 
L 462.584916 -164.677104 
L 445.157738 -165.673677 
L 427.730561 -174.732227 
L 410.303383 -169.16996 
L 392.876206 -225.524342 
L 375.449028 -285.72927 
L 358.021851 -228.563724 
L 340.594673 -217.134588 
z
" style="stroke: #dc143c; stroke-opacity: 0.2"/>
    </defs>
    <g clip-path="url(#pbec6726070)">
     <use xlink:href="#m6cb03e8068" x="0" y="324" style="fill: #dc143c; fill-opacity: 0.2; stroke: #dc143c; stroke-opacity: 0.2"/>
    </g>
   </g>
   <g id="matplotlib.axis_3">
    <g id="xtick_8">
     <g id="line2d_37">
      <path d="M 340.594673 277.476061 
L 340.594673 26.88 
" clip-path="url(#pbec6726070)" style="fill: none; stroke: #b0b0b0; stroke-opacity: 0.2; stroke-width: 0.8; stroke-linecap: square"/>
     </g>
     <g id="line2d_38">
      <g>
       <use xlink:href="#meffa7b80c3" x="340.594673" y="277.476061" style="stroke: #000000; stroke-width: 0.8"/>
      </g>
     </g>
     <g id="text_23">
      <!-- 2019-06-29 -->
      <g transform="translate(320.46607 310.48834) rotate(-25) scale(0.1 -0.1)">
       <use xlink:href="#TimesNewRomanPSMT-32"/>
       <use xlink:href="#TimesNewRomanPSMT-30" x="50"/>
       <use xlink:href="#TimesNewRomanPSMT-31" x="100"/>
       <use xlink:href="#TimesNewRomanPSMT-39" x="150"/>
       <use xlink:href="#TimesNewRomanPSMT-2d" x="200"/>
       <use xlink:href="#TimesNewRomanPSMT-30" x="233.300781"/>
       <use xlink:href="#TimesNewRomanPSMT-36" x="283.300781"/>
       <use xlink:href="#TimesNewRomanPSMT-2d" x="333.300781"/>
       <use xlink:href="#TimesNewRomanPSMT-32" x="366.601562"/>
       <use xlink:href="#TimesNewRomanPSMT-39" x="416.601562"/>
      </g>
     </g>
    </g>
    <g id="xtick_9">
     <g id="line2d_39">
      <path d="M 375.449028 277.476061 
L 375.449028 26.88 
" clip-path="url(#pbec6726070)" style="fill: none; stroke: #b0b0b0; stroke-opacity: 0.2; stroke-width: 0.8; stroke-linecap: square"/>
     </g>
     <g id="line2d_40">
      <g>
       <use xlink:href="#meffa7b80c3" x="375.449028" y="277.476061" style="stroke: #000000; stroke-width: 0.8"/>
      </g>
     </g>
     <g id="text_24">
      <!-- 2019-07-01 -->
      <g transform="translate(355.320425 310.48834) rotate(-25) scale(0.1 -0.1)">
       <use xlink:href="#TimesNewRomanPSMT-32"/>
       <use xlink:href="#TimesNewRomanPSMT-30" x="50"/>
       <use xlink:href="#TimesNewRomanPSMT-31" x="100"/>
       <use xlink:href="#TimesNewRomanPSMT-39" x="150"/>
       <use xlink:href="#TimesNewRomanPSMT-2d" x="200"/>
       <use xlink:href="#TimesNewRomanPSMT-30" x="233.300781"/>
       <use xlink:href="#TimesNewRomanPSMT-37" x="283.300781"/>
       <use xlink:href="#TimesNewRomanPSMT-2d" x="333.300781"/>
       <use xlink:href="#TimesNewRomanPSMT-30" x="366.601562"/>
       <use xlink:href="#TimesNewRomanPSMT-31" x="416.601562"/>
      </g>
     </g>
    </g>
    <g id="xtick_10">
     <g id="line2d_41">
      <path d="M 410.303383 277.476061 
L 410.303383 26.88 
" clip-path="url(#pbec6726070)" style="fill: none; stroke: #b0b0b0; stroke-opacity: 0.2; stroke-width: 0.8; stroke-linecap: square"/>
     </g>
     <g id="line2d_42">
      <g>
       <use xlink:href="#meffa7b80c3" x="410.303383" y="277.476061" style="stroke: #000000; stroke-width: 0.8"/>
      </g>
     </g>
     <g id="text_25">
      <!-- 2019-07-03 -->
      <g transform="translate(390.17478 310.48834) rotate(-25) scale(0.1 -0.1)">
       <use xlink:href="#TimesNewRomanPSMT-32"/>
       <use xlink:href="#TimesNewRomanPSMT-30" x="50"/>
       <use xlink:href="#TimesNewRomanPSMT-31" x="100"/>
       <use xlink:href="#TimesNewRomanPSMT-39" x="150"/>
       <use xlink:href="#TimesNewRomanPSMT-2d" x="200"/>
       <use xlink:href="#TimesNewRomanPSMT-30" x="233.300781"/>
       <use xlink:href="#TimesNewRomanPSMT-37" x="283.300781"/>
       <use xlink:href="#TimesNewRomanPSMT-2d" x="333.300781"/>
       <use xlink:href="#TimesNewRomanPSMT-30" x="366.601562"/>
       <use xlink:href="#TimesNewRomanPSMT-33" x="416.601562"/>
      </g>
     </g>
    </g>
    <g id="xtick_11">
     <g id="line2d_43">
      <path d="M 445.157738 277.476061 
L 445.157738 26.88 
" clip-path="url(#pbec6726070)" style="fill: none; stroke: #b0b0b0; stroke-opacity: 0.2; stroke-width: 0.8; stroke-linecap: square"/>
     </g>
     <g id="line2d_44">
      <g>
       <use xlink:href="#meffa7b80c3" x="445.157738" y="277.476061" style="stroke: #000000; stroke-width: 0.8"/>
      </g>
     </g>
     <g id="text_26">
      <!-- 2019-07-05 -->
      <g transform="translate(425.029135 310.48834) rotate(-25) scale(0.1 -0.1)">
       <use xlink:href="#TimesNewRomanPSMT-32"/>
       <use xlink:href="#TimesNewRomanPSMT-30" x="50"/>
       <use xlink:href="#TimesNewRomanPSMT-31" x="100"/>
       <use xlink:href="#TimesNewRomanPSMT-39" x="150"/>
       <use xlink:href="#TimesNewRomanPSMT-2d" x="200"/>
       <use xlink:href="#TimesNewRomanPSMT-30" x="233.300781"/>
       <use xlink:href="#TimesNewRomanPSMT-37" x="283.300781"/>
       <use xlink:href="#TimesNewRomanPSMT-2d" x="333.300781"/>
       <use xlink:href="#TimesNewRomanPSMT-30" x="366.601562"/>
       <use xlink:href="#TimesNewRomanPSMT-35" x="416.601562"/>
      </g>
     </g>
    </g>
    <g id="xtick_12">
     <g id="line2d_45">
      <path d="M 480.012094 277.476061 
L 480.012094 26.88 
" clip-path="url(#pbec6726070)" style="fill: none; stroke: #b0b0b0; stroke-opacity: 0.2; stroke-width: 0.8; stroke-linecap: square"/>
     </g>
     <g id="line2d_46">
      <g>
       <use xlink:href="#meffa7b80c3" x="480.012094" y="277.476061" style="stroke: #000000; stroke-width: 0.8"/>
      </g>
     </g>
     <g id="text_27">
      <!-- 2019-07-07 -->
      <g transform="translate(459.88349 310.48834) rotate(-25) scale(0.1 -0.1)">
       <use xlink:href="#TimesNewRomanPSMT-32"/>
       <use xlink:href="#TimesNewRomanPSMT-30" x="50"/>
       <use xlink:href="#TimesNewRomanPSMT-31" x="100"/>
       <use xlink:href="#TimesNewRomanPSMT-39" x="150"/>
       <use xlink:href="#TimesNewRomanPSMT-2d" x="200"/>
       <use xlink:href="#TimesNewRomanPSMT-30" x="233.300781"/>
       <use xlink:href="#TimesNewRomanPSMT-37" x="283.300781"/>
       <use xlink:href="#TimesNewRomanPSMT-2d" x="333.300781"/>
       <use xlink:href="#TimesNewRomanPSMT-30" x="366.601562"/>
       <use xlink:href="#TimesNewRomanPSMT-37" x="416.601562"/>
      </g>
     </g>
    </g>
    <g id="xtick_13">
     <g id="line2d_47">
      <path d="M 514.866449 277.476061 
L 514.866449 26.88 
" clip-path="url(#pbec6726070)" style="fill: none; stroke: #b0b0b0; stroke-opacity: 0.2; stroke-width: 0.8; stroke-linecap: square"/>
     </g>
     <g id="line2d_48">
      <g>
       <use xlink:href="#meffa7b80c3" x="514.866449" y="277.476061" style="stroke: #000000; stroke-width: 0.8"/>
      </g>
     </g>
     <g id="text_28">
      <!-- 2019-07-09 -->
      <g transform="translate(494.737845 310.48834) rotate(-25) scale(0.1 -0.1)">
       <use xlink:href="#TimesNewRomanPSMT-32"/>
       <use xlink:href="#TimesNewRomanPSMT-30" x="50"/>
       <use xlink:href="#TimesNewRomanPSMT-31" x="100"/>
       <use xlink:href="#TimesNewRomanPSMT-39" x="150"/>
       <use xlink:href="#TimesNewRomanPSMT-2d" x="200"/>
       <use xlink:href="#TimesNewRomanPSMT-30" x="233.300781"/>
       <use xlink:href="#TimesNewRomanPSMT-37" x="283.300781"/>
       <use xlink:href="#TimesNewRomanPSMT-2d" x="333.300781"/>
       <use xlink:href="#TimesNewRomanPSMT-30" x="366.601562"/>
       <use xlink:href="#TimesNewRomanPSMT-39" x="416.601562"/>
      </g>
     </g>
    </g>
    <g id="xtick_14">
     <g id="line2d_49">
      <path d="M 549.720804 277.476061 
L 549.720804 26.88 
" clip-path="url(#pbec6726070)" style="fill: none; stroke: #b0b0b0; stroke-opacity: 0.2; stroke-width: 0.8; stroke-linecap: square"/>
     </g>
     <g id="line2d_50">
      <g>
       <use xlink:href="#meffa7b80c3" x="549.720804" y="277.476061" style="stroke: #000000; stroke-width: 0.8"/>
      </g>
     </g>
     <g id="text_29">
      <!-- 2019-07-11 -->
      <g transform="translate(529.762133 310.329858) rotate(-25) scale(0.1 -0.1)">
       <use xlink:href="#TimesNewRomanPSMT-32"/>
       <use xlink:href="#TimesNewRomanPSMT-30" x="50"/>
       <use xlink:href="#TimesNewRomanPSMT-31" x="100"/>
       <use xlink:href="#TimesNewRomanPSMT-39" x="150"/>
       <use xlink:href="#TimesNewRomanPSMT-2d" x="200"/>
       <use xlink:href="#TimesNewRomanPSMT-30" x="233.300781"/>
       <use xlink:href="#TimesNewRomanPSMT-37" x="283.300781"/>
       <use xlink:href="#TimesNewRomanPSMT-2d" x="333.300781"/>
       <use xlink:href="#TimesNewRomanPSMT-31" x="366.601562"/>
       <use xlink:href="#TimesNewRomanPSMT-31" x="412.851562"/>
      </g>
     </g>
    </g>
   </g>
   <g id="matplotlib.axis_4">
    <g id="ytick_9">
     <g id="line2d_51">
      <path d="M 329.267008 265.55228 
L 578.475647 265.55228 
" clip-path="url(#pbec6726070)" style="fill: none; stroke: #b0b0b0; stroke-opacity: 0.2; stroke-width: 0.8; stroke-linecap: square"/>
     </g>
     <g id="line2d_52">
      <g>
       <use xlink:href="#mc60f8b40e0" x="329.267008" y="265.55228" style="stroke: #000000; stroke-width: 0.8"/>
      </g>
     </g>
    </g>
    <g id="ytick_10">
     <g id="line2d_53">
      <path d="M 329.267008 232.443543 
L 578.475647 232.443543 
" clip-path="url(#pbec6726070)" style="fill: none; stroke: #b0b0b0; stroke-opacity: 0.2; stroke-width: 0.8; stroke-linecap: square"/>
     </g>
     <g id="line2d_54">
      <g>
       <use xlink:href="#mc60f8b40e0" x="329.267008" y="232.443543" style="stroke: #000000; stroke-width: 0.8"/>
      </g>
     </g>
    </g>
    <g id="ytick_11">
     <g id="line2d_55">
      <path d="M 329.267008 199.334805 
L 578.475647 199.334805 
" clip-path="url(#pbec6726070)" style="fill: none; stroke: #b0b0b0; stroke-opacity: 0.2; stroke-width: 0.8; stroke-linecap: square"/>
     </g>
     <g id="line2d_56">
      <g>
       <use xlink:href="#mc60f8b40e0" x="329.267008" y="199.334805" style="stroke: #000000; stroke-width: 0.8"/>
      </g>
     </g>
    </g>
    <g id="ytick_12">
     <g id="line2d_57">
      <path d="M 329.267008 166.226068 
L 578.475647 166.226068 
" clip-path="url(#pbec6726070)" style="fill: none; stroke: #b0b0b0; stroke-opacity: 0.2; stroke-width: 0.8; stroke-linecap: square"/>
     </g>
     <g id="line2d_58">
      <g>
       <use xlink:href="#mc60f8b40e0" x="329.267008" y="166.226068" style="stroke: #000000; stroke-width: 0.8"/>
      </g>
     </g>
    </g>
    <g id="ytick_13">
     <g id="line2d_59">
      <path d="M 329.267008 133.11733 
L 578.475647 133.11733 
" clip-path="url(#pbec6726070)" style="fill: none; stroke: #b0b0b0; stroke-opacity: 0.2; stroke-width: 0.8; stroke-linecap: square"/>
     </g>
     <g id="line2d_60">
      <g>
       <use xlink:href="#mc60f8b40e0" x="329.267008" y="133.11733" style="stroke: #000000; stroke-width: 0.8"/>
      </g>
     </g>
    </g>
    <g id="ytick_14">
     <g id="line2d_61">
      <path d="M 329.267008 100.008593 
L 578.475647 100.008593 
" clip-path="url(#pbec6726070)" style="fill: none; stroke: #b0b0b0; stroke-opacity: 0.2; stroke-width: 0.8; stroke-linecap: square"/>
     </g>
     <g id="line2d_62">
      <g>
       <use xlink:href="#mc60f8b40e0" x="329.267008" y="100.008593" style="stroke: #000000; stroke-width: 0.8"/>
      </g>
     </g>
    </g>
    <g id="ytick_15">
     <g id="line2d_63">
      <path d="M 329.267008 66.899855 
L 578.475647 66.899855 
" clip-path="url(#pbec6726070)" style="fill: none; stroke: #b0b0b0; stroke-opacity: 0.2; stroke-width: 0.8; stroke-linecap: square"/>
     </g>
     <g id="line2d_64">
      <g>
       <use xlink:href="#mc60f8b40e0" x="329.267008" y="66.899855" style="stroke: #000000; stroke-width: 0.8"/>
      </g>
     </g>
    </g>
    <g id="ytick_16">
     <g id="line2d_65">
      <path d="M 329.267008 33.791118 
L 578.475647 33.791118 
" clip-path="url(#pbec6726070)" style="fill: none; stroke: #b0b0b0; stroke-opacity: 0.2; stroke-width: 0.8; stroke-linecap: square"/>
     </g>
     <g id="line2d_66">
      <g>
       <use xlink:href="#mc60f8b40e0" x="329.267008" y="33.791118" style="stroke: #000000; stroke-width: 0.8"/>
      </g>
     </g>
    </g>
   </g>
   <g id="line2d_67">
    <path d="M 340.594673 132.455156 
L 358.021851 125.700973 
L 375.449028 112.457478 
L 392.876206 172.053206 
L 410.303383 181.853392 
L 427.730561 209.134992 
L 445.157738 211.783691 
L 462.584916 206.088988 
L 480.012094 211.916126 
L 497.439271 196.023932 
L 514.866449 198.010456 
L 532.293626 191.521143 
L 549.720804 222.246052 
L 567.147981 218.008133 
" clip-path="url(#pbec6726070)" style="fill: none; stroke: #000000; stroke-width: 1.5; stroke-linecap: square"/>
   </g>
   <g id="line2d_68">
    <path d="M 340.594673 148.744654 
L 358.021851 144.440519 
L 375.449028 110.802041 
L 392.876206 174.03973 
L 410.303383 184.766961 
L 427.730561 184.833178 
L 445.157738 189.998141 
L 462.584916 209.068774 
L 480.012094 219.067613 
L 497.439271 194.302277 
L 514.866449 208.936339 
L 532.293626 200.857807 
L 549.720804 229.662409 
L 567.147981 215.889174 
" clip-path="url(#pbec6726070)" style="fill: none; stroke: #dc143c; stroke-opacity: 0.75; stroke-width: 1.5; stroke-linecap: square"/>
   </g>
   <g id="line2d_69">
    <path d="M 567.147981 277.476061 
L 567.147981 26.88 
" clip-path="url(#pbec6726070)" style="fill: none; stroke-dasharray: 5.55,2.4; stroke-dashoffset: 0; stroke: #000000; stroke-width: 1.5"/>
   </g>
   <g id="patch_11">
    <path d="M 329.267008 277.476061 
L 329.267008 26.88 
" style="fill: none; stroke: #000000; stroke-width: 0.8; stroke-linejoin: miter; stroke-linecap: square"/>
   </g>
   <g id="patch_12">
    <path d="M 578.475647 277.476061 
L 578.475647 26.88 
" style="fill: none; stroke: #000000; stroke-width: 0.8; stroke-linejoin: miter; stroke-linecap: square"/>
   </g>
   <g id="patch_13">
    <path d="M 329.267008 277.476061 
L 578.475647 277.476061 
" style="fill: none; stroke: #000000; stroke-width: 0.8; stroke-linejoin: miter; stroke-linecap: square"/>
   </g>
   <g id="patch_14">
    <path d="M 329.267008 26.88 
L 578.475647 26.88 
" style="fill: none; stroke: #000000; stroke-width: 0.8; stroke-linejoin: miter; stroke-linecap: square"/>
   </g>
   <g id="text_30">
    <!-- NowcastPNN -->
    <g transform="translate(414.273577 20.88) scale(0.144 -0.144)">
     <defs>
      <path id="TimesNewRomanPSMT-50" d="M 1313 1984 
L 1313 750 
Q 1313 350 1400 253 
Q 1519 116 1759 116 
L 1922 116 
L 1922 0 
L 106 0 
L 106 116 
L 266 116 
Q 534 116 650 291 
Q 713 388 713 750 
L 713 3488 
Q 713 3888 628 3984 
Q 506 4122 266 4122 
L 106 4122 
L 106 4238 
L 1659 4238 
Q 2228 4238 2556 4120 
Q 2884 4003 3109 3725 
Q 3334 3447 3334 3066 
Q 3334 2547 2992 2222 
Q 2650 1897 2025 1897 
Q 1872 1897 1694 1919 
Q 1516 1941 1313 1984 
z
M 1313 2163 
Q 1478 2131 1606 2115 
Q 1734 2100 1825 2100 
Q 2150 2100 2386 2351 
Q 2622 2603 2622 3003 
Q 2622 3278 2509 3514 
Q 2397 3750 2190 3867 
Q 1984 3984 1722 3984 
Q 1563 3984 1313 3925 
L 1313 2163 
z
" transform="scale(0.015625)"/>
     </defs>
     <use xlink:href="#TimesNewRomanPSMT-4e"/>
     <use xlink:href="#TimesNewRomanPSMT-6f" x="72.216797"/>
     <use xlink:href="#TimesNewRomanPSMT-77" x="122.216797"/>
     <use xlink:href="#TimesNewRomanPSMT-63" x="194.433594"/>
     <use xlink:href="#TimesNewRomanPSMT-61" x="238.818359"/>
     <use xlink:href="#TimesNewRomanPSMT-73" x="283.203125"/>
     <use xlink:href="#TimesNewRomanPSMT-74" x="322.119141"/>
     <use xlink:href="#TimesNewRomanPSMT-50" x="349.902344"/>
     <use xlink:href="#TimesNewRomanPSMT-4e" x="405.517578"/>
     <use xlink:href="#TimesNewRomanPSMT-4e" x="477.734375"/>
    </g>
   </g>
  </g>
  <g id="axes_3">
   <g id="patch_15">
    <path d="M 603.704016 277.476061 
L 852.912654 277.476061 
L 852.912654 26.88 
L 603.704016 26.88 
z
" style="fill: #ffffff"/>
   </g>
   <g id="PolyCollection_5">
    <defs>
     <path id="mca48ca2b94" d="M 615.031681 -189.161015 
L 615.031681 -187.836666 
L 632.458859 -193.796239 
L 649.886036 -203.19912 
L 667.313214 -149.562965 
L 684.740391 -138.305994 
L 702.167569 -113.540659 
L 719.594746 -108.375696 
L 737.021924 -113.540659 
L 754.449101 -105.064822 
L 771.876279 -111.289265 
L 789.303456 -108.905436 
L 806.730634 -99.767424 
L 824.157812 -81.590727 
L 841.584989 -70.896605 
L 841.584989 -89.569933 
L 841.584989 -89.569933 
L 824.157812 -96.489659 
L 806.730634 -111.454808 
L 789.303456 -117.944121 
L 771.876279 -118.838057 
L 754.449101 -111.15683 
L 737.021924 -118.175882 
L 719.594746 -112.083874 
L 702.167569 -116.487336 
L 684.740391 -140.822259 
L 667.313214 -151.681924 
L 649.886036 -204.920774 
L 632.458859 -195.120588 
L 615.031681 -189.161015 
z
" style="stroke: #dc143c; stroke-opacity: 0.2"/>
    </defs>
    <g clip-path="url(#p5e41abf522)">
     <use xlink:href="#mca48ca2b94" x="0" y="324" style="fill: #dc143c; fill-opacity: 0.2; stroke: #dc143c; stroke-opacity: 0.2"/>
    </g>
   </g>
   <g id="PolyCollection_6">
    <defs>
     <path id="med80bed9bd" d="M 615.031681 -190.485365 
L 615.031681 -186.909621 
L 632.458859 -192.604324 
L 649.886036 -201.87477 
L 667.313214 -147.973746 
L 684.740391 -136.448594 
L 702.167569 -111.289265 
L 719.594746 -105.594562 
L 737.021924 -110.229785 
L 754.449101 -100.959339 
L 771.876279 -106.253426 
L 789.303456 -101.883072 
L 806.730634 -91.685581 
L 824.157812 -70.366865 
L 841.584989 -57.914669 
L 841.584989 -117.434246 
L 841.584989 -117.434246 
L 824.157812 -117.914323 
L 806.730634 -128.509119 
L 789.303456 -131.684247 
L 771.876279 -128.240938 
L 754.449101 -118.311628 
L 737.021924 -123.479902 
L 719.594746 -116.983968 
L 702.167569 -119.897536 
L 684.740391 -144.000697 
L 667.313214 -154.065754 
L 649.886036 -206.910609 
L 632.458859 -196.709807 
L 615.031681 -190.485365 
z
" style="stroke: #dc143c; stroke-opacity: 0.2"/>
    </defs>
    <g clip-path="url(#p5e41abf522)">
     <use xlink:href="#med80bed9bd" x="0" y="324" style="fill: #dc143c; fill-opacity: 0.2; stroke: #dc143c; stroke-opacity: 0.2"/>
    </g>
   </g>
   <g id="matplotlib.axis_5">
    <g id="xtick_15">
     <g id="line2d_70">
      <path d="M 615.031681 277.476061 
L 615.031681 26.88 
" clip-path="url(#p5e41abf522)" style="fill: none; stroke: #b0b0b0; stroke-opacity: 0.2; stroke-width: 0.8; stroke-linecap: square"/>
     </g>
     <g id="line2d_71">
      <g>
       <use xlink:href="#meffa7b80c3" x="615.031681" y="277.476061" style="stroke: #000000; stroke-width: 0.8"/>
      </g>
     </g>
     <g id="text_31">
      <!-- 2019-06-29 -->
      <g transform="translate(594.903078 310.48834) rotate(-25) scale(0.1 -0.1)">
       <use xlink:href="#TimesNewRomanPSMT-32"/>
       <use xlink:href="#TimesNewRomanPSMT-30" x="50"/>
       <use xlink:href="#TimesNewRomanPSMT-31" x="100"/>
       <use xlink:href="#TimesNewRomanPSMT-39" x="150"/>
       <use xlink:href="#TimesNewRomanPSMT-2d" x="200"/>
       <use xlink:href="#TimesNewRomanPSMT-30" x="233.300781"/>
       <use xlink:href="#TimesNewRomanPSMT-36" x="283.300781"/>
       <use xlink:href="#TimesNewRomanPSMT-2d" x="333.300781"/>
       <use xlink:href="#TimesNewRomanPSMT-32" x="366.601562"/>
       <use xlink:href="#TimesNewRomanPSMT-39" x="416.601562"/>
      </g>
     </g>
    </g>
    <g id="xtick_16">
     <g id="line2d_72">
      <path d="M 649.886036 277.476061 
L 649.886036 26.88 
" clip-path="url(#p5e41abf522)" style="fill: none; stroke: #b0b0b0; stroke-opacity: 0.2; stroke-width: 0.8; stroke-linecap: square"/>
     </g>
     <g id="line2d_73">
      <g>
       <use xlink:href="#meffa7b80c3" x="649.886036" y="277.476061" style="stroke: #000000; stroke-width: 0.8"/>
      </g>
     </g>
     <g id="text_32">
      <!-- 2019-07-01 -->
      <g transform="translate(629.757433 310.48834) rotate(-25) scale(0.1 -0.1)">
       <use xlink:href="#TimesNewRomanPSMT-32"/>
       <use xlink:href="#TimesNewRomanPSMT-30" x="50"/>
       <use xlink:href="#TimesNewRomanPSMT-31" x="100"/>
       <use xlink:href="#TimesNewRomanPSMT-39" x="150"/>
       <use xlink:href="#TimesNewRomanPSMT-2d" x="200"/>
       <use xlink:href="#TimesNewRomanPSMT-30" x="233.300781"/>
       <use xlink:href="#TimesNewRomanPSMT-37" x="283.300781"/>
       <use xlink:href="#TimesNewRomanPSMT-2d" x="333.300781"/>
       <use xlink:href="#TimesNewRomanPSMT-30" x="366.601562"/>
       <use xlink:href="#TimesNewRomanPSMT-31" x="416.601562"/>
      </g>
     </g>
    </g>
    <g id="xtick_17">
     <g id="line2d_74">
      <path d="M 684.740391 277.476061 
L 684.740391 26.88 
" clip-path="url(#p5e41abf522)" style="fill: none; stroke: #b0b0b0; stroke-opacity: 0.2; stroke-width: 0.8; stroke-linecap: square"/>
     </g>
     <g id="line2d_75">
      <g>
       <use xlink:href="#meffa7b80c3" x="684.740391" y="277.476061" style="stroke: #000000; stroke-width: 0.8"/>
      </g>
     </g>
     <g id="text_33">
      <!-- 2019-07-03 -->
      <g transform="translate(664.611788 310.48834) rotate(-25) scale(0.1 -0.1)">
       <use xlink:href="#TimesNewRomanPSMT-32"/>
       <use xlink:href="#TimesNewRomanPSMT-30" x="50"/>
       <use xlink:href="#TimesNewRomanPSMT-31" x="100"/>
       <use xlink:href="#TimesNewRomanPSMT-39" x="150"/>
       <use xlink:href="#TimesNewRomanPSMT-2d" x="200"/>
       <use xlink:href="#TimesNewRomanPSMT-30" x="233.300781"/>
       <use xlink:href="#TimesNewRomanPSMT-37" x="283.300781"/>
       <use xlink:href="#TimesNewRomanPSMT-2d" x="333.300781"/>
       <use xlink:href="#TimesNewRomanPSMT-30" x="366.601562"/>
       <use xlink:href="#TimesNewRomanPSMT-33" x="416.601562"/>
      </g>
     </g>
    </g>
    <g id="xtick_18">
     <g id="line2d_76">
      <path d="M 719.594746 277.476061 
L 719.594746 26.88 
" clip-path="url(#p5e41abf522)" style="fill: none; stroke: #b0b0b0; stroke-opacity: 0.2; stroke-width: 0.8; stroke-linecap: square"/>
     </g>
     <g id="line2d_77">
      <g>
       <use xlink:href="#meffa7b80c3" x="719.594746" y="277.476061" style="stroke: #000000; stroke-width: 0.8"/>
      </g>
     </g>
     <g id="text_34">
      <!-- 2019-07-05 -->
      <g transform="translate(699.466143 310.48834) rotate(-25) scale(0.1 -0.1)">
       <use xlink:href="#TimesNewRomanPSMT-32"/>
       <use xlink:href="#TimesNewRomanPSMT-30" x="50"/>
       <use xlink:href="#TimesNewRomanPSMT-31" x="100"/>
       <use xlink:href="#TimesNewRomanPSMT-39" x="150"/>
       <use xlink:href="#TimesNewRomanPSMT-2d" x="200"/>
       <use xlink:href="#TimesNewRomanPSMT-30" x="233.300781"/>
       <use xlink:href="#TimesNewRomanPSMT-37" x="283.300781"/>
       <use xlink:href="#TimesNewRomanPSMT-2d" x="333.300781"/>
       <use xlink:href="#TimesNewRomanPSMT-30" x="366.601562"/>
       <use xlink:href="#TimesNewRomanPSMT-35" x="416.601562"/>
      </g>
     </g>
    </g>
    <g id="xtick_19">
     <g id="line2d_78">
      <path d="M 754.449101 277.476061 
L 754.449101 26.88 
" clip-path="url(#p5e41abf522)" style="fill: none; stroke: #b0b0b0; stroke-opacity: 0.2; stroke-width: 0.8; stroke-linecap: square"/>
     </g>
     <g id="line2d_79">
      <g>
       <use xlink:href="#meffa7b80c3" x="754.449101" y="277.476061" style="stroke: #000000; stroke-width: 0.8"/>
      </g>
     </g>
     <g id="text_35">
      <!-- 2019-07-07 -->
      <g transform="translate(734.320498 310.48834) rotate(-25) scale(0.1 -0.1)">
       <use xlink:href="#TimesNewRomanPSMT-32"/>
       <use xlink:href="#TimesNewRomanPSMT-30" x="50"/>
       <use xlink:href="#TimesNewRomanPSMT-31" x="100"/>
       <use xlink:href="#TimesNewRomanPSMT-39" x="150"/>
       <use xlink:href="#TimesNewRomanPSMT-2d" x="200"/>
       <use xlink:href="#TimesNewRomanPSMT-30" x="233.300781"/>
       <use xlink:href="#TimesNewRomanPSMT-37" x="283.300781"/>
       <use xlink:href="#TimesNewRomanPSMT-2d" x="333.300781"/>
       <use xlink:href="#TimesNewRomanPSMT-30" x="366.601562"/>
       <use xlink:href="#TimesNewRomanPSMT-37" x="416.601562"/>
      </g>
     </g>
    </g>
    <g id="xtick_20">
     <g id="line2d_80">
      <path d="M 789.303456 277.476061 
L 789.303456 26.88 
" clip-path="url(#p5e41abf522)" style="fill: none; stroke: #b0b0b0; stroke-opacity: 0.2; stroke-width: 0.8; stroke-linecap: square"/>
     </g>
     <g id="line2d_81">
      <g>
       <use xlink:href="#meffa7b80c3" x="789.303456" y="277.476061" style="stroke: #000000; stroke-width: 0.8"/>
      </g>
     </g>
     <g id="text_36">
      <!-- 2019-07-09 -->
      <g transform="translate(769.174853 310.48834) rotate(-25) scale(0.1 -0.1)">
       <use xlink:href="#TimesNewRomanPSMT-32"/>
       <use xlink:href="#TimesNewRomanPSMT-30" x="50"/>
       <use xlink:href="#TimesNewRomanPSMT-31" x="100"/>
       <use xlink:href="#TimesNewRomanPSMT-39" x="150"/>
       <use xlink:href="#TimesNewRomanPSMT-2d" x="200"/>
       <use xlink:href="#TimesNewRomanPSMT-30" x="233.300781"/>
       <use xlink:href="#TimesNewRomanPSMT-37" x="283.300781"/>
       <use xlink:href="#TimesNewRomanPSMT-2d" x="333.300781"/>
       <use xlink:href="#TimesNewRomanPSMT-30" x="366.601562"/>
       <use xlink:href="#TimesNewRomanPSMT-39" x="416.601562"/>
      </g>
     </g>
    </g>
    <g id="xtick_21">
     <g id="line2d_82">
      <path d="M 824.157812 277.476061 
L 824.157812 26.88 
" clip-path="url(#p5e41abf522)" style="fill: none; stroke: #b0b0b0; stroke-opacity: 0.2; stroke-width: 0.8; stroke-linecap: square"/>
     </g>
     <g id="line2d_83">
      <g>
       <use xlink:href="#meffa7b80c3" x="824.157812" y="277.476061" style="stroke: #000000; stroke-width: 0.8"/>
      </g>
     </g>
     <g id="text_37">
      <!-- 2019-07-11 -->
      <g transform="translate(804.199141 310.329858) rotate(-25) scale(0.1 -0.1)">
       <use xlink:href="#TimesNewRomanPSMT-32"/>
       <use xlink:href="#TimesNewRomanPSMT-30" x="50"/>
       <use xlink:href="#TimesNewRomanPSMT-31" x="100"/>
       <use xlink:href="#TimesNewRomanPSMT-39" x="150"/>
       <use xlink:href="#TimesNewRomanPSMT-2d" x="200"/>
       <use xlink:href="#TimesNewRomanPSMT-30" x="233.300781"/>
       <use xlink:href="#TimesNewRomanPSMT-37" x="283.300781"/>
       <use xlink:href="#TimesNewRomanPSMT-2d" x="333.300781"/>
       <use xlink:href="#TimesNewRomanPSMT-31" x="366.601562"/>
       <use xlink:href="#TimesNewRomanPSMT-31" x="412.851562"/>
      </g>
     </g>
    </g>
   </g>
   <g id="matplotlib.axis_6">
    <g id="ytick_17">
     <g id="line2d_84">
      <path d="M 603.704016 265.55228 
L 852.912654 265.55228 
" clip-path="url(#p5e41abf522)" style="fill: none; stroke: #b0b0b0; stroke-opacity: 0.2; stroke-width: 0.8; stroke-linecap: square"/>
     </g>
     <g id="line2d_85">
      <g>
       <use xlink:href="#mc60f8b40e0" x="603.704016" y="265.55228" style="stroke: #000000; stroke-width: 0.8"/>
      </g>
     </g>
    </g>
    <g id="ytick_18">
     <g id="line2d_86">
      <path d="M 603.704016 232.443543 
L 852.912654 232.443543 
" clip-path="url(#p5e41abf522)" style="fill: none; stroke: #b0b0b0; stroke-opacity: 0.2; stroke-width: 0.8; stroke-linecap: square"/>
     </g>
     <g id="line2d_87">
      <g>
       <use xlink:href="#mc60f8b40e0" x="603.704016" y="232.443543" style="stroke: #000000; stroke-width: 0.8"/>
      </g>
     </g>
    </g>
    <g id="ytick_19">
     <g id="line2d_88">
      <path d="M 603.704016 199.334805 
L 852.912654 199.334805 
" clip-path="url(#p5e41abf522)" style="fill: none; stroke: #b0b0b0; stroke-opacity: 0.2; stroke-width: 0.8; stroke-linecap: square"/>
     </g>
     <g id="line2d_89">
      <g>
       <use xlink:href="#mc60f8b40e0" x="603.704016" y="199.334805" style="stroke: #000000; stroke-width: 0.8"/>
      </g>
     </g>
    </g>
    <g id="ytick_20">
     <g id="line2d_90">
      <path d="M 603.704016 166.226068 
L 852.912654 166.226068 
" clip-path="url(#p5e41abf522)" style="fill: none; stroke: #b0b0b0; stroke-opacity: 0.2; stroke-width: 0.8; stroke-linecap: square"/>
     </g>
     <g id="line2d_91">
      <g>
       <use xlink:href="#mc60f8b40e0" x="603.704016" y="166.226068" style="stroke: #000000; stroke-width: 0.8"/>
      </g>
     </g>
    </g>
    <g id="ytick_21">
     <g id="line2d_92">
      <path d="M 603.704016 133.11733 
L 852.912654 133.11733 
" clip-path="url(#p5e41abf522)" style="fill: none; stroke: #b0b0b0; stroke-opacity: 0.2; stroke-width: 0.8; stroke-linecap: square"/>
     </g>
     <g id="line2d_93">
      <g>
       <use xlink:href="#mc60f8b40e0" x="603.704016" y="133.11733" style="stroke: #000000; stroke-width: 0.8"/>
      </g>
     </g>
    </g>
    <g id="ytick_22">
     <g id="line2d_94">
      <path d="M 603.704016 100.008593 
L 852.912654 100.008593 
" clip-path="url(#p5e41abf522)" style="fill: none; stroke: #b0b0b0; stroke-opacity: 0.2; stroke-width: 0.8; stroke-linecap: square"/>
     </g>
     <g id="line2d_95">
      <g>
       <use xlink:href="#mc60f8b40e0" x="603.704016" y="100.008593" style="stroke: #000000; stroke-width: 0.8"/>
      </g>
     </g>
    </g>
    <g id="ytick_23">
     <g id="line2d_96">
      <path d="M 603.704016 66.899855 
L 852.912654 66.899855 
" clip-path="url(#p5e41abf522)" style="fill: none; stroke: #b0b0b0; stroke-opacity: 0.2; stroke-width: 0.8; stroke-linecap: square"/>
     </g>
     <g id="line2d_97">
      <g>
       <use xlink:href="#mc60f8b40e0" x="603.704016" y="66.899855" style="stroke: #000000; stroke-width: 0.8"/>
      </g>
     </g>
    </g>
    <g id="ytick_24">
     <g id="line2d_98">
      <path d="M 603.704016 33.791118 
L 852.912654 33.791118 
" clip-path="url(#p5e41abf522)" style="fill: none; stroke: #b0b0b0; stroke-opacity: 0.2; stroke-width: 0.8; stroke-linecap: square"/>
     </g>
     <g id="line2d_99">
      <g>
       <use xlink:href="#mc60f8b40e0" x="603.704016" y="33.791118" style="stroke: #000000; stroke-width: 0.8"/>
      </g>
     </g>
    </g>
   </g>
   <g id="line2d_100">
    <path d="M 615.031681 132.455156 
L 632.458859 125.700973 
L 649.886036 112.457478 
L 667.313214 172.053206 
L 684.740391 181.853392 
L 702.167569 209.134992 
L 719.594746 211.783691 
L 737.021924 206.088988 
L 754.449101 211.916126 
L 771.876279 196.023932 
L 789.303456 198.010456 
L 806.730634 191.521143 
L 824.157812 222.246052 
L 841.584989 218.008133 
" clip-path="url(#p5e41abf522)" style="fill: none; stroke: #000000; stroke-width: 1.5; stroke-linecap: square"/>
   </g>
   <g id="line2d_101">
    <path d="M 615.031681 135.501159 
L 632.458859 129.541587 
L 649.886036 120.00627 
L 667.313214 173.50999 
L 684.740391 184.502091 
L 702.167569 209.134992 
L 719.594746 213.770215 
L 737.021924 208.340382 
L 754.449101 216.154044 
L 771.876279 208.870122 
L 789.303456 211.121516 
L 806.730634 219.067613 
L 824.157812 235.224677 
L 841.584989 243.899166 
" clip-path="url(#p5e41abf522)" style="fill: none; stroke: #dc143c; stroke-opacity: 0.75; stroke-width: 1.5; stroke-linecap: square"/>
   </g>
   <g id="line2d_102">
    <path d="M 841.584989 277.476061 
L 841.584989 26.88 
" clip-path="url(#p5e41abf522)" style="fill: none; stroke-dasharray: 5.55,2.4; stroke-dashoffset: 0; stroke: #000000; stroke-width: 1.5"/>
   </g>
   <g id="patch_16">
    <path d="M 603.704016 277.476061 
L 603.704016 26.88 
" style="fill: none; stroke: #000000; stroke-width: 0.8; stroke-linejoin: miter; stroke-linecap: square"/>
   </g>
   <g id="patch_17">
    <path d="M 852.912654 277.476061 
L 852.912654 26.88 
" style="fill: none; stroke: #000000; stroke-width: 0.8; stroke-linejoin: miter; stroke-linecap: square"/>
   </g>
   <g id="patch_18">
    <path d="M 603.704016 277.476061 
L 852.912654 277.476061 
" style="fill: none; stroke: #000000; stroke-width: 0.8; stroke-linejoin: miter; stroke-linecap: square"/>
   </g>
   <g id="patch_19">
    <path d="M 603.704016 26.88 
L 852.912654 26.88 
" style="fill: none; stroke: #000000; stroke-width: 0.8; stroke-linejoin: miter; stroke-linecap: square"/>
   </g>
   <g id="text_38">
    <!-- RIVM -->
    <g transform="translate(709.50621 20.88) scale(0.144 -0.144)">
     <defs>
      <path id="TimesNewRomanPSMT-52" d="M 4325 0 
L 3194 0 
L 1759 1981 
Q 1600 1975 1500 1975 
Q 1459 1975 1412 1976 
Q 1366 1978 1316 1981 
L 1316 750 
Q 1316 350 1403 253 
Q 1522 116 1759 116 
L 1925 116 
L 1925 0 
L 109 0 
L 109 116 
L 269 116 
Q 538 116 653 291 
Q 719 388 719 750 
L 719 3488 
Q 719 3888 631 3984 
Q 509 4122 269 4122 
L 109 4122 
L 109 4238 
L 1653 4238 
Q 2328 4238 2648 4139 
Q 2969 4041 3192 3777 
Q 3416 3513 3416 3147 
Q 3416 2756 3161 2468 
Q 2906 2181 2372 2063 
L 3247 847 
Q 3547 428 3762 290 
Q 3978 153 4325 116 
L 4325 0 
z
M 1316 2178 
Q 1375 2178 1419 2176 
Q 1463 2175 1491 2175 
Q 2097 2175 2405 2437 
Q 2713 2700 2713 3106 
Q 2713 3503 2464 3751 
Q 2216 4000 1806 4000 
Q 1625 4000 1316 3941 
L 1316 2178 
z
" transform="scale(0.015625)"/>
      <path id="TimesNewRomanPSMT-56" d="M 4544 4238 
L 4544 4122 
Q 4319 4081 4203 3978 
Q 4038 3825 3909 3509 
L 2431 -97 
L 2316 -97 
L 728 3556 
Q 606 3838 556 3900 
Q 478 3997 364 4051 
Q 250 4106 56 4122 
L 56 4238 
L 1788 4238 
L 1788 4122 
Q 1494 4094 1406 4022 
Q 1319 3950 1319 3838 
Q 1319 3681 1463 3350 
L 2541 866 
L 3541 3319 
Q 3688 3681 3688 3822 
Q 3688 3913 3597 3995 
Q 3506 4078 3291 4113 
Q 3275 4116 3238 4122 
L 3238 4238 
L 4544 4238 
z
" transform="scale(0.015625)"/>
     </defs>
     <use xlink:href="#TimesNewRomanPSMT-52"/>
     <use xlink:href="#TimesNewRomanPSMT-49" x="66.699219"/>
     <use xlink:href="#TimesNewRomanPSMT-56" x="100"/>
     <use xlink:href="#TimesNewRomanPSMT-4d" x="172.216797"/>
    </g>
   </g>
  </g>
 </g>
 <defs>
  <clipPath id="p93068b84f5">
   <rect x="54.83" y="26.88" width="249.208639" height="250.596061"/>
  </clipPath>
  <clipPath id="pbec6726070">
   <rect x="329.267008" y="26.88" width="249.208639" height="250.596061"/>
  </clipPath>
  <clipPath id="p5e41abf522">
   <rect x="603.704016" y="26.88" width="249.208639" height="250.596061"/>
  </clipPath>
 </defs>
</svg>
