<svg viewBox="-720 -356.5 1440 713" width="1440" height="713" style="background-color: rgb(255, 255, 255);" xmlns="http://www.w3.org/2000/svg"><path d="M5.5418684803182305,46.561143008892124L-210.09262157289984,17.305135849806476M-210.09262157289987,-24.67069937652028L-210.09262157289984,17.305135849806476M-210.09262157289984,17.305135849806476L-227.23857523281518,30.554004701880917M-1.8063973739312011,100.61962589975339L-217.44088742714928,71.36361874066773M-217.4408874271493,-132.59081417306464L-217.44088742714928,71.36361874066773M-217.44088742714928,71.36361874066773L-219.89030937856575,73.25631429096407M-219.89030937856577,-130.69811862276833L-219.89030937856575,73.25631429096407M-219.89030937856575,73.25631429096407L-4.2558193253476855,102.51232145004971M5.541868480318211,4.585307782565372L-210.09262157289987,-24.67069937652028M-210.09262157289987,-24.67069937652028L-227.2385752328152,-11.421830524445836" style="fill:none;stroke:rgb(0,0,0);stroke-width:1;stroke-linecap:round"></path><path d="M-210.09262157289984,-24.67069937652028L-210.09262157289984,17.30513584980647L-227.2385752328152,-11.421830524445834z" style="fill:rgb(153,221,255); fill-opacity: 0.4"></path><path d="M-217.44088742714928,71.36361874066773L-219.89030937856577,73.25631429096407L-219.89030937856577,-130.69811862276833zM-219.89030937856577,73.25631429096407L-217.44088742714928,71.36361874066773L-1.8063973739312278,100.61962589975339z" style="fill:rgb(238,238,238); fill-opacity: 0.4"></path><path d="M-210.09262157289984,17.30513584980647L-227.2385752328152,30.554004701880917L-227.2385752328152,-11.421830524445834zM5.541868480318205,46.56114300889212L-210.09262157289984,17.30513584980647L-210.09262157289984,-24.67069937652028z" style="fill:rgb(153,221,255); fill-opacity: 0.4"></path><path d="M-227.2385752328152,-11.421830524445836L-227.23857523281518,30.554004701880917M-227.23857523281518,30.554004701880917L-11.604085179597117,59.81001186096657" style="fill:none;stroke:rgb(0,0,0);stroke-width:1;stroke-linecap:round"></path><path d="M-227.2385752328152,30.554004701880917L-210.09262157289984,17.30513584980647L5.541868480318205,46.56114300889212z" style="fill:rgb(153,221,255); fill-opacity: 0.4"></path><path d="M-217.44088742714928,-132.59081417306464L-217.44088742714928,71.36361874066773L-219.89030937856577,-130.69811862276833zM-1.8063973739312278,100.61962589975339L-217.44088742714928,71.36361874066773L-217.44088742714928,-132.59081417306464z" style="fill:rgb(238,238,238); fill-opacity: 0.4"></path><path d="M-227.2385752328152,-11.421830524445836L-11.604085179597137,17.834176634639814" style="fill:none;stroke:rgb(0,0,0);stroke-width:1;stroke-linecap:round"></path><path d="M-4.255819325347706,102.51232145004971L-219.89030937856577,73.25631429096407L-1.8063973739312278,100.61962589975339z" style="fill:rgb(238,238,238); fill-opacity: 0.4"></path><path d="M5.541868480318202,4.585307782565372L5.541868480318205,46.56114300889212L-210.09262157289984,-24.67069937652028zM-227.2385752328152,-11.421830524445834L-11.604085179597144,17.834176634639814L-210.09262157289984,-24.67069937652028z" style="fill:rgb(153,221,255); fill-opacity: 0.4"></path><path d="M-1.8063973739312211,-103.334807013979L-217.4408874271493,-132.59081417306464M-217.4408874271493,-132.59081417306464L-219.89030937856577,-130.69811862276833M-219.89030937856577,-130.69811862276833L-4.255819325347705,-101.44211146368268" style="fill:none;stroke:rgb(0,0,0);stroke-width:1;stroke-linecap:round"></path><path d="M-227.2385752328152,-11.421830524445834L-227.2385752328152,30.554004701880917L-11.604085179597144,17.834176634639814z" style="fill:rgb(153,221,255); fill-opacity: 0.4"></path><path d="M-219.89030937856577,-130.69811862276833L-219.89030937856577,73.25631429096407L-4.255819325347715,-101.44211146368268z" style="fill:rgb(238,238,238); fill-opacity: 0.4"></path><path d="M-11.604085179597144,59.81001186096657L-227.2385752328152,30.554004701880917L5.541868480318205,46.56114300889212zM-11.604085179597144,17.834176634639814L5.541868480318202,4.585307782565372L-210.09262157289984,-24.67069937652028z" style="fill:rgb(153,221,255); fill-opacity: 0.4"></path><path d="M5.541868480318211,4.585307782565372L5.5418684803182305,46.561143008892124M5.5418684803182305,46.561143008892124L-11.604085179597117,59.81001186096657M5.541870221993528,4.585308081515692L5.5418702219935305,46.56114044846558M5.5418702219935305,46.56114044846558L-11.604083437921817,59.81000930054003M5.5418702219935305,46.56114044846558L113.87946312042718,15.450489332674962M-1.8063973739312211,-103.334807013979L-1.8063973739312011,100.61962589975339M-1.8063973739312011,100.61962589975339L-4.2558193253476855,102.51232145004971" style="fill:none;stroke:rgb(0,0,0);stroke-width:1;stroke-linecap:round"></path><path d="M-219.89030937856577,73.25631429096407L-4.255819325347706,102.51232145004971L-4.255819325347715,-101.44211146368268z" style="fill:rgb(238,238,238); fill-opacity: 0.4"></path><path d="M-4.255819325347705,-101.44211146368268L-4.2558193253476855,102.51232145004971M5.541868480318211,4.585307782565372L-11.604085179597137,17.834176634639814M5.541870221993528,4.585308081515692L-11.60408343792182,17.834176933590133M5.541870221993528,4.585308081515692L113.87946312042718,15.450489332674962" style="fill:none;stroke:rgb(0,0,0);stroke-width:1;stroke-linecap:round"></path><path d="M-227.2385752328152,30.554004701880917L-11.604085179597144,59.81001186096657L-11.604085179597144,17.834176634639814z" style="fill:rgb(153,221,255); fill-opacity: 0.4"></path><path d="M-219.89030937856577,-130.69811862276833L-4.255819325347715,-101.44211146368268L-217.44088742714928,-132.59081417306464z" style="fill:rgb(238,238,238); fill-opacity: 0.4"></path><path d="M-11.604085179597144,59.81001186096657L5.541868480318205,46.56114300889212L5.541868480318202,4.585307782565372z" style="fill:rgb(153,221,255); fill-opacity: 0.4"></path><path d="M5.541870221779602,4.585308018836513L5.541870221779605,46.56114324516326L-11.604083438135744,59.81001209723771z" style="fill:rgb(255,187,187); fill-opacity: 0.4"></path><path d="M-1.8063973739312371,-103.334807013979L-1.8063973739312278,100.61962589975339L-217.44088742714928,-132.59081417306464zM-4.255819325347706,102.51232145004971L-1.8063973739312278,100.61962589975339L-1.8063973739312371,-103.334807013979z" style="fill:rgb(238,238,238); fill-opacity: 0.4"></path><path d="M5.541870221779605,46.56114324516326L5.541870221779602,4.585308018836513L113.87945998442748,15.450488907201146z" style="fill:rgb(255,187,187); fill-opacity: 0.4"></path><path d="M-11.604085179597144,17.834176634639814L-11.604085179597144,59.81001186096657L5.541868480318202,4.585307782565372z" style="fill:rgb(153,221,255); fill-opacity: 0.4"></path><path d="M5.541870221779602,4.585308018836513L-11.604083438135744,59.81001209723771L-11.604083438135747,17.834176870910955z" style="fill:rgb(255,187,187); fill-opacity: 0.4"></path><path d="M-11.604085179597137,17.834176634639814L-11.604085179597117,59.81001186096657M-11.604083437921817,59.81000930054003L-11.60408343792182,17.834176933590133M-11.604083437921817,59.81000930054003L113.87946312042718,15.450489332674962" style="fill:none;stroke:rgb(0,0,0);stroke-width:1;stroke-linecap:round"></path><path d="M-11.604083438135744,59.81001209723771L5.541870221779605,46.56114324516326L113.87945998442748,15.450488907201146z" style="fill:rgb(255,187,187); fill-opacity: 0.4"></path><path d="M-4.255819325347715,-101.44211146368268L-1.8063973739312371,-103.334807013979L-217.44088742714928,-132.59081417306464z" style="fill:rgb(238,238,238); fill-opacity: 0.4"></path><path d="M118.02693512495087,116.87790087524154L112.1814067953206,116.0848143025968M112.18140679532058,-87.86961861113558L112.1814067953206,116.0848143025968M112.1814067953206,116.0848143025968L109.73198484390412,117.97750985289314M118.02693512495087,-87.07653203849084L118.02693512495087,116.87790087524154M118.02693512495087,116.87790087524154L115.5775131735344,118.77059642553787" style="fill:none;stroke:rgb(0,0,0);stroke-width:1;stroke-linecap:round"></path><path d="M109.73198484390412,117.97750985289315L112.1814067953206,116.08481430259681L118.02693512495087,116.87790087524154zM-4.255819325347715,-101.44211146368268L-4.255819325347706,102.51232145004971L-1.8063973739312371,-103.334807013979zM115.57751317353438,118.77059642553787L109.73198484390412,117.97750985289315L118.02693512495087,116.87790087524154z" style="fill:rgb(238,238,238); fill-opacity: 0.4"></path><path d="M5.541870221779602,4.585308018836513L-11.604083438135747,17.834176870910955L113.87945998442748,15.450488907201146z" style="fill:rgb(255,187,187); fill-opacity: 0.4"></path><path d="M109.73198484390412,-85.97692306083925L109.73198484390412,117.97750985289314M109.73198484390412,117.97750985289314L115.5775131735344,118.77059642553787M115.57751317353438,-85.1838364881945L115.5775131735344,118.77059642553787M-11.60408343792182,17.834176933590133L113.87946312042718,15.450489332674962" style="fill:none;stroke:rgb(0,0,0);stroke-width:1;stroke-linecap:round"></path><path d="M-11.604083438135747,17.834176870910955L-11.604083438135744,59.81001209723771L113.87945998442748,15.450488907201146z" style="fill:rgb(255,187,187); fill-opacity: 0.4"></path><path d="M118.02693512495087,116.87790087524154L112.1814067953206,116.08481430259681L112.18140679532058,-87.86961861113558z" style="fill:rgb(238,238,238); fill-opacity: 0.4"></path><path d="M-1.8063973739312211,-103.334807013979L-4.255819325347705,-101.44211146368268" style="fill:none;stroke:rgb(0,0,0);stroke-width:1;stroke-linecap:round"></path><path d="M112.1814067953206,116.08481430259681L109.73198484390412,117.97750985289315L109.73198484390409,-85.97692306083924zM115.57751317353438,118.77059642553787L118.02693512495087,116.87790087524154L118.02693512495084,-87.07653203849085zM109.73198484390412,117.97750985289315L115.57751317353438,118.77059642553787L115.57751317353436,-85.18383648819452z" style="fill:rgb(238,238,238); fill-opacity: 0.4"></path><path d="M300.0562484626557,134.97573971128847L259.5381335456534,129.47848247849646M259.5381335456534,-74.47595043523592L259.5381335456534,129.47848247849646M259.5381335456534,129.47848247849646L242.5600343027407,142.59764835800846" style="fill:none;stroke:rgb(0,0,0);stroke-width:1;stroke-linecap:round"></path><path d="M118.02693512495084,-87.07653203849085L118.02693512495087,116.87790087524154L112.18140679532058,-87.86961861113558zM112.18140679532058,-87.86961861113558L112.1814067953206,116.08481430259681L109.73198484390409,-85.97692306083924z" style="fill:rgb(238,238,238); fill-opacity: 0.4"></path><path d="M139.98404571689034,18.992204088689114L206.23336678603346,27.980518578662736" style="fill:none;stroke:rgb(0,0,0);stroke-width:1;stroke-linecap:round"></path><path d="M115.57751317353436,-85.18383648819452L115.57751317353438,118.77059642553787L118.02693512495084,-87.07653203849085zM109.73198484390409,-85.97692306083924L109.73198484390412,117.97750985289315L115.57751317353436,-85.18383648819452z" style="fill:rgb(238,238,238); fill-opacity: 0.4"></path><path d="M300.0562484626556,-68.9786932024439L300.0562484626557,134.97573971128847M300.0562484626557,134.97573971128847L283.0781492197429,148.09490559080047" style="fill:none;stroke:rgb(0,0,0);stroke-width:1;stroke-linecap:round"></path><path d="M242.56003430274066,142.59764835800846L259.5381335456534,129.47848247849646L300.0562484626556,134.97573971128847zM300.0562484626556,134.97573971128847L259.5381335456534,129.47848247849646L259.5381335456534,-74.47595043523592z" style="fill:rgb(238,238,238); fill-opacity: 0.4"></path><path d="M118.02693512495087,-87.07653203849084L112.18140679532058,-87.86961861113558M112.18140679532058,-87.86961861113558L109.73198484390412,-85.97692306083925M118.02693512495087,-87.07653203849084L115.57751317353438,-85.1838364881945" style="fill:none;stroke:rgb(0,0,0);stroke-width:1;stroke-linecap:round"></path><path d="M115.57751317353436,-85.18383648819452L118.02693512495084,-87.07653203849085L112.18140679532058,-87.86961861113558zM109.73198484390409,-85.97692306083924L115.57751317353436,-85.18383648819452L112.18140679532058,-87.86961861113558z" style="fill:rgb(238,238,238); fill-opacity: 0.4"></path><path d="M109.73198484390412,-85.97692306083925L115.57751317353438,-85.1838364881945" style="fill:none;stroke:rgb(0,0,0);stroke-width:1;stroke-linecap:round"></path><path d="M283.0781492197429,148.09490559080047L242.56003430274066,142.59764835800846L300.0562484626556,134.97573971128847z" style="fill:rgb(238,238,238); fill-opacity: 0.4"></path><path d="M242.56003430274066,-61.35678455572395L242.5600343027407,142.59764835800846M242.5600343027407,142.59764835800846L283.0781492197429,148.09490559080047" style="fill:none;stroke:rgb(0,0,0);stroke-width:1;stroke-linecap:round"></path><path d="M200.40951987067228,37.11325791868771L206.23336678603346,42.971888302350855L245.20355565023527,33.26776239629427zM209.8327019843909,13.070999290632738L202.63403158767596,18.633491869762796L245.20355565023527,33.26776239629427z" style="fill:rgb(0,0,0)"></path><path d="M259.5381335456534,129.47848247849646L242.56003430274066,142.59764835800846L242.56003430274066,-61.35678455572395z" style="fill:rgb(238,238,238); fill-opacity: 0.4"></path><path d="M202.63403158767596,18.633491869762796L200.40951987067228,37.11325791868771L245.20355565023527,33.26776239629427z" style="fill:rgb(0,0,0)"></path><path d="M283.0781492197429,148.09490559080047L300.0562484626556,134.97573971128847L300.0562484626556,-68.9786932024439z" style="fill:rgb(238,238,238); fill-opacity: 0.4"></path><path d="M283.0781492197429,-55.85952732293193L283.0781492197429,148.09490559080047" style="fill:none;stroke:rgb(0,0,0);stroke-width:1;stroke-linecap:round"></path><path d="M300.0562484626556,-68.9786932024439L300.0562484626556,134.97573971128847L259.5381335456534,-74.47595043523592zM259.5381335456534,-74.47595043523592L259.5381335456534,129.47848247849646L242.56003430274066,-61.35678455572395z" style="fill:rgb(238,238,238); fill-opacity: 0.4"></path><path d="M300.0562484626556,-68.9786932024439L259.5381335456534,-74.47595043523592M259.5381335456534,-74.47595043523592L242.56003430274066,-61.35678455572395" style="fill:none;stroke:rgb(0,0,0);stroke-width:1;stroke-linecap:round"></path><path d="M242.56003430274066,142.59764835800846L283.0781492197429,148.09490559080047L283.0781492197429,-55.85952732293193z" style="fill:rgb(238,238,238); fill-opacity: 0.4"></path><path d="M300.0562484626556,-68.9786932024439L283.0781492197429,-55.85952732293193" style="fill:none;stroke:rgb(0,0,0);stroke-width:1;stroke-linecap:round"></path><path d="M283.0781492197429,-55.85952732293193L283.0781492197429,148.09490559080047L300.0562484626556,-68.9786932024439zM242.56003430274066,-61.35678455572395L242.56003430274066,142.59764835800846L283.0781492197429,-55.85952732293193zM283.0781492197429,-55.85952732293193L300.0562484626556,-68.9786932024439L259.5381335456534,-74.47595043523592zM242.56003430274066,-61.35678455572395L283.0781492197429,-55.85952732293193L259.5381335456534,-74.47595043523592z" style="fill:rgb(238,238,238); fill-opacity: 0.4"></path><path d="M242.56003430274066,-61.35678455572395L283.0781492197429,-55.85952732293193" style="fill:none;stroke:rgb(0,0,0);stroke-width:1;stroke-linecap:round"></path></svg>