<svg viewBox="-720 -356.5 1440 713" width="1440" height="713" style="background-color: rgb(255, 255, 255);" xmlns="http://www.w3.org/2000/svg"><path d="M-1.8063973739312011,100.61962589975339L-217.44088742714928,71.36361874066773M-217.4408874271493,-132.59081417306464L-217.44088742714928,71.36361874066773M-217.44088742714928,71.36361874066773L-219.89030937856575,73.25631429096407M-219.89030937856577,-130.69811862276833L-219.89030937856575,73.25631429096407M-219.89030937856575,73.25631429096407L-4.2558193253476855,102.51232145004971M5.5418684803182305,-1.4462768754607576L-210.09262157289984,-30.702284034546405M-210.09262157289987,-72.67811926087316L-210.09262157289984,-30.702284034546405M-210.09262157289984,-30.702284034546405L-227.23857523281518,-17.453415182471964" style="fill:none;stroke:rgb(0,0,0);stroke-width:1;stroke-linecap:round"></path><path d="M-217.44088742714928,71.36361874066773L-219.89030937856577,73.25631429096407L-219.89030937856577,-130.69811862276833zM-219.89030937856577,73.25631429096407L-217.44088742714928,71.36361874066773L-1.8063973739312278,100.61962589975339z" style="fill:rgb(238,238,238); fill-opacity: 0.4"></path><path d="M5.541868480318211,-43.42211210178751L-210.09262157289987,-72.67811926087316M-210.09262157289987,-72.67811926087316L-227.2385752328152,-59.42925040879872" style="fill:none;stroke:rgb(0,0,0);stroke-width:1;stroke-linecap:round"></path><path d="M-210.09262157289984,-72.67811926087315L-210.09262157289984,-30.702284034546405L-227.2385752328152,-59.42925040879871zM-210.09262157289984,-30.702284034546405L-227.2385752328152,-17.453415182471964L-227.2385752328152,-59.42925040879871z" style="fill:rgb(153,221,255); fill-opacity: 0.4"></path><path d="M-217.44088742714928,-132.59081417306464L-217.44088742714928,71.36361874066773L-219.89030937856577,-130.69811862276833z" style="fill:rgb(238,238,238); fill-opacity: 0.4"></path><path d="M5.541868480318202,-1.446276875460759L-210.09262157289984,-30.702284034546405L-210.09262157289984,-72.67811926087315z" style="fill:rgb(153,221,255); fill-opacity: 0.4"></path><path d="M-1.8063973739312278,100.61962589975339L-217.44088742714928,71.36361874066773L-217.44088742714928,-132.59081417306464z" style="fill:rgb(238,238,238); fill-opacity: 0.4"></path><path d="M-227.2385752328152,-59.42925040879872L-227.23857523281518,-17.453415182471964M-227.23857523281518,-17.453415182471964L-11.604085179597117,11.802591976613684" style="fill:none;stroke:rgb(0,0,0);stroke-width:1;stroke-linecap:round"></path><path d="M-227.2385752328152,-17.453415182471964L-210.09262157289984,-30.702284034546405L5.541868480318202,-1.446276875460759z" style="fill:rgb(153,221,255); fill-opacity: 0.4"></path><path d="M-4.255819325347706,102.51232145004971L-219.89030937856577,73.25631429096407L-1.8063973739312278,100.61962589975339z" style="fill:rgb(238,238,238); fill-opacity: 0.4"></path><path d="M-227.2385752328152,-59.42925040879872L-11.604085179597137,-30.17324324971307M-1.8063973739312211,-103.334807013979L-217.4408874271493,-132.59081417306464M-217.4408874271493,-132.59081417306464L-219.89030937856577,-130.69811862276833M-219.89030937856577,-130.69811862276833L-4.255819325347705,-101.44211146368268" style="fill:none;stroke:rgb(0,0,0);stroke-width:1;stroke-linecap:round"></path><path d="M-219.89030937856577,-130.69811862276833L-219.89030937856577,73.25631429096407L-4.255819325347715,-101.44211146368268z" style="fill:rgb(238,238,238); fill-opacity: 0.4"></path><path d="M5.541868480318201,-43.422112101787505L5.541868480318202,-1.446276875460759L-210.09262157289984,-72.67811926087315zM-227.2385752328152,-59.42925040879871L-11.604085179597147,-30.173243249713064L-210.09262157289984,-72.67811926087315z" style="fill:rgb(153,221,255); fill-opacity: 0.4"></path><path d="M-1.8063973739312211,-103.334807013979L-1.8063973739312011,100.61962589975339M-1.8063973739312011,100.61962589975339L-4.2558193253476855,102.51232145004971" style="fill:none;stroke:rgb(0,0,0);stroke-width:1;stroke-linecap:round"></path><path d="M-219.89030937856577,73.25631429096407L-4.255819325347706,102.51232145004971L-4.255819325347715,-101.44211146368268z" style="fill:rgb(238,238,238); fill-opacity: 0.4"></path><path d="M-4.255819325347705,-101.44211146368268L-4.2558193253476855,102.51232145004971" style="fill:none;stroke:rgb(0,0,0);stroke-width:1;stroke-linecap:round"></path><path d="M-227.2385752328152,-59.42925040879871L-227.2385752328152,-17.453415182471964L-11.604085179597147,-30.173243249713064zM-11.604085179597144,11.802591976613684L-227.2385752328152,-17.453415182471964L5.541868480318202,-1.446276875460759zM-11.604085179597147,-30.173243249713064L5.541868480318201,-43.422112101787505L-210.09262157289984,-72.67811926087315z" style="fill:rgb(153,221,255); fill-opacity: 0.4"></path><path d="M5.541868480318211,-43.42211210178751L5.5418684803182305,-1.4462768754607576M5.5418684803182305,-1.4462768754607576L-11.604085179597117,11.802591976613684M5.541870221993527,-43.422110978886295L5.541870221993528,-1.446276467403754M5.541870221993528,-1.446276467403754L-11.60408343792182,11.802592384670687M5.541870221993528,-1.446276467403754L113.87946312042718,15.450489332674962" style="fill:none;stroke:rgb(0,0,0);stroke-width:1;stroke-linecap:round"></path><path d="M-219.89030937856577,-130.69811862276833L-4.255819325347715,-101.44211146368268L-217.44088742714928,-132.59081417306464zM-1.8063973739312371,-103.334807013979L-1.8063973739312278,100.61962589975339L-217.44088742714928,-132.59081417306464zM-4.255819325347706,102.51232145004971L-1.8063973739312278,100.61962589975339L-1.8063973739312371,-103.334807013979z" style="fill:rgb(238,238,238); fill-opacity: 0.4"></path><path d="M5.541868480318211,-43.42211210178751L-11.604085179597137,-30.17324324971307M5.541870221993527,-43.422110978886295L-11.60408343792182,-30.173242126811854M5.541870221993527,-43.422110978886295L113.87946312042718,15.450489332674962" style="fill:none;stroke:rgb(0,0,0);stroke-width:1;stroke-linecap:round"></path><path d="M-227.2385752328152,-17.453415182471964L-11.604085179597144,11.802591976613684L-11.604085179597147,-30.173243249713064zM-11.604085179597144,11.802591976613684L5.541868480318202,-1.446276875460759L5.541868480318201,-43.422112101787505z" style="fill:rgb(153,221,255); fill-opacity: 0.4"></path><path d="M5.5418702217796,-43.422111865516364L5.541870221779602,-1.4462766391896171L-11.604083438135747,11.802592212884825z" style="fill:rgb(255,187,187); fill-opacity: 0.4"></path><path d="M-4.255819325347715,-101.44211146368268L-1.8063973739312371,-103.334807013979L-217.44088742714928,-132.59081417306464z" style="fill:rgb(238,238,238); fill-opacity: 0.4"></path><path d="M5.541870221779602,-1.4462766391896171L5.5418702217796,-43.422111865516364L113.87945998442748,15.450488907201146z" style="fill:rgb(255,187,187); fill-opacity: 0.4"></path><path d="M118.02693512495087,116.87790087524154L112.1814067953206,116.0848143025968M112.18140679532058,-87.86961861113558L112.1814067953206,116.0848143025968M112.1814067953206,116.0848143025968L109.73198484390412,117.97750985289314M118.02693512495087,-87.07653203849084L118.02693512495087,116.87790087524154M118.02693512495087,116.87790087524154L115.5775131735344,118.77059642553787" style="fill:none;stroke:rgb(0,0,0);stroke-width:1;stroke-linecap:round"></path><path d="M109.73198484390412,117.97750985289315L112.1814067953206,116.08481430259681L118.02693512495087,116.87790087524154zM-4.255819325347715,-101.44211146368268L-4.255819325347706,102.51232145004971L-1.8063973739312371,-103.334807013979zM115.57751317353438,118.77059642553787L109.73198484390412,117.97750985289315L118.02693512495087,116.87790087524154z" style="fill:rgb(238,238,238); fill-opacity: 0.4"></path><path d="M109.73198484390412,-85.97692306083925L109.73198484390412,117.97750985289314M109.73198484390412,117.97750985289314L115.5775131735344,118.77059642553787" style="fill:none;stroke:rgb(0,0,0);stroke-width:1;stroke-linecap:round"></path><path d="M-11.604085179597147,-30.173243249713064L-11.604085179597144,11.802591976613684L5.541868480318201,-43.422112101787505z" style="fill:rgb(153,221,255); fill-opacity: 0.4"></path><path d="M5.5418702217796,-43.422111865516364L-11.604083438135747,11.802592212884825L-11.604083438135747,-30.173243013441926zM-11.604083438135747,11.802592212884825L5.541870221779602,-1.4462766391896171L113.87945998442748,15.450488907201146z" style="fill:rgb(255,187,187); fill-opacity: 0.4"></path><path d="M115.57751317353438,-85.1838364881945L115.5775131735344,118.77059642553787M-11.604085179597137,-30.17324324971307L-11.604085179597117,11.802591976613684M-11.60408343792182,11.802592384670687L-11.60408343792182,-30.173242126811854M-11.60408343792182,11.802592384670687L113.87946312042718,15.450489332674962" style="fill:none;stroke:rgb(0,0,0);stroke-width:1;stroke-linecap:round"></path><path d="M5.5418702217796,-43.422111865516364L-11.604083438135747,-30.173243013441926L113.87945998442748,15.450488907201146z" style="fill:rgb(255,187,187); fill-opacity: 0.4"></path><path d="M118.02693512495087,116.87790087524154L112.1814067953206,116.08481430259681L112.18140679532058,-87.86961861113558z" style="fill:rgb(238,238,238); fill-opacity: 0.4"></path><path d="M-11.60408343792182,-30.173242126811854L113.87946312042718,15.450489332674962" style="fill:none;stroke:rgb(0,0,0);stroke-width:1;stroke-linecap:round"></path><path d="M-11.604083438135747,-30.173243013441926L-11.604083438135747,11.802592212884825L113.87945998442748,15.450488907201146z" style="fill:rgb(255,187,187); fill-opacity: 0.4"></path><path d="M-1.8063973739312211,-103.334807013979L-4.255819325347705,-101.44211146368268" style="fill:none;stroke:rgb(0,0,0);stroke-width:1;stroke-linecap:round"></path><path d="M112.1814067953206,116.08481430259681L109.73198484390412,117.97750985289315L109.73198484390409,-85.97692306083924zM115.57751317353438,118.77059642553787L118.02693512495087,116.87790087524154L118.02693512495084,-87.07653203849085zM109.73198484390412,117.97750985289315L115.57751317353438,118.77059642553787L115.57751317353436,-85.18383648819452zM118.02693512495084,-87.07653203849085L118.02693512495087,116.87790087524154L112.18140679532058,-87.86961861113558zM112.18140679532058,-87.86961861113558L112.1814067953206,116.08481430259681L109.73198484390409,-85.97692306083924zM115.57751317353436,-85.18383648819452L115.57751317353438,118.77059642553787L118.02693512495084,-87.07653203849085zM109.73198484390409,-85.97692306083924L109.73198484390412,117.97750985289315L115.57751317353436,-85.18383648819452z" style="fill:rgb(238,238,238); fill-opacity: 0.4"></path><path d="M118.02693512495087,-87.07653203849084L112.18140679532058,-87.86961861113558M112.18140679532058,-87.86961861113558L109.73198484390412,-85.97692306083925M118.02693512495087,-87.07653203849084L115.57751317353438,-85.1838364881945" style="fill:none;stroke:rgb(0,0,0);stroke-width:1;stroke-linecap:round"></path><path d="M115.57751317353436,-85.18383648819452L118.02693512495084,-87.07653203849085L112.18140679532058,-87.86961861113558zM109.73198484390409,-85.97692306083924L115.57751317353436,-85.18383648819452L112.18140679532058,-87.86961861113558z" style="fill:rgb(238,238,238); fill-opacity: 0.4"></path><path d="M109.73198484390412,-85.97692306083925L115.57751317353438,-85.1838364881945" style="fill:none;stroke:rgb(0,0,0);stroke-width:1;stroke-linecap:round"></path></svg>