<svg viewBox="-720 -356.5 1440 713" width="1440" height="713" style="background-color: rgb(255, 255, 255);" xmlns="http://www.w3.org/2000/svg"><path d="M-79.29567031486184,50.962162218283645L-268.91390974044526,29.90193194848795M-268.91390974044526,-0.10994148455538719L-268.91390974044526,29.90193194848795M-268.91390974044526,29.90193194848795L-279.2025735958798,39.62231554273237M-83.55878101987261,84.61196329458153L-273.17702044545604,63.55173302478582M-273.1770204454561,-126.09419744182934L-273.17702044545604,63.55173302478582M-273.17702044545604,63.55173302478582L-274.939462890869,65.21682937479856M-274.93946289086904,-124.42910109181659L-274.939462890869,65.21682937479856M-274.939462890869,65.21682937479856L-85.32122346528558,86.27705964459427M-79.29567031486184,20.950288785240307L-268.91390974044526,-0.10994148455538719M-268.91390974044526,-0.10994148455538719L-279.2025735958798,9.610442109689037" style="fill:none;stroke:rgb(0,0,0);stroke-width:1;stroke-linecap:round"></path><path d="M-268.9139097404452,-0.10994148455538985L-268.9139097404452,29.90193194848794L-279.20257359587976,9.61044210968903zM-268.9139097404452,29.90193194848794L-279.20257359587976,39.622315542732366L-279.20257359587976,9.61044210968903z" style="fill:rgb(153,221,255); fill-opacity: 0.4"></path><path d="M-274.939462890869,65.21682937479856L-273.177020445456,63.551733024785825L-83.55878101987261,84.61196329458151z" style="fill:rgb(238,238,238); fill-opacity: 0.4"></path><path d="M-79.2956703148618,50.962162218283645L-268.9139097404452,29.90193194848794L-268.9139097404452,-0.10994148455538985z" style="fill:rgb(153,221,255); fill-opacity: 0.4"></path><path d="M-273.177020445456,63.551733024785825L-274.939462890869,65.21682937479856L-274.939462890869,-124.42910109181659z" style="fill:rgb(238,238,238); fill-opacity: 0.4"></path><path d="M-279.2025735958798,9.610442109689037L-279.2025735958798,39.62231554273237M-279.2025735958798,39.62231554273237L-89.58433417029639,60.68254581252806" style="fill:none;stroke:rgb(0,0,0);stroke-width:1;stroke-linecap:round"></path><path d="M-279.20257359587976,39.622315542732366L-268.9139097404452,29.90193194848794L-79.2956703148618,50.962162218283645z" style="fill:rgb(153,221,255); fill-opacity: 0.4"></path><path d="M-279.2025735958798,9.610442109689037L-89.58433417029639,30.67067237948473" style="fill:none;stroke:rgb(0,0,0);stroke-width:1;stroke-linecap:round"></path><path d="M-83.55878101987261,84.61196329458151L-273.177020445456,63.551733024785825L-273.177020445456,-126.09419744182934zM-85.32122346528557,86.27705964459426L-274.939462890869,65.21682937479856L-83.55878101987261,84.61196329458151zM-273.177020445456,-126.09419744182934L-273.177020445456,63.551733024785825L-274.939462890869,-124.42910109181659z" style="fill:rgb(238,238,238); fill-opacity: 0.4"></path><path d="M-79.2956703148618,20.950288785240307L-79.2956703148618,50.962162218283645L-268.9139097404452,-0.10994148455538985zM-279.20257359587976,9.61044210968903L-89.58433417029637,30.670672379484728L-268.9139097404452,-0.10994148455538985zM-279.20257359587976,9.61044210968903L-279.20257359587976,39.622315542732366L-89.58433417029637,30.670672379484728zM-89.58433417029637,60.682545812528076L-279.20257359587976,39.622315542732366L-79.2956703148618,50.962162218283645zM-89.58433417029637,30.670672379484728L-79.2956703148618,20.950288785240307L-268.9139097404452,-0.10994148455538985z" style="fill:rgb(153,221,255); fill-opacity: 0.4"></path><path d="M-79.29567269259144,20.950288326627295L-79.29567269259144,50.962164211098745M-79.29567269259144,50.962164211098745L-89.584336548026,60.68254780534317M-79.29567269259144,50.962164211098745L18.365333221838384,2.0397729026761433M-79.29567031486184,20.950288785240307L-79.29567031486184,50.962162218283645M-79.29567031486184,50.962162218283645L-89.58433417029639,60.68254581252806M-83.55878101987264,-105.03396717203364L-83.55878101987261,84.61196329458153M-83.55878101987261,84.61196329458153L-85.32122346528558,86.27705964459427M-83.55878101987264,-105.03396717203364L-273.1770204454561,-126.09419744182934M-273.1770204454561,-126.09419744182934L-274.93946289086904,-124.42910109181659M-85.3212234652856,-103.3688708220209L-85.32122346528558,86.27705964459427" style="fill:none;stroke:rgb(0,0,0);stroke-width:1;stroke-linecap:round"></path><path d="M-274.939462890869,65.21682937479856L-85.32122346528557,86.27705964459426L-85.32122346528557,-103.3688708220209zM-274.939462890869,-124.42910109181659L-274.939462890869,65.21682937479856L-85.32122346528557,-103.3688708220209z" style="fill:rgb(238,238,238); fill-opacity: 0.4"></path><path d="M-274.93946289086904,-124.42910109181659L-85.3212234652856,-103.3688708220209M-79.29567269259144,20.950288326627295L-89.584336548026,30.670671920871722M-79.29567269259144,20.950288326627295L18.365333221838384,2.0397729026761433M-79.29567031486184,20.950288785240307L-89.58433417029639,30.67067237948473" style="fill:none;stroke:rgb(0,0,0);stroke-width:1;stroke-linecap:round"></path><path d="M-279.20257359587976,39.622315542732366L-89.58433417029637,60.682545812528076L-89.58433417029637,30.670672379484728zM-89.58433417029637,60.682545812528076L-79.2956703148618,50.962162218283645L-79.2956703148618,20.950288785240307z" style="fill:rgb(153,221,255); fill-opacity: 0.4"></path><path d="M-79.29566874874217,20.950288821068142L-79.29566874874217,50.96216245693024L-89.58433267370702,60.68254611686454z" style="fill:rgb(255,187,187); fill-opacity: 0.4"></path><path d="M-83.55878101987261,-105.03396717203364L-83.55878101987261,84.61196329458151L-273.177020445456,-126.09419744182934zM-85.32122346528557,86.27705964459426L-83.55878101987261,84.61196329458151L-83.55878101987261,-105.03396717203364z" style="fill:rgb(238,238,238); fill-opacity: 0.4"></path><path d="M-89.58433417029637,30.670672379484728L-89.58433417029637,60.682545812528076L-79.2956703148618,20.950288785240307z" style="fill:rgb(153,221,255); fill-opacity: 0.4"></path><path d="M-79.29566874874217,20.950288821068142L-89.58433267370702,60.68254611686454L-89.58433267370702,30.670672481002438zM-79.29566874874217,50.96216245693024L-79.29566874874217,20.950288821068142L18.36533345431725,2.039772928496752z" style="fill:rgb(255,187,187); fill-opacity: 0.4"></path><path d="M-89.584336548026,60.68254780534317L-89.584336548026,30.670671920871722M-89.584336548026,60.68254780534317L18.365333221838384,2.0397729026761433M-89.58433417029639,30.67067237948473L-89.58433417029639,60.68254581252806" style="fill:none;stroke:rgb(0,0,0);stroke-width:1;stroke-linecap:round"></path><path d="M-274.939462890869,-124.42910109181659L-85.32122346528557,-103.3688708220209L-273.177020445456,-126.09419744182934z" style="fill:rgb(238,238,238); fill-opacity: 0.4"></path><path d="M-89.58433267370702,60.68254611686454L-79.29566874874217,50.96216245693024L18.36533345431725,2.039772928496752z" style="fill:rgb(255,187,187); fill-opacity: 0.4"></path><path d="M161.76500991956905,111.85921305017007L19.246554481215117,96.03018996505018M19.246554481215117,-93.61574050156497L19.246554481215117,96.03018996505018M19.246554481215117,96.03018996505018L17.48411203580216,97.69528631506292M-89.584336548026,30.670671920871722L18.365333221838384,2.0397729026761433" style="fill:none;stroke:rgb(0,0,0);stroke-width:1;stroke-linecap:round"></path><path d="M-79.29566874874217,20.950288821068142L-89.58433267370702,30.670672481002438L18.36533345431725,2.039772928496752z" style="fill:rgb(255,187,187); fill-opacity: 0.4"></path><path d="M17.48411203580216,-91.95064415155223L17.48411203580216,97.69528631506292M17.48411203580216,97.69528631506292L160.0025674741561,113.52430940018282" style="fill:none;stroke:rgb(0,0,0);stroke-width:1;stroke-linecap:round"></path><path d="M-89.58433267370702,30.670672481002438L-89.58433267370702,60.68254611686454L18.36533345431725,2.039772928496752z" style="fill:rgb(255,187,187); fill-opacity: 0.4"></path><path d="M-85.32122346528557,-103.3688708220209L-83.55878101987261,-105.03396717203364L-273.177020445456,-126.09419744182934zM-85.32122346528557,-103.3688708220209L-85.32122346528557,86.27705964459426L-83.55878101987261,-105.03396717203364z" style="fill:rgb(238,238,238); fill-opacity: 0.4"></path><path d="M166.02812062457988,27.381832008824695L23.509665186225927,11.552808923704804M23.509665186225917,-18.459064509338532L23.509665186225927,11.552808923704804M23.509665186225927,11.552808923704804L13.22100133079136,21.273192517949226" style="fill:none;stroke:rgb(0,0,0);stroke-width:1;stroke-linecap:round"></path><path d="M17.484112035802156,97.69528631506292L19.24655448121512,96.03018996505018L161.76500991956905,111.85921305017007zM19.24655448121512,96.03018996505018L17.484112035802156,97.69528631506292L17.484112035802152,-91.95064415155223z" style="fill:rgb(238,238,238); fill-opacity: 0.4"></path><path d="M166.02812062457986,-2.630041424218639L23.509665186225917,-18.459064509338532M23.509665186225917,-18.459064509338532L13.22100133079135,-8.738680915094108M-83.55878101987264,-105.03396717203364L-85.3212234652856,-103.3688708220209" style="fill:none;stroke:rgb(0,0,0);stroke-width:1;stroke-linecap:round"></path><path d="M23.509665186225917,-18.459064509338532L23.509665186225917,11.552808923704804L13.221001330791353,-8.738680915094106z" style="fill:rgb(153,221,255); fill-opacity: 0.4"></path><path d="M160.00256747415608,113.52430940018282L17.484112035802156,97.69528631506292L161.76500991956905,111.85921305017007z" style="fill:rgb(238,238,238); fill-opacity: 0.4"></path><path d="M166.02812062457983,27.381832008824695L23.509665186225917,11.552808923704804L23.509665186225917,-18.459064509338532z" style="fill:rgb(153,221,255); fill-opacity: 0.4"></path><path d="M161.76500991956905,111.85921305017007L19.24655448121512,96.03018996505018L19.246554481215114,-93.61574050156497z" style="fill:rgb(238,238,238); fill-opacity: 0.4"></path><path d="M23.509665186225917,11.552808923704804L13.221001330791355,21.273192517949226L13.221001330791353,-8.738680915094106zM13.221001330791355,21.273192517949226L23.509665186225917,11.552808923704804L166.02812062457983,27.381832008824695z" style="fill:rgb(153,221,255); fill-opacity: 0.4"></path><path d="M13.22100133079135,-8.738680915094108L13.22100133079136,21.273192517949226M13.22100133079136,21.273192517949226L155.7394567691453,37.102215603069126" style="fill:none;stroke:rgb(0,0,0);stroke-width:1;stroke-linecap:round"></path><path d="M19.246554481215114,-93.61574050156497L19.24655448121512,96.03018996505018L17.484112035802152,-91.95064415155223z" style="fill:rgb(238,238,238); fill-opacity: 0.4"></path><path d="M161.76500991956905,-77.78671741644507L161.76500991956905,111.85921305017007M161.76500991956905,111.85921305017007L160.0025674741561,113.52430940018282M160.0025674741561,-76.12162106643233L160.0025674741561,113.52430940018282" style="fill:none;stroke:rgb(0,0,0);stroke-width:1;stroke-linecap:round"></path><path d="M166.02812062457983,-2.6300414242186383L166.02812062457983,27.381832008824695L23.509665186225917,-18.459064509338532z" style="fill:rgb(153,221,255); fill-opacity: 0.4"></path><path d="M13.22100133079135,-8.738680915094108L155.73945676914528,7.090342170025785" style="fill:none;stroke:rgb(0,0,0);stroke-width:1;stroke-linecap:round"></path><path d="M17.484112035802156,97.69528631506292L160.00256747415608,113.52430940018282L160.00256747415608,-76.12162106643233z" style="fill:rgb(238,238,238); fill-opacity: 0.4"></path><path d="M13.221001330791353,-8.738680915094106L155.73945676914528,7.090342170025786L23.509665186225917,-18.459064509338532z" style="fill:rgb(153,221,255); fill-opacity: 0.4"></path><path d="M166.02811691130432,-2.63004162741846L166.02811691130432,27.381831805624874M166.02811691130432,27.381831805624874L155.73945305586977,37.1022153998693M166.02811691130432,27.381831805624874L263.68912895340964,29.287023190509657M166.02812062457986,-2.630041424218639L166.02812062457988,27.381832008824695M166.02812062457988,27.381832008824695L155.7394567691453,37.102215603069126" style="fill:none;stroke:rgb(0,0,0);stroke-width:1;stroke-linecap:round"></path><path d="M17.484112035802152,-91.95064415155223L17.484112035802156,97.69528631506292L160.00256747415608,-76.12162106643233z" style="fill:rgb(238,238,238); fill-opacity: 0.4"></path><path d="M161.76500991956905,-77.78671741644507L19.246554481215117,-93.61574050156497M19.246554481215117,-93.61574050156497L17.48411203580216,-91.95064415155223" style="fill:none;stroke:rgb(0,0,0);stroke-width:1;stroke-linecap:round"></path><path d="M155.73945676914528,37.10221560306911L13.221001330791355,21.273192517949226L166.02812062457983,27.381832008824695zM155.73945676914528,7.090342170025786L166.02812062457983,-2.6300414242186383L23.509665186225917,-18.459064509338532zM13.221001330791353,-8.738680915094106L13.221001330791355,21.273192517949226L155.73945676914528,7.090342170025786z" style="fill:rgb(153,221,255); fill-opacity: 0.4"></path><path d="M160.00256747415608,113.52430940018282L161.76500991956905,111.85921305017007L161.76500991956902,-77.78671741644507z" style="fill:rgb(238,238,238); fill-opacity: 0.4"></path><path d="M17.48411203580216,-91.95064415155223L160.0025674741561,-76.12162106643233M166.02811691130432,-2.63004162741846L155.73945305586977,7.090341966825964M166.02811691130432,-2.63004162741846L263.68912895340964,29.287023190509657M166.02812062457986,-2.630041424218639L155.73945676914528,7.090342170025785" style="fill:none;stroke:rgb(0,0,0);stroke-width:1;stroke-linecap:round"></path><path d="M161.76500991956902,-77.78671741644507L161.76500991956905,111.85921305017007L19.246554481215114,-93.61574050156497z" style="fill:rgb(238,238,238); fill-opacity: 0.4"></path><path d="M166.02812046353637,-2.6300415802207344L166.02812046353637,27.381832055641368L155.73945653857152,37.10221571557567z" style="fill:rgb(255,187,187); fill-opacity: 0.4"></path><path d="M155.73945676914528,37.10221560306911L166.02812062457983,27.381832008824695L166.02812062457983,-2.6300414242186383zM13.221001330791355,21.273192517949226L155.73945676914528,37.10221560306911L155.73945676914528,7.090342170025786z" style="fill:rgb(153,221,255); fill-opacity: 0.4"></path><path d="M267.14047724344084,123.56289521360993L262.0002105351638,122.99198388750322M262.0002105351638,-66.65394657911193L262.0002105351638,122.99198388750322M262.0002105351638,122.99198388750322L260.2377680897508,124.65708023751596M267.14047724344084,-66.0830352530052L267.14047724344084,123.56289521360993M267.14047724344084,123.56289521360993L265.3780347980279,125.22799156362268" style="fill:none;stroke:rgb(0,0,0);stroke-width:1;stroke-linecap:round"></path><path d="M260.2377680897508,124.65708023751596L262.0002105351638,122.99198388750322L267.14047724344084,123.56289521360993z" style="fill:rgb(238,238,238); fill-opacity: 0.4"></path><path d="M166.02812046353637,27.381832055641368L166.02812046353637,-2.6300415802207344L263.68912266659584,29.28702249225538z" style="fill:rgb(255,187,187); fill-opacity: 0.4"></path><path d="M265.3780347980279,125.22799156362268L260.2377680897508,124.65708023751596L267.14047724344084,123.56289521360993zM17.484112035802152,-91.95064415155223L160.00256747415608,-76.12162106643233L19.246554481215114,-93.61574050156497z" style="fill:rgb(238,238,238); fill-opacity: 0.4"></path><path d="M260.2377680897508,-64.98885022909919L260.2377680897508,124.65708023751596M260.2377680897508,124.65708023751596L265.3780347980279,125.22799156362268M265.3780347980279,-64.41793890299246L265.3780347980279,125.22799156362268" style="fill:none;stroke:rgb(0,0,0);stroke-width:1;stroke-linecap:round"></path><path d="M166.02812046353637,-2.6300415802207344L155.73945653857152,37.10221571557567L155.73945653857152,7.090342079713566z" style="fill:rgb(255,187,187); fill-opacity: 0.4"></path><path d="M155.73945676914528,7.090342170025786L155.73945676914528,37.10221560306911L166.02812062457983,-2.6300414242186383z" style="fill:rgb(153,221,255); fill-opacity: 0.4"></path><path d="M155.73945653857152,37.10221571557567L166.02812046353637,27.381832055641368L263.68912266659584,29.28702249225538z" style="fill:rgb(255,187,187); fill-opacity: 0.4"></path><path d="M155.73945305586977,37.1022153998693L155.73945305586977,7.090341966825964M155.73945305586977,37.1022153998693L263.68912895340964,29.287023190509657M155.73945676914528,7.090342170025785L155.7394567691453,37.102215603069126" style="fill:none;stroke:rgb(0,0,0);stroke-width:1;stroke-linecap:round"></path><path d="M160.00256747415608,-76.12162106643233L160.00256747415608,113.52430940018282L161.76500991956902,-77.78671741644507z" style="fill:rgb(238,238,238); fill-opacity: 0.4"></path><path d="M166.02812046353637,-2.6300415802207344L155.73945653857152,7.090342079713566L263.68912266659584,29.28702249225538z" style="fill:rgb(255,187,187); fill-opacity: 0.4"></path><path d="M160.00256747415608,-76.12162106643233L161.76500991956902,-77.78671741644507L19.246554481215114,-93.61574050156497z" style="fill:rgb(238,238,238); fill-opacity: 0.4"></path><path d="M155.73945305586977,7.090341966825964L263.68912895340964,29.287023190509657" style="fill:none;stroke:rgb(0,0,0);stroke-width:1;stroke-linecap:round"></path><path d="M267.14047724344084,123.56289521360993L262.0002105351638,122.99198388750322L262.0002105351638,-66.65394657911192z" style="fill:rgb(238,238,238); fill-opacity: 0.4"></path><path d="M155.73945653857152,7.090342079713566L155.73945653857152,37.10221571557567L263.68912266659584,29.28702249225538z" style="fill:rgb(255,187,187); fill-opacity: 0.4"></path><path d="M262.0002105351638,122.99198388750322L260.2377680897508,124.65708023751596L260.2377680897508,-64.98885022909917zM265.3780347980279,125.22799156362268L267.14047724344084,123.56289521360993L267.14047724344084,-66.08303525300519zM260.2377680897508,124.65708023751596L265.3780347980279,125.22799156362268L265.3780347980279,-64.41793890299246z" style="fill:rgb(238,238,238); fill-opacity: 0.4"></path><path d="M161.76500991956905,-77.78671741644507L160.0025674741561,-76.12162106643233" style="fill:none;stroke:rgb(0,0,0);stroke-width:1;stroke-linecap:round"></path><path d="M267.14047724344084,-66.08303525300519L267.14047724344084,123.56289521360993L262.0002105351638,-66.65394657911192zM262.0002105351638,-66.65394657911192L262.0002105351638,122.99198388750322L260.2377680897508,-64.98885022909917zM265.3780347980279,-64.41793890299246L265.3780347980279,125.22799156362268L267.14047724344084,-66.08303525300519zM260.2377680897508,-64.98885022909917L260.2377680897508,124.65708023751596L265.3780347980279,-64.41793890299246z" style="fill:rgb(238,238,238); fill-opacity: 0.4"></path><path d="M267.14047724344084,-66.0830352530052L262.0002105351638,-66.65394657911193M262.0002105351638,-66.65394657911193L260.2377680897508,-64.98885022909919M267.14047724344084,-66.0830352530052L265.3780347980279,-64.41793890299246" style="fill:none;stroke:rgb(0,0,0);stroke-width:1;stroke-linecap:round"></path><path d="M265.3780347980279,-64.41793890299246L267.14047724344084,-66.08303525300519L262.0002105351638,-66.65394657911192zM260.2377680897508,-64.98885022909917L265.3780347980279,-64.41793890299246L262.0002105351638,-66.65394657911192z" style="fill:rgb(238,238,238); fill-opacity: 0.4"></path><path d="M260.2377680897508,-64.98885022909919L265.3780347980279,-64.41793890299246" style="fill:none;stroke:rgb(0,0,0);stroke-width:1;stroke-linecap:round"></path></svg>