<?xml version="1.0" encoding="utf-8" standalone="no"?>
<!DOCTYPE svg PUBLIC "-//W3C//DTD SVG 1.1//EN"
  "http://www.w3.org/Graphics/SVG/1.1/DTD/svg11.dtd">
<svg xmlns:xlink="http://www.w3.org/1999/xlink" width="720pt" height="252pt" viewBox="0 0 720 252" xmlns="http://www.w3.org/2000/svg" version="1.1">
 <metadata>
  <rdf:RDF xmlns:dc="http://purl.org/dc/elements/1.1/" xmlns:cc="http://creativecommons.org/ns#" xmlns:rdf="http://www.w3.org/1999/02/22-rdf-syntax-ns#">
   <cc:Work>
    <dc:type rdf:resource="http://purl.org/dc/dcmitype/StillImage"/>
    <dc:date>2024-12-08T20:11:41.226705</dc:date>
    <dc:format>image/svg+xml</dc:format>
    <dc:creator>
     <cc:Agent>
      <dc:title>Matplotlib v3.9.0, https://matplotlib.org/</dc:title>
     </cc:Agent>
    </dc:creator>
   </cc:Work>
  </rdf:RDF>
 </metadata>
 <defs>
  <style type="text/css">*{stroke-linejoin: round; stroke-linecap: butt}</style>
 </defs>
 <g id="figure_1">
  <g id="patch_1">
   <path d="M 0 252 
L 720 252 
L 720 0 
L 0 0 
z
" style="fill: #ffffff"/>
  </g>
  <g id="axes_1">
   <g id="patch_2">
    <path d="M 97.45 185.1332 
L 376.715118 185.1332 
L 376.715118 10.8 
L 97.45 10.8 
z
" style="fill: #ffffff"/>
   </g>
   <g id="matplotlib.axis_1">
    <g id="xtick_1">
     <g id="line2d_1">
      <path d="M 97.45 185.1332 
L 97.45 10.8 
" clip-path="url(#p24106ff8e5)" style="fill: none; stroke: #b0b0b0; stroke-opacity: 0.4; stroke-width: 0.8; stroke-linecap: square"/>
     </g>
     <g id="line2d_2">
      <defs>
       <path id="m9a407a99d4" d="M 0 0 
L 0 3.5 
" style="stroke: #000000; stroke-width: 0.8"/>
      </defs>
      <g>
       <use xlink:href="#m9a407a99d4" x="97.45" y="185.1332" style="stroke: #000000; stroke-width: 0.8"/>
      </g>
     </g>
     <g id="text_1">
      <!-- 0 -->
      <g transform="translate(94.95 199.07695) scale(0.1 -0.1)">
       <defs>
        <path id="TimesNewRomanPSMT-30" d="M 231 2094 
Q 231 2819 450 3342 
Q 669 3866 1031 4122 
Q 1313 4325 1613 4325 
Q 2100 4325 2488 3828 
Q 2972 3213 2972 2159 
Q 2972 1422 2759 906 
Q 2547 391 2217 158 
Q 1888 -75 1581 -75 
Q 975 -75 572 641 
Q 231 1244 231 2094 
z
M 844 2016 
Q 844 1141 1059 588 
Q 1238 122 1591 122 
Q 1759 122 1940 273 
Q 2122 425 2216 781 
Q 2359 1319 2359 2297 
Q 2359 3022 2209 3506 
Q 2097 3866 1919 4016 
Q 1791 4119 1609 4119 
Q 1397 4119 1231 3928 
Q 1006 3669 925 3112 
Q 844 2556 844 2016 
z
" transform="scale(0.015625)"/>
       </defs>
       <use xlink:href="#TimesNewRomanPSMT-30"/>
      </g>
     </g>
    </g>
    <g id="xtick_2">
     <g id="line2d_3">
      <path d="M 153.443271 185.1332 
L 153.443271 10.8 
" clip-path="url(#p24106ff8e5)" style="fill: none; stroke: #b0b0b0; stroke-opacity: 0.4; stroke-width: 0.8; stroke-linecap: square"/>
     </g>
     <g id="line2d_4">
      <g>
       <use xlink:href="#m9a407a99d4" x="153.443271" y="185.1332" style="stroke: #000000; stroke-width: 0.8"/>
      </g>
     </g>
     <g id="text_2">
      <!-- 200 -->
      <g transform="translate(145.943271 199.07695) scale(0.1 -0.1)">
       <defs>
        <path id="TimesNewRomanPSMT-32" d="M 2934 816 
L 2638 0 
L 138 0 
L 138 116 
Q 1241 1122 1691 1759 
Q 2141 2397 2141 2925 
Q 2141 3328 1894 3587 
Q 1647 3847 1303 3847 
Q 991 3847 742 3664 
Q 494 3481 375 3128 
L 259 3128 
Q 338 3706 661 4015 
Q 984 4325 1469 4325 
Q 1984 4325 2329 3994 
Q 2675 3663 2675 3213 
Q 2675 2891 2525 2569 
Q 2294 2063 1775 1497 
Q 997 647 803 472 
L 1909 472 
Q 2247 472 2383 497 
Q 2519 522 2628 598 
Q 2738 675 2819 816 
L 2934 816 
z
" transform="scale(0.015625)"/>
       </defs>
       <use xlink:href="#TimesNewRomanPSMT-32"/>
       <use xlink:href="#TimesNewRomanPSMT-30" x="50"/>
       <use xlink:href="#TimesNewRomanPSMT-30" x="100"/>
      </g>
     </g>
    </g>
    <g id="xtick_3">
     <g id="line2d_5">
      <path d="M 209.436542 185.1332 
L 209.436542 10.8 
" clip-path="url(#p24106ff8e5)" style="fill: none; stroke: #b0b0b0; stroke-opacity: 0.4; stroke-width: 0.8; stroke-linecap: square"/>
     </g>
     <g id="line2d_6">
      <g>
       <use xlink:href="#m9a407a99d4" x="209.436542" y="185.1332" style="stroke: #000000; stroke-width: 0.8"/>
      </g>
     </g>
     <g id="text_3">
      <!-- 400 -->
      <g transform="translate(201.936542 199.07695) scale(0.1 -0.1)">
       <defs>
        <path id="TimesNewRomanPSMT-34" d="M 2978 1563 
L 2978 1119 
L 2409 1119 
L 2409 0 
L 1894 0 
L 1894 1119 
L 100 1119 
L 100 1519 
L 2066 4325 
L 2409 4325 
L 2409 1563 
L 2978 1563 
z
M 1894 1563 
L 1894 3666 
L 406 1563 
L 1894 1563 
z
" transform="scale(0.015625)"/>
       </defs>
       <use xlink:href="#TimesNewRomanPSMT-34"/>
       <use xlink:href="#TimesNewRomanPSMT-30" x="50"/>
       <use xlink:href="#TimesNewRomanPSMT-30" x="100"/>
      </g>
     </g>
    </g>
    <g id="xtick_4">
     <g id="line2d_7">
      <path d="M 265.429813 185.1332 
L 265.429813 10.8 
" clip-path="url(#p24106ff8e5)" style="fill: none; stroke: #b0b0b0; stroke-opacity: 0.4; stroke-width: 0.8; stroke-linecap: square"/>
     </g>
     <g id="line2d_8">
      <g>
       <use xlink:href="#m9a407a99d4" x="265.429813" y="185.1332" style="stroke: #000000; stroke-width: 0.8"/>
      </g>
     </g>
     <g id="text_4">
      <!-- 600 -->
      <g transform="translate(257.929813 199.07695) scale(0.1 -0.1)">
       <defs>
        <path id="TimesNewRomanPSMT-36" d="M 2869 4325 
L 2869 4209 
Q 2456 4169 2195 4045 
Q 1934 3922 1679 3669 
Q 1425 3416 1258 3105 
Q 1091 2794 978 2366 
Q 1428 2675 1881 2675 
Q 2316 2675 2634 2325 
Q 2953 1975 2953 1425 
Q 2953 894 2631 456 
Q 2244 -75 1606 -75 
Q 1172 -75 869 213 
Q 275 772 275 1663 
Q 275 2231 503 2743 
Q 731 3256 1154 3653 
Q 1578 4050 1965 4187 
Q 2353 4325 2688 4325 
L 2869 4325 
z
M 925 2138 
Q 869 1716 869 1456 
Q 869 1156 980 804 
Q 1091 453 1309 247 
Q 1469 100 1697 100 
Q 1969 100 2183 356 
Q 2397 613 2397 1088 
Q 2397 1622 2184 2012 
Q 1972 2403 1581 2403 
Q 1463 2403 1327 2353 
Q 1191 2303 925 2138 
z
" transform="scale(0.015625)"/>
       </defs>
       <use xlink:href="#TimesNewRomanPSMT-36"/>
       <use xlink:href="#TimesNewRomanPSMT-30" x="50"/>
       <use xlink:href="#TimesNewRomanPSMT-30" x="100"/>
      </g>
     </g>
    </g>
    <g id="xtick_5">
     <g id="line2d_9">
      <path d="M 321.423085 185.1332 
L 321.423085 10.8 
" clip-path="url(#p24106ff8e5)" style="fill: none; stroke: #b0b0b0; stroke-opacity: 0.4; stroke-width: 0.8; stroke-linecap: square"/>
     </g>
     <g id="line2d_10">
      <g>
       <use xlink:href="#m9a407a99d4" x="321.423085" y="185.1332" style="stroke: #000000; stroke-width: 0.8"/>
      </g>
     </g>
     <g id="text_5">
      <!-- 800 -->
      <g transform="translate(313.923085 199.07695) scale(0.1 -0.1)">
       <defs>
        <path id="TimesNewRomanPSMT-38" d="M 1228 2134 
Q 725 2547 579 2797 
Q 434 3047 434 3316 
Q 434 3728 753 4026 
Q 1072 4325 1600 4325 
Q 2113 4325 2425 4047 
Q 2738 3769 2738 3413 
Q 2738 3175 2569 2928 
Q 2400 2681 1866 2347 
Q 2416 1922 2594 1678 
Q 2831 1359 2831 1006 
Q 2831 559 2490 242 
Q 2150 -75 1597 -75 
Q 994 -75 656 303 
Q 388 606 388 966 
Q 388 1247 577 1523 
Q 766 1800 1228 2134 
z
M 1719 2469 
Q 2094 2806 2194 3001 
Q 2294 3197 2294 3444 
Q 2294 3772 2109 3958 
Q 1925 4144 1606 4144 
Q 1288 4144 1088 3959 
Q 888 3775 888 3528 
Q 888 3366 970 3203 
Q 1053 3041 1206 2894 
L 1719 2469 
z
M 1375 2016 
Q 1116 1797 991 1539 
Q 866 1281 866 981 
Q 866 578 1086 336 
Q 1306 94 1647 94 
Q 1984 94 2187 284 
Q 2391 475 2391 747 
Q 2391 972 2272 1150 
Q 2050 1481 1375 2016 
z
" transform="scale(0.015625)"/>
       </defs>
       <use xlink:href="#TimesNewRomanPSMT-38"/>
       <use xlink:href="#TimesNewRomanPSMT-30" x="50"/>
       <use xlink:href="#TimesNewRomanPSMT-30" x="100"/>
      </g>
     </g>
    </g>
    <g id="text_6">
     <!-- IS Decomposition -->
     <g transform="translate(184.885934 215.215013) scale(0.144 -0.144)">
      <defs>
       <path id="TimesNewRomanPSMT-49" d="M 1975 116 
L 1975 0 
L 159 0 
L 159 116 
L 309 116 
Q 572 116 691 269 
Q 766 369 766 750 
L 766 3488 
Q 766 3809 725 3913 
Q 694 3991 597 4047 
Q 459 4122 309 4122 
L 159 4122 
L 159 4238 
L 1975 4238 
L 1975 4122 
L 1822 4122 
Q 1563 4122 1444 3969 
Q 1366 3869 1366 3488 
L 1366 750 
Q 1366 428 1406 325 
Q 1438 247 1538 191 
Q 1672 116 1822 116 
L 1975 116 
z
" transform="scale(0.015625)"/>
       <path id="TimesNewRomanPSMT-53" d="M 2934 4334 
L 2934 2869 
L 2819 2869 
Q 2763 3291 2617 3541 
Q 2472 3791 2203 3937 
Q 1934 4084 1647 4084 
Q 1322 4084 1109 3886 
Q 897 3688 897 3434 
Q 897 3241 1031 3081 
Q 1225 2847 1953 2456 
Q 2547 2138 2764 1967 
Q 2981 1797 3098 1565 
Q 3216 1334 3216 1081 
Q 3216 600 2842 251 
Q 2469 -97 1881 -97 
Q 1697 -97 1534 -69 
Q 1438 -53 1133 45 
Q 828 144 747 144 
Q 669 144 623 97 
Q 578 50 556 -97 
L 441 -97 
L 441 1356 
L 556 1356 
Q 638 900 775 673 
Q 913 447 1195 297 
Q 1478 147 1816 147 
Q 2206 147 2432 353 
Q 2659 559 2659 841 
Q 2659 997 2573 1156 
Q 2488 1316 2306 1453 
Q 2184 1547 1640 1851 
Q 1097 2156 867 2337 
Q 638 2519 519 2737 
Q 400 2956 400 3219 
Q 400 3675 750 4004 
Q 1100 4334 1641 4334 
Q 1978 4334 2356 4169 
Q 2531 4091 2603 4091 
Q 2684 4091 2736 4139 
Q 2788 4188 2819 4334 
L 2934 4334 
z
" transform="scale(0.015625)"/>
       <path id="TimesNewRomanPSMT-20" transform="scale(0.015625)"/>
       <path id="TimesNewRomanPSMT-44" d="M 109 0 
L 109 116 
L 269 116 
Q 538 116 650 288 
Q 719 391 719 750 
L 719 3488 
Q 719 3884 631 3984 
Q 509 4122 269 4122 
L 109 4122 
L 109 4238 
L 1834 4238 
Q 2784 4238 3279 4022 
Q 3775 3806 4076 3303 
Q 4378 2800 4378 2141 
Q 4378 1256 3841 663 
Q 3238 0 2003 0 
L 109 0 
z
M 1319 306 
Q 1716 219 1984 219 
Q 2709 219 3187 728 
Q 3666 1238 3666 2109 
Q 3666 2988 3187 3494 
Q 2709 4000 1959 4000 
Q 1678 4000 1319 3909 
L 1319 306 
z
" transform="scale(0.015625)"/>
       <path id="TimesNewRomanPSMT-65" d="M 681 1784 
Q 678 1147 991 784 
Q 1303 422 1725 422 
Q 2006 422 2214 576 
Q 2422 731 2563 1106 
L 2659 1044 
Q 2594 616 2278 264 
Q 1963 -88 1488 -88 
Q 972 -88 605 314 
Q 238 716 238 1394 
Q 238 2128 614 2539 
Q 991 2950 1559 2950 
Q 2041 2950 2350 2633 
Q 2659 2316 2659 1784 
L 681 1784 
z
M 681 1966 
L 2006 1966 
Q 1991 2241 1941 2353 
Q 1863 2528 1708 2628 
Q 1553 2728 1384 2728 
Q 1125 2728 920 2526 
Q 716 2325 681 1966 
z
" transform="scale(0.015625)"/>
       <path id="TimesNewRomanPSMT-63" d="M 2631 1088 
Q 2516 522 2178 217 
Q 1841 -88 1431 -88 
Q 944 -88 581 321 
Q 219 731 219 1428 
Q 219 2103 620 2525 
Q 1022 2947 1584 2947 
Q 2006 2947 2278 2723 
Q 2550 2500 2550 2259 
Q 2550 2141 2473 2067 
Q 2397 1994 2259 1994 
Q 2075 1994 1981 2113 
Q 1928 2178 1911 2362 
Q 1894 2547 1784 2644 
Q 1675 2738 1481 2738 
Q 1169 2738 978 2506 
Q 725 2200 725 1697 
Q 725 1184 976 792 
Q 1228 400 1656 400 
Q 1963 400 2206 609 
Q 2378 753 2541 1131 
L 2631 1088 
z
" transform="scale(0.015625)"/>
       <path id="TimesNewRomanPSMT-6f" d="M 1600 2947 
Q 2250 2947 2644 2453 
Q 2978 2031 2978 1484 
Q 2978 1100 2793 706 
Q 2609 313 2286 112 
Q 1963 -88 1566 -88 
Q 919 -88 538 428 
Q 216 863 216 1403 
Q 216 1797 411 2186 
Q 606 2575 925 2761 
Q 1244 2947 1600 2947 
z
M 1503 2744 
Q 1338 2744 1170 2645 
Q 1003 2547 900 2300 
Q 797 2053 797 1666 
Q 797 1041 1045 587 
Q 1294 134 1700 134 
Q 2003 134 2200 384 
Q 2397 634 2397 1244 
Q 2397 2006 2069 2444 
Q 1847 2744 1503 2744 
z
" transform="scale(0.015625)"/>
       <path id="TimesNewRomanPSMT-6d" d="M 1050 2338 
Q 1363 2650 1419 2697 
Q 1559 2816 1721 2881 
Q 1884 2947 2044 2947 
Q 2313 2947 2506 2790 
Q 2700 2634 2766 2338 
Q 3088 2713 3309 2830 
Q 3531 2947 3766 2947 
Q 3994 2947 4170 2830 
Q 4347 2713 4450 2447 
Q 4519 2266 4519 1878 
L 4519 647 
Q 4519 378 4559 278 
Q 4591 209 4675 161 
Q 4759 113 4950 113 
L 4950 0 
L 3538 0 
L 3538 113 
L 3597 113 
Q 3781 113 3884 184 
Q 3956 234 3988 344 
Q 4000 397 4000 647 
L 4000 1878 
Q 4000 2228 3916 2372 
Q 3794 2572 3525 2572 
Q 3359 2572 3192 2489 
Q 3025 2406 2788 2181 
L 2781 2147 
L 2788 2013 
L 2788 647 
Q 2788 353 2820 281 
Q 2853 209 2943 161 
Q 3034 113 3253 113 
L 3253 0 
L 1806 0 
L 1806 113 
Q 2044 113 2133 169 
Q 2222 225 2256 338 
Q 2272 391 2272 647 
L 2272 1878 
Q 2272 2228 2169 2381 
Q 2031 2581 1784 2581 
Q 1616 2581 1450 2491 
Q 1191 2353 1050 2181 
L 1050 647 
Q 1050 366 1089 281 
Q 1128 197 1204 155 
Q 1281 113 1516 113 
L 1516 0 
L 100 0 
L 100 113 
Q 297 113 375 155 
Q 453 197 493 289 
Q 534 381 534 647 
L 534 1741 
Q 534 2213 506 2350 
Q 484 2453 437 2492 
Q 391 2531 309 2531 
Q 222 2531 100 2484 
L 53 2597 
L 916 2947 
L 1050 2947 
L 1050 2338 
z
" transform="scale(0.015625)"/>
       <path id="TimesNewRomanPSMT-70" d="M -6 2578 
L 875 2934 
L 994 2934 
L 994 2266 
Q 1216 2644 1439 2795 
Q 1663 2947 1909 2947 
Q 2341 2947 2628 2609 
Q 2981 2197 2981 1534 
Q 2981 794 2556 309 
Q 2206 -88 1675 -88 
Q 1444 -88 1275 -22 
Q 1150 25 994 166 
L 994 -706 
Q 994 -1000 1030 -1079 
Q 1066 -1159 1155 -1206 
Q 1244 -1253 1478 -1253 
L 1478 -1369 
L -22 -1369 
L -22 -1253 
L 56 -1253 
Q 228 -1256 350 -1188 
Q 409 -1153 442 -1076 
Q 475 -1000 475 -688 
L 475 2019 
Q 475 2297 450 2372 
Q 425 2447 370 2484 
Q 316 2522 222 2522 
Q 147 2522 31 2478 
L -6 2578 
z
M 994 2081 
L 994 1013 
Q 994 666 1022 556 
Q 1066 375 1236 237 
Q 1406 100 1666 100 
Q 1978 100 2172 344 
Q 2425 663 2425 1241 
Q 2425 1897 2138 2250 
Q 1938 2494 1663 2494 
Q 1513 2494 1366 2419 
Q 1253 2363 994 2081 
z
" transform="scale(0.015625)"/>
       <path id="TimesNewRomanPSMT-73" d="M 2050 2947 
L 2050 1972 
L 1947 1972 
Q 1828 2431 1642 2597 
Q 1456 2763 1169 2763 
Q 950 2763 815 2647 
Q 681 2531 681 2391 
Q 681 2216 781 2091 
Q 878 1963 1175 1819 
L 1631 1597 
Q 2266 1288 2266 781 
Q 2266 391 1970 151 
Q 1675 -88 1309 -88 
Q 1047 -88 709 6 
Q 606 38 541 38 
Q 469 38 428 -44 
L 325 -44 
L 325 978 
L 428 978 
Q 516 541 762 319 
Q 1009 97 1316 97 
Q 1531 97 1667 223 
Q 1803 350 1803 528 
Q 1803 744 1651 891 
Q 1500 1038 1047 1263 
Q 594 1488 453 1669 
Q 313 1847 313 2119 
Q 313 2472 555 2709 
Q 797 2947 1181 2947 
Q 1350 2947 1591 2875 
Q 1750 2828 1803 2828 
Q 1853 2828 1881 2850 
Q 1909 2872 1947 2947 
L 2050 2947 
z
" transform="scale(0.015625)"/>
       <path id="TimesNewRomanPSMT-69" d="M 928 4444 
Q 1059 4444 1151 4351 
Q 1244 4259 1244 4128 
Q 1244 3997 1151 3903 
Q 1059 3809 928 3809 
Q 797 3809 703 3903 
Q 609 3997 609 4128 
Q 609 4259 701 4351 
Q 794 4444 928 4444 
z
M 1188 2947 
L 1188 647 
Q 1188 378 1227 289 
Q 1266 200 1342 156 
Q 1419 113 1622 113 
L 1622 0 
L 231 0 
L 231 113 
Q 441 113 512 153 
Q 584 194 626 287 
Q 669 381 669 647 
L 669 1750 
Q 669 2216 641 2353 
Q 619 2453 572 2492 
Q 525 2531 444 2531 
Q 356 2531 231 2484 
L 188 2597 
L 1050 2947 
L 1188 2947 
z
" transform="scale(0.015625)"/>
       <path id="TimesNewRomanPSMT-74" d="M 1031 3803 
L 1031 2863 
L 1700 2863 
L 1700 2644 
L 1031 2644 
L 1031 788 
Q 1031 509 1111 412 
Q 1191 316 1316 316 
Q 1419 316 1516 380 
Q 1613 444 1666 569 
L 1788 569 
Q 1678 263 1478 108 
Q 1278 -47 1066 -47 
Q 922 -47 784 33 
Q 647 113 581 261 
Q 516 409 516 719 
L 516 2644 
L 63 2644 
L 63 2747 
Q 234 2816 414 2980 
Q 594 3144 734 3369 
Q 806 3488 934 3803 
L 1031 3803 
z
" transform="scale(0.015625)"/>
       <path id="TimesNewRomanPSMT-6e" d="M 1034 2341 
Q 1538 2947 1994 2947 
Q 2228 2947 2397 2830 
Q 2566 2713 2666 2444 
Q 2734 2256 2734 1869 
L 2734 647 
Q 2734 375 2778 278 
Q 2813 200 2889 156 
Q 2966 113 3172 113 
L 3172 0 
L 1756 0 
L 1756 113 
L 1816 113 
Q 2016 113 2095 173 
Q 2175 234 2206 353 
Q 2219 400 2219 647 
L 2219 1819 
Q 2219 2209 2117 2386 
Q 2016 2563 1775 2563 
Q 1403 2563 1034 2156 
L 1034 647 
Q 1034 356 1069 288 
Q 1113 197 1189 155 
Q 1266 113 1500 113 
L 1500 0 
L 84 0 
L 84 113 
L 147 113 
Q 366 113 442 223 
Q 519 334 519 647 
L 519 1709 
Q 519 2225 495 2337 
Q 472 2450 423 2490 
Q 375 2531 294 2531 
Q 206 2531 84 2484 
L 38 2597 
L 900 2947 
L 1034 2947 
L 1034 2341 
z
" transform="scale(0.015625)"/>
      </defs>
      <use xlink:href="#TimesNewRomanPSMT-49"/>
      <use xlink:href="#TimesNewRomanPSMT-53" x="33.300781"/>
      <use xlink:href="#TimesNewRomanPSMT-20" x="88.916016"/>
      <use xlink:href="#TimesNewRomanPSMT-44" x="113.916016"/>
      <use xlink:href="#TimesNewRomanPSMT-65" x="186.132812"/>
      <use xlink:href="#TimesNewRomanPSMT-63" x="230.517578"/>
      <use xlink:href="#TimesNewRomanPSMT-6f" x="274.902344"/>
      <use xlink:href="#TimesNewRomanPSMT-6d" x="324.902344"/>
      <use xlink:href="#TimesNewRomanPSMT-70" x="402.685547"/>
      <use xlink:href="#TimesNewRomanPSMT-6f" x="452.685547"/>
      <use xlink:href="#TimesNewRomanPSMT-73" x="502.685547"/>
      <use xlink:href="#TimesNewRomanPSMT-69" x="541.601562"/>
      <use xlink:href="#TimesNewRomanPSMT-74" x="569.384766"/>
      <use xlink:href="#TimesNewRomanPSMT-69" x="597.167969"/>
      <use xlink:href="#TimesNewRomanPSMT-6f" x="624.951172"/>
      <use xlink:href="#TimesNewRomanPSMT-6e" x="674.951172"/>
     </g>
    </g>
   </g>
   <g id="matplotlib.axis_2">
    <g id="ytick_1">
     <g id="line2d_11">
      <path d="M 97.45 165.406909 
L 376.715118 165.406909 
" clip-path="url(#p24106ff8e5)" style="fill: none; stroke: #b0b0b0; stroke-opacity: 0.4; stroke-width: 0.8; stroke-linecap: square"/>
     </g>
     <g id="line2d_12">
      <defs>
       <path id="m4ac43683ff" d="M 0 0 
L -3.5 0 
" style="stroke: #000000; stroke-width: 0.8"/>
      </defs>
      <g>
       <use xlink:href="#m4ac43683ff" x="97.45" y="165.406909" style="stroke: #000000; stroke-width: 0.8"/>
      </g>
     </g>
     <g id="text_7">
      <!-- Epinowcast -->
      <g transform="translate(23.265 170.406409) scale(0.144 -0.144)">
       <defs>
        <path id="TimesNewRomanPSMT-45" d="M 1338 4006 
L 1338 2331 
L 2269 2331 
Q 2631 2331 2753 2441 
Q 2916 2584 2934 2947 
L 3050 2947 
L 3050 1472 
L 2934 1472 
Q 2891 1781 2847 1869 
Q 2791 1978 2662 2040 
Q 2534 2103 2269 2103 
L 1338 2103 
L 1338 706 
Q 1338 425 1363 364 
Q 1388 303 1450 267 
Q 1513 231 1688 231 
L 2406 231 
Q 2766 231 2928 281 
Q 3091 331 3241 478 
Q 3434 672 3638 1063 
L 3763 1063 
L 3397 0 
L 131 0 
L 131 116 
L 281 116 
Q 431 116 566 188 
Q 666 238 702 338 
Q 738 438 738 747 
L 738 3500 
Q 738 3903 656 3997 
Q 544 4122 281 4122 
L 131 4122 
L 131 4238 
L 3397 4238 
L 3444 3309 
L 3322 3309 
Q 3256 3644 3176 3769 
Q 3097 3894 2941 3959 
Q 2816 4006 2500 4006 
L 1338 4006 
z
" transform="scale(0.015625)"/>
        <path id="TimesNewRomanPSMT-77" d="M 41 2863 
L 1241 2863 
L 1241 2747 
Q 1075 2734 1023 2687 
Q 972 2641 972 2553 
Q 972 2456 1025 2319 
L 1638 672 
L 2253 2013 
L 2091 2434 
Q 2016 2622 1894 2694 
Q 1825 2738 1638 2747 
L 1638 2863 
L 3000 2863 
L 3000 2747 
Q 2775 2738 2681 2666 
Q 2619 2616 2619 2506 
Q 2619 2444 2644 2378 
L 3294 734 
L 3897 2319 
Q 3959 2488 3959 2588 
Q 3959 2647 3898 2694 
Q 3838 2741 3659 2747 
L 3659 2863 
L 4563 2863 
L 4563 2747 
Q 4291 2706 4163 2378 
L 3206 -88 
L 3078 -88 
L 2363 1741 
L 1528 -88 
L 1413 -88 
L 494 2319 
Q 403 2547 315 2626 
Q 228 2706 41 2747 
L 41 2863 
z
" transform="scale(0.015625)"/>
        <path id="TimesNewRomanPSMT-61" d="M 1822 413 
Q 1381 72 1269 19 
Q 1100 -59 909 -59 
Q 613 -59 420 144 
Q 228 347 228 678 
Q 228 888 322 1041 
Q 450 1253 767 1440 
Q 1084 1628 1822 1897 
L 1822 2009 
Q 1822 2438 1686 2597 
Q 1550 2756 1291 2756 
Q 1094 2756 978 2650 
Q 859 2544 859 2406 
L 866 2225 
Q 866 2081 792 2003 
Q 719 1925 600 1925 
Q 484 1925 411 2006 
Q 338 2088 338 2228 
Q 338 2497 613 2722 
Q 888 2947 1384 2947 
Q 1766 2947 2009 2819 
Q 2194 2722 2281 2516 
Q 2338 2381 2338 1966 
L 2338 994 
Q 2338 584 2353 492 
Q 2369 400 2405 369 
Q 2441 338 2488 338 
Q 2538 338 2575 359 
Q 2641 400 2828 588 
L 2828 413 
Q 2478 -56 2159 -56 
Q 2006 -56 1915 50 
Q 1825 156 1822 413 
z
M 1822 616 
L 1822 1706 
Q 1350 1519 1213 1441 
Q 966 1303 859 1153 
Q 753 1003 753 825 
Q 753 600 887 451 
Q 1022 303 1197 303 
Q 1434 303 1822 616 
z
" transform="scale(0.015625)"/>
       </defs>
       <use xlink:href="#TimesNewRomanPSMT-45"/>
       <use xlink:href="#TimesNewRomanPSMT-70" x="61.083984"/>
       <use xlink:href="#TimesNewRomanPSMT-69" x="111.083984"/>
       <use xlink:href="#TimesNewRomanPSMT-6e" x="138.867188"/>
       <use xlink:href="#TimesNewRomanPSMT-6f" x="188.867188"/>
       <use xlink:href="#TimesNewRomanPSMT-77" x="238.867188"/>
       <use xlink:href="#TimesNewRomanPSMT-63" x="311.083984"/>
       <use xlink:href="#TimesNewRomanPSMT-61" x="355.46875"/>
       <use xlink:href="#TimesNewRomanPSMT-73" x="399.853516"/>
       <use xlink:href="#TimesNewRomanPSMT-74" x="438.769531"/>
      </g>
     </g>
    </g>
    <g id="ytick_2">
     <g id="line2d_13">
      <path d="M 97.45 97.9666 
L 376.715118 97.9666 
" clip-path="url(#p24106ff8e5)" style="fill: none; stroke: #b0b0b0; stroke-opacity: 0.4; stroke-width: 0.8; stroke-linecap: square"/>
     </g>
     <g id="line2d_14">
      <g>
       <use xlink:href="#m4ac43683ff" x="97.45" y="97.9666" style="stroke: #000000; stroke-width: 0.8"/>
      </g>
     </g>
     <g id="text_8">
      <!-- RIVM -->
      <g transform="translate(52.84575 102.9661) scale(0.144 -0.144)">
       <defs>
        <path id="TimesNewRomanPSMT-52" d="M 4325 0 
L 3194 0 
L 1759 1981 
Q 1600 1975 1500 1975 
Q 1459 1975 1412 1976 
Q 1366 1978 1316 1981 
L 1316 750 
Q 1316 350 1403 253 
Q 1522 116 1759 116 
L 1925 116 
L 1925 0 
L 109 0 
L 109 116 
L 269 116 
Q 538 116 653 291 
Q 719 388 719 750 
L 719 3488 
Q 719 3888 631 3984 
Q 509 4122 269 4122 
L 109 4122 
L 109 4238 
L 1653 4238 
Q 2328 4238 2648 4139 
Q 2969 4041 3192 3777 
Q 3416 3513 3416 3147 
Q 3416 2756 3161 2468 
Q 2906 2181 2372 2063 
L 3247 847 
Q 3547 428 3762 290 
Q 3978 153 4325 116 
L 4325 0 
z
M 1316 2178 
Q 1375 2178 1419 2176 
Q 1463 2175 1491 2175 
Q 2097 2175 2405 2437 
Q 2713 2700 2713 3106 
Q 2713 3503 2464 3751 
Q 2216 4000 1806 4000 
Q 1625 4000 1316 3941 
L 1316 2178 
z
" transform="scale(0.015625)"/>
        <path id="TimesNewRomanPSMT-56" d="M 4544 4238 
L 4544 4122 
Q 4319 4081 4203 3978 
Q 4038 3825 3909 3509 
L 2431 -97 
L 2316 -97 
L 728 3556 
Q 606 3838 556 3900 
Q 478 3997 364 4051 
Q 250 4106 56 4122 
L 56 4238 
L 1788 4238 
L 1788 4122 
Q 1494 4094 1406 4022 
Q 1319 3950 1319 3838 
Q 1319 3681 1463 3350 
L 2541 866 
L 3541 3319 
Q 3688 3681 3688 3822 
Q 3688 3913 3597 3995 
Q 3506 4078 3291 4113 
Q 3275 4116 3238 4122 
L 3238 4238 
L 4544 4238 
z
" transform="scale(0.015625)"/>
        <path id="TimesNewRomanPSMT-4d" d="M 2619 0 
L 981 3566 
L 981 734 
Q 981 344 1066 247 
Q 1181 116 1431 116 
L 1581 116 
L 1581 0 
L 106 0 
L 106 116 
L 256 116 
Q 525 116 638 278 
Q 706 378 706 734 
L 706 3503 
Q 706 3784 644 3909 
Q 600 4000 483 4061 
Q 366 4122 106 4122 
L 106 4238 
L 1306 4238 
L 2844 922 
L 4356 4238 
L 5556 4238 
L 5556 4122 
L 5409 4122 
Q 5138 4122 5025 3959 
Q 4956 3859 4956 3503 
L 4956 734 
Q 4956 344 5044 247 
Q 5159 116 5409 116 
L 5556 116 
L 5556 0 
L 3756 0 
L 3756 116 
L 3906 116 
Q 4178 116 4288 278 
Q 4356 378 4356 734 
L 4356 3566 
L 2722 0 
L 2619 0 
z
" transform="scale(0.015625)"/>
       </defs>
       <use xlink:href="#TimesNewRomanPSMT-52"/>
       <use xlink:href="#TimesNewRomanPSMT-49" x="66.699219"/>
       <use xlink:href="#TimesNewRomanPSMT-56" x="100"/>
       <use xlink:href="#TimesNewRomanPSMT-4d" x="172.216797"/>
      </g>
     </g>
    </g>
    <g id="ytick_3">
     <g id="line2d_15">
      <path d="M 97.45 30.526291 
L 376.715118 30.526291 
" clip-path="url(#p24106ff8e5)" style="fill: none; stroke: #b0b0b0; stroke-opacity: 0.4; stroke-width: 0.8; stroke-linecap: square"/>
     </g>
     <g id="line2d_16">
      <g>
       <use xlink:href="#m4ac43683ff" x="97.45" y="30.526291" style="stroke: #000000; stroke-width: 0.8"/>
      </g>
     </g>
     <g id="text_9">
      <!-- NowcastPNN -->
      <g transform="translate(11.2545 35.525791) scale(0.144 -0.144)">
       <defs>
        <path id="TimesNewRomanPSMT-4e" d="M -84 4238 
L 1066 4238 
L 3656 1059 
L 3656 3503 
Q 3656 3894 3569 3991 
Q 3453 4122 3203 4122 
L 3056 4122 
L 3056 4238 
L 4531 4238 
L 4531 4122 
L 4381 4122 
Q 4113 4122 4000 3959 
Q 3931 3859 3931 3503 
L 3931 -69 
L 3819 -69 
L 1025 3344 
L 1025 734 
Q 1025 344 1109 247 
Q 1228 116 1475 116 
L 1625 116 
L 1625 0 
L 150 0 
L 150 116 
L 297 116 
Q 569 116 681 278 
Q 750 378 750 734 
L 750 3681 
Q 566 3897 470 3965 
Q 375 4034 191 4094 
Q 100 4122 -84 4122 
L -84 4238 
z
" transform="scale(0.015625)"/>
        <path id="TimesNewRomanPSMT-50" d="M 1313 1984 
L 1313 750 
Q 1313 350 1400 253 
Q 1519 116 1759 116 
L 1922 116 
L 1922 0 
L 106 0 
L 106 116 
L 266 116 
Q 534 116 650 291 
Q 713 388 713 750 
L 713 3488 
Q 713 3888 628 3984 
Q 506 4122 266 4122 
L 106 4122 
L 106 4238 
L 1659 4238 
Q 2228 4238 2556 4120 
Q 2884 4003 3109 3725 
Q 3334 3447 3334 3066 
Q 3334 2547 2992 2222 
Q 2650 1897 2025 1897 
Q 1872 1897 1694 1919 
Q 1516 1941 1313 1984 
z
M 1313 2163 
Q 1478 2131 1606 2115 
Q 1734 2100 1825 2100 
Q 2150 2100 2386 2351 
Q 2622 2603 2622 3003 
Q 2622 3278 2509 3514 
Q 2397 3750 2190 3867 
Q 1984 3984 1722 3984 
Q 1563 3984 1313 3925 
L 1313 2163 
z
" transform="scale(0.015625)"/>
       </defs>
       <use xlink:href="#TimesNewRomanPSMT-4e"/>
       <use xlink:href="#TimesNewRomanPSMT-6f" x="72.216797"/>
       <use xlink:href="#TimesNewRomanPSMT-77" x="122.216797"/>
       <use xlink:href="#TimesNewRomanPSMT-63" x="194.433594"/>
       <use xlink:href="#TimesNewRomanPSMT-61" x="238.818359"/>
       <use xlink:href="#TimesNewRomanPSMT-73" x="283.203125"/>
       <use xlink:href="#TimesNewRomanPSMT-74" x="322.119141"/>
       <use xlink:href="#TimesNewRomanPSMT-50" x="349.902344"/>
       <use xlink:href="#TimesNewRomanPSMT-4e" x="405.517578"/>
       <use xlink:href="#TimesNewRomanPSMT-4e" x="477.734375"/>
      </g>
     </g>
    </g>
   </g>
   <g id="patch_3">
    <path d="M 97.45 185.1332 
L 97.45 10.8 
" style="fill: none; stroke: #000000; stroke-width: 0.8; stroke-linejoin: miter; stroke-linecap: square"/>
   </g>
   <g id="patch_4">
    <path d="M 376.715118 185.1332 
L 376.715118 10.8 
" style="fill: none; stroke: #000000; stroke-width: 0.8; stroke-linejoin: miter; stroke-linecap: square"/>
   </g>
   <g id="patch_5">
    <path d="M 97.45 185.1332 
L 376.715118 185.1332 
" style="fill: none; stroke: #000000; stroke-width: 0.8; stroke-linejoin: miter; stroke-linecap: square"/>
   </g>
   <g id="patch_6">
    <path d="M 97.45 10.8 
L 376.715118 10.8 
" style="fill: none; stroke: #000000; stroke-width: 0.8; stroke-linejoin: miter; stroke-linecap: square"/>
   </g>
   <g id="patch_7">
    <path d="M 97.45 177.208964 
L 114.219495 177.208964 
L 114.219495 153.604855 
L 97.45 153.604855 
z
" clip-path="url(#p24106ff8e5)" style="fill: #1e90ff; stroke: #000000; stroke-width: 0.4; stroke-linejoin: miter"/>
   </g>
   <g id="patch_8">
    <path d="M 114.219495 177.208964 
L 279.189134 177.208964 
L 279.189134 153.604855 
L 114.219495 153.604855 
z
" clip-path="url(#p24106ff8e5)" style="fill: #f0f8ff; stroke: #000000; stroke-width: 0.4; stroke-linejoin: miter"/>
   </g>
   <g id="patch_9">
    <path d="M 279.189134 177.208964 
L 363.416779 177.208964 
L 363.416779 153.604855 
L 279.189134 153.604855 
z
" clip-path="url(#p24106ff8e5)" style="fill: #00bfff; stroke: #000000; stroke-width: 0.4; stroke-linejoin: miter"/>
   </g>
   <g id="patch_10">
    <path d="M 97.45 109.768654 
L 154.007997 109.768654 
L 154.007997 86.164546 
L 97.45 86.164546 
z
" clip-path="url(#p24106ff8e5)" style="stroke: #000000; stroke-width: 0.4; stroke-linejoin: miter"/>
   </g>
   <g id="patch_11">
    <path d="M 154.007997 109.768654 
L 286.375401 109.768654 
L 286.375401 86.164546 
L 154.007997 86.164546 
z
" clip-path="url(#p24106ff8e5)" style="fill: #dcdcdc; stroke: #000000; stroke-width: 0.4; stroke-linejoin: miter"/>
   </g>
   <g id="patch_12">
    <path d="M 286.375401 109.768654 
L 316.220245 109.768654 
L 316.220245 86.164546 
L 286.375401 86.164546 
z
" clip-path="url(#p24106ff8e5)" style="fill: #808080; stroke: #000000; stroke-width: 0.4; stroke-linejoin: miter"/>
   </g>
   <g id="patch_13">
    <path d="M 97.45 42.328345 
L 133.920928 42.328345 
L 133.920928 18.724236 
L 97.45 18.724236 
z
" clip-path="url(#p24106ff8e5)" style="fill: #dc143c; stroke: #000000; stroke-width: 0.4; stroke-linejoin: miter"/>
   </g>
   <g id="patch_14">
    <path d="M 133.920928 42.328345 
L 231.318991 42.328345 
L 231.318991 18.724236 
L 133.920928 18.724236 
z
" clip-path="url(#p24106ff8e5)" style="fill: #ffe4e1; stroke: #000000; stroke-width: 0.4; stroke-linejoin: miter"/>
   </g>
   <g id="patch_15">
    <path d="M 231.318991 42.328345 
L 257.136235 42.328345 
L 257.136235 18.724236 
L 231.318991 18.724236 
z
" clip-path="url(#p24106ff8e5)" style="fill: #f5626e; stroke: #000000; stroke-width: 0.4; stroke-linejoin: miter"/>
   </g>
   <g id="legend_1">
    <g id="patch_16">
     <path d="M 118.438809 230.769844 
L 138.438809 230.769844 
L 138.438809 223.769844 
L 118.438809 223.769844 
z
" style="stroke: #000000; stroke-width: 0.4; stroke-linejoin: miter"/>
    </g>
    <g id="text_10">
     <!-- Underpred. -->
     <g transform="translate(146.438809 230.769844) scale(0.1 -0.1)">
      <defs>
       <path id="TimesNewRomanPSMT-55" d="M 3053 4122 
L 3053 4238 
L 4553 4238 
L 4553 4122 
L 4394 4122 
Q 4144 4122 4009 3913 
Q 3944 3816 3944 3463 
L 3944 1744 
Q 3944 1106 3817 754 
Q 3691 403 3320 151 
Q 2950 -100 2313 -100 
Q 1619 -100 1259 140 
Q 900 381 750 788 
Q 650 1066 650 1831 
L 650 3488 
Q 650 3878 542 4000 
Q 434 4122 194 4122 
L 34 4122 
L 34 4238 
L 1866 4238 
L 1866 4122 
L 1703 4122 
Q 1441 4122 1328 3956 
Q 1250 3844 1250 3488 
L 1250 1641 
Q 1250 1394 1295 1075 
Q 1341 756 1459 578 
Q 1578 400 1801 284 
Q 2025 169 2350 169 
Q 2766 169 3094 350 
Q 3422 531 3542 814 
Q 3663 1097 3663 1772 
L 3663 3488 
Q 3663 3884 3575 3984 
Q 3453 4122 3213 4122 
L 3053 4122 
z
" transform="scale(0.015625)"/>
       <path id="TimesNewRomanPSMT-64" d="M 2222 322 
Q 2013 103 1813 7 
Q 1613 -88 1381 -88 
Q 913 -88 563 304 
Q 213 697 213 1313 
Q 213 1928 600 2439 
Q 988 2950 1597 2950 
Q 1975 2950 2222 2709 
L 2222 3238 
Q 2222 3728 2198 3840 
Q 2175 3953 2125 3993 
Q 2075 4034 2000 4034 
Q 1919 4034 1784 3984 
L 1744 4094 
L 2597 4444 
L 2738 4444 
L 2738 1134 
Q 2738 631 2761 520 
Q 2784 409 2836 365 
Q 2888 322 2956 322 
Q 3041 322 3181 375 
L 3216 266 
L 2366 -88 
L 2222 -88 
L 2222 322 
z
M 2222 541 
L 2222 2016 
Q 2203 2228 2109 2403 
Q 2016 2578 1861 2667 
Q 1706 2756 1559 2756 
Q 1284 2756 1069 2509 
Q 784 2184 784 1559 
Q 784 928 1059 592 
Q 1334 256 1672 256 
Q 1956 256 2222 541 
z
" transform="scale(0.015625)"/>
       <path id="TimesNewRomanPSMT-72" d="M 1038 2947 
L 1038 2303 
Q 1397 2947 1775 2947 
Q 1947 2947 2059 2842 
Q 2172 2738 2172 2600 
Q 2172 2478 2090 2393 
Q 2009 2309 1897 2309 
Q 1788 2309 1652 2417 
Q 1516 2525 1450 2525 
Q 1394 2525 1328 2463 
Q 1188 2334 1038 2041 
L 1038 669 
Q 1038 431 1097 309 
Q 1138 225 1241 169 
Q 1344 113 1538 113 
L 1538 0 
L 72 0 
L 72 113 
Q 291 113 397 181 
Q 475 231 506 341 
Q 522 394 522 644 
L 522 1753 
Q 522 2253 501 2348 
Q 481 2444 426 2487 
Q 372 2531 291 2531 
Q 194 2531 72 2484 
L 41 2597 
L 906 2947 
L 1038 2947 
z
" transform="scale(0.015625)"/>
       <path id="TimesNewRomanPSMT-2e" d="M 800 606 
Q 947 606 1047 504 
Q 1147 403 1147 259 
Q 1147 116 1045 14 
Q 944 -88 800 -88 
Q 656 -88 554 14 
Q 453 116 453 259 
Q 453 406 554 506 
Q 656 606 800 606 
z
" transform="scale(0.015625)"/>
      </defs>
      <use xlink:href="#TimesNewRomanPSMT-55"/>
      <use xlink:href="#TimesNewRomanPSMT-6e" x="72.216797"/>
      <use xlink:href="#TimesNewRomanPSMT-64" x="122.216797"/>
      <use xlink:href="#TimesNewRomanPSMT-65" x="172.216797"/>
      <use xlink:href="#TimesNewRomanPSMT-72" x="216.601562"/>
      <use xlink:href="#TimesNewRomanPSMT-70" x="249.902344"/>
      <use xlink:href="#TimesNewRomanPSMT-72" x="299.902344"/>
      <use xlink:href="#TimesNewRomanPSMT-65" x="333.203125"/>
      <use xlink:href="#TimesNewRomanPSMT-64" x="377.587891"/>
      <use xlink:href="#TimesNewRomanPSMT-2e" x="427.587891"/>
     </g>
    </g>
    <g id="patch_17">
     <path d="M 211.698184 230.769844 
L 231.698184 230.769844 
L 231.698184 223.769844 
L 211.698184 223.769844 
z
" style="fill: #dcdcdc; stroke: #000000; stroke-width: 0.4; stroke-linejoin: miter"/>
    </g>
    <g id="text_11">
     <!-- Spread -->
     <g transform="translate(239.698184 230.769844) scale(0.1 -0.1)">
      <use xlink:href="#TimesNewRomanPSMT-53"/>
      <use xlink:href="#TimesNewRomanPSMT-70" x="55.615234"/>
      <use xlink:href="#TimesNewRomanPSMT-72" x="105.615234"/>
      <use xlink:href="#TimesNewRomanPSMT-65" x="138.916016"/>
      <use xlink:href="#TimesNewRomanPSMT-61" x="183.300781"/>
      <use xlink:href="#TimesNewRomanPSMT-64" x="227.685547"/>
     </g>
    </g>
    <g id="patch_18">
     <path d="M 287.466934 230.769844 
L 307.466934 230.769844 
L 307.466934 223.769844 
L 287.466934 223.769844 
z
" style="fill: #808080; stroke: #000000; stroke-width: 0.4; stroke-linejoin: miter"/>
    </g>
    <g id="text_12">
     <!-- Overpred. -->
     <g transform="translate(315.466934 230.769844) scale(0.1 -0.1)">
      <defs>
       <path id="TimesNewRomanPSMT-4f" d="M 2341 4334 
Q 3166 4334 3770 3707 
Q 4375 3081 4375 2144 
Q 4375 1178 3765 540 
Q 3156 -97 2291 -97 
Q 1416 -97 820 525 
Q 225 1147 225 2134 
Q 225 3144 913 3781 
Q 1509 4334 2341 4334 
z
M 2281 4106 
Q 1713 4106 1369 3684 
Q 941 3159 941 2147 
Q 941 1109 1384 550 
Q 1725 125 2284 125 
Q 2881 125 3270 590 
Q 3659 1056 3659 2059 
Q 3659 3147 3231 3681 
Q 2888 4106 2281 4106 
z
" transform="scale(0.015625)"/>
       <path id="TimesNewRomanPSMT-76" d="M 53 2863 
L 1400 2863 
L 1400 2747 
L 1313 2747 
Q 1191 2747 1127 2687 
Q 1063 2628 1063 2528 
Q 1063 2419 1128 2269 
L 1794 688 
L 2463 2328 
Q 2534 2503 2534 2594 
Q 2534 2638 2509 2666 
Q 2475 2713 2422 2730 
Q 2369 2747 2206 2747 
L 2206 2863 
L 3141 2863 
L 3141 2747 
Q 2978 2734 2916 2681 
Q 2806 2588 2719 2369 
L 1703 -88 
L 1575 -88 
L 553 2328 
Q 484 2497 421 2570 
Q 359 2644 263 2694 
Q 209 2722 53 2747 
L 53 2863 
z
" transform="scale(0.015625)"/>
      </defs>
      <use xlink:href="#TimesNewRomanPSMT-4f"/>
      <use xlink:href="#TimesNewRomanPSMT-76" x="72.216797"/>
      <use xlink:href="#TimesNewRomanPSMT-65" x="122.216797"/>
      <use xlink:href="#TimesNewRomanPSMT-72" x="166.601562"/>
      <use xlink:href="#TimesNewRomanPSMT-70" x="199.902344"/>
      <use xlink:href="#TimesNewRomanPSMT-72" x="249.902344"/>
      <use xlink:href="#TimesNewRomanPSMT-65" x="283.203125"/>
      <use xlink:href="#TimesNewRomanPSMT-64" x="327.587891"/>
      <use xlink:href="#TimesNewRomanPSMT-2e" x="377.587891"/>
     </g>
    </g>
   </g>
  </g>
  <g id="axes_2">
   <g id="patch_19">
    <path d="M 426.505118 185.1332 
L 705.770236 185.1332 
L 705.770236 10.8 
L 426.505118 10.8 
z
" style="fill: #ffffff"/>
   </g>
   <g id="matplotlib.axis_3">
    <g id="xtick_6">
     <g id="line2d_17">
      <g>
       <use xlink:href="#m9a407a99d4" x="466.57792" y="185.1332" style="stroke: #000000; stroke-width: 0.8"/>
      </g>
     </g>
     <g id="text_13">
      <!-- Epinowcast -->
      <g transform="translate(432.98542 202.1322) scale(0.144 -0.144)">
       <use xlink:href="#TimesNewRomanPSMT-45"/>
       <use xlink:href="#TimesNewRomanPSMT-70" x="61.083984"/>
       <use xlink:href="#TimesNewRomanPSMT-69" x="111.083984"/>
       <use xlink:href="#TimesNewRomanPSMT-6e" x="138.867188"/>
       <use xlink:href="#TimesNewRomanPSMT-6f" x="188.867188"/>
       <use xlink:href="#TimesNewRomanPSMT-77" x="238.867188"/>
       <use xlink:href="#TimesNewRomanPSMT-63" x="311.083984"/>
       <use xlink:href="#TimesNewRomanPSMT-61" x="355.46875"/>
       <use xlink:href="#TimesNewRomanPSMT-73" x="399.853516"/>
       <use xlink:href="#TimesNewRomanPSMT-74" x="438.769531"/>
      </g>
     </g>
    </g>
    <g id="xtick_7">
     <g id="line2d_18">
      <g>
       <use xlink:href="#m9a407a99d4" x="566.137677" y="185.1332" style="stroke: #000000; stroke-width: 0.8"/>
      </g>
     </g>
     <g id="text_14">
      <!-- RIVM -->
      <g transform="translate(547.335552 202.1322) scale(0.144 -0.144)">
       <use xlink:href="#TimesNewRomanPSMT-52"/>
       <use xlink:href="#TimesNewRomanPSMT-49" x="66.699219"/>
       <use xlink:href="#TimesNewRomanPSMT-56" x="100"/>
       <use xlink:href="#TimesNewRomanPSMT-4d" x="172.216797"/>
      </g>
     </g>
    </g>
    <g id="xtick_8">
     <g id="line2d_19">
      <g>
       <use xlink:href="#m9a407a99d4" x="665.697434" y="185.1332" style="stroke: #000000; stroke-width: 0.8"/>
      </g>
     </g>
     <g id="text_15">
      <!-- NowcastPNN -->
      <g transform="translate(626.099684 202.1322) scale(0.144 -0.144)">
       <use xlink:href="#TimesNewRomanPSMT-4e"/>
       <use xlink:href="#TimesNewRomanPSMT-6f" x="72.216797"/>
       <use xlink:href="#TimesNewRomanPSMT-77" x="122.216797"/>
       <use xlink:href="#TimesNewRomanPSMT-63" x="194.433594"/>
       <use xlink:href="#TimesNewRomanPSMT-61" x="238.818359"/>
       <use xlink:href="#TimesNewRomanPSMT-73" x="283.203125"/>
       <use xlink:href="#TimesNewRomanPSMT-74" x="322.119141"/>
       <use xlink:href="#TimesNewRomanPSMT-50" x="349.902344"/>
       <use xlink:href="#TimesNewRomanPSMT-4e" x="405.517578"/>
       <use xlink:href="#TimesNewRomanPSMT-4e" x="477.734375"/>
      </g>
     </g>
    </g>
   </g>
   <g id="matplotlib.axis_4">
    <g id="ytick_4">
     <g id="line2d_20">
      <path d="M 426.505118 185.1332 
L 705.770236 185.1332 
" clip-path="url(#pd9e9c8ebdc)" style="fill: none; stroke: #b0b0b0; stroke-opacity: 0.2; stroke-width: 0.8; stroke-linecap: square"/>
     </g>
     <g id="line2d_21">
      <g>
       <use xlink:href="#m4ac43683ff" x="426.505118" y="185.1332" style="stroke: #000000; stroke-width: 0.8"/>
      </g>
     </g>
     <g id="text_16">
      <!-- 0 -->
      <g transform="translate(414.505118 188.605075) scale(0.1 -0.1)">
       <use xlink:href="#TimesNewRomanPSMT-30"/>
      </g>
     </g>
    </g>
    <g id="ytick_5">
     <g id="line2d_22">
      <path d="M 426.505118 157.935114 
L 705.770236 157.935114 
" clip-path="url(#pd9e9c8ebdc)" style="fill: none; stroke: #b0b0b0; stroke-opacity: 0.2; stroke-width: 0.8; stroke-linecap: square"/>
     </g>
     <g id="line2d_23">
      <g>
       <use xlink:href="#m4ac43683ff" x="426.505118" y="157.935114" style="stroke: #000000; stroke-width: 0.8"/>
      </g>
     </g>
     <g id="text_17">
      <!-- 50 -->
      <g transform="translate(409.505118 161.406989) scale(0.1 -0.1)">
       <defs>
        <path id="TimesNewRomanPSMT-35" d="M 2778 4238 
L 2534 3706 
L 1259 3706 
L 981 3138 
Q 1809 3016 2294 2522 
Q 2709 2097 2709 1522 
Q 2709 1188 2573 903 
Q 2438 619 2231 419 
Q 2025 219 1772 97 
Q 1413 -75 1034 -75 
Q 653 -75 479 54 
Q 306 184 306 341 
Q 306 428 378 495 
Q 450 563 559 563 
Q 641 563 702 538 
Q 763 513 909 409 
Q 1144 247 1384 247 
Q 1750 247 2026 523 
Q 2303 800 2303 1197 
Q 2303 1581 2056 1914 
Q 1809 2247 1375 2428 
Q 1034 2569 447 2591 
L 1259 4238 
L 2778 4238 
z
" transform="scale(0.015625)"/>
       </defs>
       <use xlink:href="#TimesNewRomanPSMT-35"/>
       <use xlink:href="#TimesNewRomanPSMT-30" x="50"/>
      </g>
     </g>
    </g>
    <g id="ytick_6">
     <g id="line2d_24">
      <path d="M 426.505118 130.737027 
L 705.770236 130.737027 
" clip-path="url(#pd9e9c8ebdc)" style="fill: none; stroke: #b0b0b0; stroke-opacity: 0.2; stroke-width: 0.8; stroke-linecap: square"/>
     </g>
     <g id="line2d_25">
      <g>
       <use xlink:href="#m4ac43683ff" x="426.505118" y="130.737027" style="stroke: #000000; stroke-width: 0.8"/>
      </g>
     </g>
     <g id="text_18">
      <!-- 100 -->
      <g transform="translate(404.505118 134.208902) scale(0.1 -0.1)">
       <defs>
        <path id="TimesNewRomanPSMT-31" d="M 750 3822 
L 1781 4325 
L 1884 4325 
L 1884 747 
Q 1884 391 1914 303 
Q 1944 216 2037 169 
Q 2131 122 2419 116 
L 2419 0 
L 825 0 
L 825 116 
Q 1125 122 1212 167 
Q 1300 213 1334 289 
Q 1369 366 1369 747 
L 1369 3034 
Q 1369 3497 1338 3628 
Q 1316 3728 1258 3775 
Q 1200 3822 1119 3822 
Q 1003 3822 797 3725 
L 750 3822 
z
" transform="scale(0.015625)"/>
       </defs>
       <use xlink:href="#TimesNewRomanPSMT-31"/>
       <use xlink:href="#TimesNewRomanPSMT-30" x="50"/>
       <use xlink:href="#TimesNewRomanPSMT-30" x="100"/>
      </g>
     </g>
    </g>
    <g id="ytick_7">
     <g id="line2d_26">
      <path d="M 426.505118 103.538941 
L 705.770236 103.538941 
" clip-path="url(#pd9e9c8ebdc)" style="fill: none; stroke: #b0b0b0; stroke-opacity: 0.2; stroke-width: 0.8; stroke-linecap: square"/>
     </g>
     <g id="line2d_27">
      <g>
       <use xlink:href="#m4ac43683ff" x="426.505118" y="103.538941" style="stroke: #000000; stroke-width: 0.8"/>
      </g>
     </g>
     <g id="text_19">
      <!-- 150 -->
      <g transform="translate(404.505118 107.010816) scale(0.1 -0.1)">
       <use xlink:href="#TimesNewRomanPSMT-31"/>
       <use xlink:href="#TimesNewRomanPSMT-35" x="50"/>
       <use xlink:href="#TimesNewRomanPSMT-30" x="100"/>
      </g>
     </g>
    </g>
    <g id="ytick_8">
     <g id="line2d_28">
      <path d="M 426.505118 76.340854 
L 705.770236 76.340854 
" clip-path="url(#pd9e9c8ebdc)" style="fill: none; stroke: #b0b0b0; stroke-opacity: 0.2; stroke-width: 0.8; stroke-linecap: square"/>
     </g>
     <g id="line2d_29">
      <g>
       <use xlink:href="#m4ac43683ff" x="426.505118" y="76.340854" style="stroke: #000000; stroke-width: 0.8"/>
      </g>
     </g>
     <g id="text_20">
      <!-- 200 -->
      <g transform="translate(404.505118 79.812729) scale(0.1 -0.1)">
       <use xlink:href="#TimesNewRomanPSMT-32"/>
       <use xlink:href="#TimesNewRomanPSMT-30" x="50"/>
       <use xlink:href="#TimesNewRomanPSMT-30" x="100"/>
      </g>
     </g>
    </g>
    <g id="ytick_9">
     <g id="line2d_30">
      <path d="M 426.505118 49.142768 
L 705.770236 49.142768 
" clip-path="url(#pd9e9c8ebdc)" style="fill: none; stroke: #b0b0b0; stroke-opacity: 0.2; stroke-width: 0.8; stroke-linecap: square"/>
     </g>
     <g id="line2d_31">
      <g>
       <use xlink:href="#m4ac43683ff" x="426.505118" y="49.142768" style="stroke: #000000; stroke-width: 0.8"/>
      </g>
     </g>
     <g id="text_21">
      <!-- 250 -->
      <g transform="translate(404.505118 52.614643) scale(0.1 -0.1)">
       <use xlink:href="#TimesNewRomanPSMT-32"/>
       <use xlink:href="#TimesNewRomanPSMT-35" x="50"/>
       <use xlink:href="#TimesNewRomanPSMT-30" x="100"/>
      </g>
     </g>
    </g>
    <g id="ytick_10">
     <g id="line2d_32">
      <path d="M 426.505118 21.944681 
L 705.770236 21.944681 
" clip-path="url(#pd9e9c8ebdc)" style="fill: none; stroke: #b0b0b0; stroke-opacity: 0.2; stroke-width: 0.8; stroke-linecap: square"/>
     </g>
     <g id="line2d_33">
      <g>
       <use xlink:href="#m4ac43683ff" x="426.505118" y="21.944681" style="stroke: #000000; stroke-width: 0.8"/>
      </g>
     </g>
     <g id="text_22">
      <!-- 300 -->
      <g transform="translate(404.505118 25.416556) scale(0.1 -0.1)">
       <defs>
        <path id="TimesNewRomanPSMT-33" d="M 325 3431 
Q 506 3859 782 4092 
Q 1059 4325 1472 4325 
Q 1981 4325 2253 3994 
Q 2459 3747 2459 3466 
Q 2459 3003 1878 2509 
Q 2269 2356 2469 2072 
Q 2669 1788 2669 1403 
Q 2669 853 2319 450 
Q 1863 -75 997 -75 
Q 569 -75 414 31 
Q 259 138 259 259 
Q 259 350 332 419 
Q 406 488 509 488 
Q 588 488 669 463 
Q 722 447 909 348 
Q 1097 250 1169 231 
Q 1284 197 1416 197 
Q 1734 197 1970 444 
Q 2206 691 2206 1028 
Q 2206 1275 2097 1509 
Q 2016 1684 1919 1775 
Q 1784 1900 1550 2001 
Q 1316 2103 1072 2103 
L 972 2103 
L 972 2197 
Q 1219 2228 1467 2375 
Q 1716 2522 1828 2728 
Q 1941 2934 1941 3181 
Q 1941 3503 1739 3701 
Q 1538 3900 1238 3900 
Q 753 3900 428 3381 
L 325 3431 
z
" transform="scale(0.015625)"/>
       </defs>
       <use xlink:href="#TimesNewRomanPSMT-33"/>
       <use xlink:href="#TimesNewRomanPSMT-30" x="50"/>
       <use xlink:href="#TimesNewRomanPSMT-30" x="100"/>
      </g>
     </g>
    </g>
    <g id="text_23">
     <!-- WIS -->
     <g transform="translate(397.424868 111.163975) rotate(-90) scale(0.144 -0.144)">
      <defs>
       <path id="TimesNewRomanPSMT-57" d="M 5991 4238 
L 5991 4122 
Q 5825 4122 5722 4062 
Q 5619 4003 5525 3841 
Q 5463 3731 5328 3319 
L 4147 -97 
L 4022 -97 
L 3056 2613 
L 2097 -97 
L 1984 -97 
L 725 3422 
Q 584 3816 547 3888 
Q 484 4006 376 4064 
Q 269 4122 84 4122 
L 84 4238 
L 1653 4238 
L 1653 4122 
L 1578 4122 
Q 1413 4122 1325 4047 
Q 1238 3972 1238 3866 
Q 1238 3756 1375 3363 
L 2209 984 
L 2913 3006 
L 2788 3363 
L 2688 3647 
Q 2622 3803 2541 3922 
Q 2500 3981 2441 4022 
Q 2363 4078 2284 4103 
Q 2225 4122 2097 4122 
L 2097 4238 
L 3747 4238 
L 3747 4122 
L 3634 4122 
Q 3459 4122 3378 4047 
Q 3297 3972 3297 3844 
Q 3297 3684 3438 3288 
L 4250 984 
L 5056 3319 
Q 5194 3706 5194 3856 
Q 5194 3928 5148 3990 
Q 5103 4053 5034 4078 
Q 4916 4122 4725 4122 
L 4725 4238 
L 5991 4238 
z
" transform="scale(0.015625)"/>
      </defs>
      <use xlink:href="#TimesNewRomanPSMT-57"/>
      <use xlink:href="#TimesNewRomanPSMT-49" x="94.384766"/>
      <use xlink:href="#TimesNewRomanPSMT-53" x="127.685547"/>
     </g>
    </g>
   </g>
   <g id="patch_20">
    <path d="M 439.198987 185.1332 
L 493.956853 185.1332 
L 493.956853 19.101581 
L 439.198987 19.101581 
z
" clip-path="url(#pd9e9c8ebdc)" style="fill: #1e90ff"/>
   </g>
   <g id="patch_21">
    <path d="M 538.758744 185.1332 
L 593.51661 185.1332 
L 593.51661 48.95922 
L 538.758744 48.95922 
z
" clip-path="url(#pd9e9c8ebdc)"/>
   </g>
   <g id="patch_22">
    <path d="M 638.318501 185.1332 
L 693.076367 185.1332 
L 693.076367 87.813809 
L 638.318501 87.813809 
z
" clip-path="url(#pd9e9c8ebdc)" style="fill: #dc143c"/>
   </g>
   <g id="patch_23">
    <path d="M 426.505118 185.1332 
L 426.505118 10.8 
" style="fill: none; stroke: #000000; stroke-width: 0.8; stroke-linejoin: miter; stroke-linecap: square"/>
   </g>
   <g id="patch_24">
    <path d="M 705.770236 185.1332 
L 705.770236 10.8 
" style="fill: none; stroke: #000000; stroke-width: 0.8; stroke-linejoin: miter; stroke-linecap: square"/>
   </g>
   <g id="patch_25">
    <path d="M 426.505118 185.1332 
L 705.770236 185.1332 
" style="fill: none; stroke: #000000; stroke-width: 0.8; stroke-linejoin: miter; stroke-linecap: square"/>
   </g>
   <g id="patch_26">
    <path d="M 426.505118 10.8 
L 705.770236 10.8 
" style="fill: none; stroke: #000000; stroke-width: 0.8; stroke-linejoin: miter; stroke-linecap: square"/>
   </g>
  </g>
 </g>
 <defs>
  <clipPath id="p24106ff8e5">
   <rect x="97.45" y="10.8" width="279.265118" height="174.3332"/>
  </clipPath>
  <clipPath id="pd9e9c8ebdc">
   <rect x="426.505118" y="10.8" width="279.265118" height="174.3332"/>
  </clipPath>
 </defs>
</svg>
