<?xml version="1.0" encoding="utf-8" standalone="no"?>
<!DOCTYPE svg PUBLIC "-//W3C//DTD SVG 1.1//EN"
  "http://www.w3.org/Graphics/SVG/1.1/DTD/svg11.dtd">
<svg xmlns:xlink="http://www.w3.org/1999/xlink" width="828pt" height="252pt" viewBox="0 0 828 252" xmlns="http://www.w3.org/2000/svg" version="1.1">
 <metadata>
  <rdf:RDF xmlns:dc="http://purl.org/dc/elements/1.1/" xmlns:cc="http://creativecommons.org/ns#" xmlns:rdf="http://www.w3.org/1999/02/22-rdf-syntax-ns#">
   <cc:Work>
    <dc:type rdf:resource="http://purl.org/dc/dcmitype/StillImage"/>
    <dc:date>2025-02-03T00:39:34.267982</dc:date>
    <dc:format>image/svg+xml</dc:format>
    <dc:creator>
     <cc:Agent>
      <dc:title>Matplotlib v3.9.0, https://matplotlib.org/</dc:title>
     </cc:Agent>
    </dc:creator>
   </cc:Work>
  </rdf:RDF>
 </metadata>
 <defs>
  <style type="text/css">*{stroke-linejoin: round; stroke-linecap: butt}</style>
 </defs>
 <g id="figure_1">
  <g id="patch_1">
   <path d="M 0 252 
L 828 252 
L 828 0 
L 0 0 
z
" style="fill: #ffffff"/>
  </g>
  <g id="axes_1">
   <g id="patch_2">
    <path d="M 54.74 185.1332 
L 243.926667 185.1332 
L 243.926667 10.8 
L 54.74 10.8 
z
" style="fill: #ffffff"/>
   </g>
   <g id="matplotlib.axis_1">
    <g id="xtick_1">
     <g id="line2d_1">
      <path d="M 63.339394 185.1332 
L 63.339394 10.8 
" clip-path="url(#p8f0bf84dad)" style="fill: none; stroke: #b0b0b0; stroke-opacity: 0.2; stroke-width: 0.8; stroke-linecap: square"/>
     </g>
     <g id="line2d_2">
      <defs>
       <path id="m08e3cd637a" d="M 0 0 
L 0 3.5 
" style="stroke: #000000; stroke-width: 0.8"/>
      </defs>
      <g>
       <use xlink:href="#m08e3cd637a" x="63.339394" y="185.1332" style="stroke: #000000; stroke-width: 0.8"/>
      </g>
     </g>
     <g id="text_1">
      <!-- 0 -->
      <g transform="translate(60.839394 199.07695) scale(0.1 -0.1)">
       <defs>
        <path id="TimesNewRomanPSMT-30" d="M 231 2094 
Q 231 2819 450 3342 
Q 669 3866 1031 4122 
Q 1313 4325 1613 4325 
Q 2100 4325 2488 3828 
Q 2972 3213 2972 2159 
Q 2972 1422 2759 906 
Q 2547 391 2217 158 
Q 1888 -75 1581 -75 
Q 975 -75 572 641 
Q 231 1244 231 2094 
z
M 844 2016 
Q 844 1141 1059 588 
Q 1238 122 1591 122 
Q 1759 122 1940 273 
Q 2122 425 2216 781 
Q 2359 1319 2359 2297 
Q 2359 3022 2209 3506 
Q 2097 3866 1919 4016 
Q 1791 4119 1609 4119 
Q 1397 4119 1231 3928 
Q 1006 3669 925 3112 
Q 844 2556 844 2016 
z
" transform="scale(0.015625)"/>
       </defs>
       <use xlink:href="#TimesNewRomanPSMT-30"/>
      </g>
     </g>
    </g>
    <g id="xtick_2">
     <g id="line2d_3">
      <path d="M 89.799068 185.1332 
L 89.799068 10.8 
" clip-path="url(#p8f0bf84dad)" style="fill: none; stroke: #b0b0b0; stroke-opacity: 0.2; stroke-width: 0.8; stroke-linecap: square"/>
     </g>
     <g id="line2d_4">
      <g>
       <use xlink:href="#m08e3cd637a" x="89.799068" y="185.1332" style="stroke: #000000; stroke-width: 0.8"/>
      </g>
     </g>
     <g id="text_2">
      <!-- 2 -->
      <g transform="translate(87.299068 199.07695) scale(0.1 -0.1)">
       <defs>
        <path id="TimesNewRomanPSMT-32" d="M 2934 816 
L 2638 0 
L 138 0 
L 138 116 
Q 1241 1122 1691 1759 
Q 2141 2397 2141 2925 
Q 2141 3328 1894 3587 
Q 1647 3847 1303 3847 
Q 991 3847 742 3664 
Q 494 3481 375 3128 
L 259 3128 
Q 338 3706 661 4015 
Q 984 4325 1469 4325 
Q 1984 4325 2329 3994 
Q 2675 3663 2675 3213 
Q 2675 2891 2525 2569 
Q 2294 2063 1775 1497 
Q 997 647 803 472 
L 1909 472 
Q 2247 472 2383 497 
Q 2519 522 2628 598 
Q 2738 675 2819 816 
L 2934 816 
z
" transform="scale(0.015625)"/>
       </defs>
       <use xlink:href="#TimesNewRomanPSMT-32"/>
      </g>
     </g>
    </g>
    <g id="xtick_3">
     <g id="line2d_5">
      <path d="M 116.258741 185.1332 
L 116.258741 10.8 
" clip-path="url(#p8f0bf84dad)" style="fill: none; stroke: #b0b0b0; stroke-opacity: 0.2; stroke-width: 0.8; stroke-linecap: square"/>
     </g>
     <g id="line2d_6">
      <g>
       <use xlink:href="#m08e3cd637a" x="116.258741" y="185.1332" style="stroke: #000000; stroke-width: 0.8"/>
      </g>
     </g>
     <g id="text_3">
      <!-- 4 -->
      <g transform="translate(113.758741 199.07695) scale(0.1 -0.1)">
       <defs>
        <path id="TimesNewRomanPSMT-34" d="M 2978 1563 
L 2978 1119 
L 2409 1119 
L 2409 0 
L 1894 0 
L 1894 1119 
L 100 1119 
L 100 1519 
L 2066 4325 
L 2409 4325 
L 2409 1563 
L 2978 1563 
z
M 1894 1563 
L 1894 3666 
L 406 1563 
L 1894 1563 
z
" transform="scale(0.015625)"/>
       </defs>
       <use xlink:href="#TimesNewRomanPSMT-34"/>
      </g>
     </g>
    </g>
    <g id="xtick_4">
     <g id="line2d_7">
      <path d="M 142.718415 185.1332 
L 142.718415 10.8 
" clip-path="url(#p8f0bf84dad)" style="fill: none; stroke: #b0b0b0; stroke-opacity: 0.2; stroke-width: 0.8; stroke-linecap: square"/>
     </g>
     <g id="line2d_8">
      <g>
       <use xlink:href="#m08e3cd637a" x="142.718415" y="185.1332" style="stroke: #000000; stroke-width: 0.8"/>
      </g>
     </g>
     <g id="text_4">
      <!-- 6 -->
      <g transform="translate(140.218415 199.07695) scale(0.1 -0.1)">
       <defs>
        <path id="TimesNewRomanPSMT-36" d="M 2869 4325 
L 2869 4209 
Q 2456 4169 2195 4045 
Q 1934 3922 1679 3669 
Q 1425 3416 1258 3105 
Q 1091 2794 978 2366 
Q 1428 2675 1881 2675 
Q 2316 2675 2634 2325 
Q 2953 1975 2953 1425 
Q 2953 894 2631 456 
Q 2244 -75 1606 -75 
Q 1172 -75 869 213 
Q 275 772 275 1663 
Q 275 2231 503 2743 
Q 731 3256 1154 3653 
Q 1578 4050 1965 4187 
Q 2353 4325 2688 4325 
L 2869 4325 
z
M 925 2138 
Q 869 1716 869 1456 
Q 869 1156 980 804 
Q 1091 453 1309 247 
Q 1469 100 1697 100 
Q 1969 100 2183 356 
Q 2397 613 2397 1088 
Q 2397 1622 2184 2012 
Q 1972 2403 1581 2403 
Q 1463 2403 1327 2353 
Q 1191 2303 925 2138 
z
" transform="scale(0.015625)"/>
       </defs>
       <use xlink:href="#TimesNewRomanPSMT-36"/>
      </g>
     </g>
    </g>
    <g id="xtick_5">
     <g id="line2d_9">
      <path d="M 169.178089 185.1332 
L 169.178089 10.8 
" clip-path="url(#p8f0bf84dad)" style="fill: none; stroke: #b0b0b0; stroke-opacity: 0.2; stroke-width: 0.8; stroke-linecap: square"/>
     </g>
     <g id="line2d_10">
      <g>
       <use xlink:href="#m08e3cd637a" x="169.178089" y="185.1332" style="stroke: #000000; stroke-width: 0.8"/>
      </g>
     </g>
     <g id="text_5">
      <!-- 8 -->
      <g transform="translate(166.678089 199.07695) scale(0.1 -0.1)">
       <defs>
        <path id="TimesNewRomanPSMT-38" d="M 1228 2134 
Q 725 2547 579 2797 
Q 434 3047 434 3316 
Q 434 3728 753 4026 
Q 1072 4325 1600 4325 
Q 2113 4325 2425 4047 
Q 2738 3769 2738 3413 
Q 2738 3175 2569 2928 
Q 2400 2681 1866 2347 
Q 2416 1922 2594 1678 
Q 2831 1359 2831 1006 
Q 2831 559 2490 242 
Q 2150 -75 1597 -75 
Q 994 -75 656 303 
Q 388 606 388 966 
Q 388 1247 577 1523 
Q 766 1800 1228 2134 
z
M 1719 2469 
Q 2094 2806 2194 3001 
Q 2294 3197 2294 3444 
Q 2294 3772 2109 3958 
Q 1925 4144 1606 4144 
Q 1288 4144 1088 3959 
Q 888 3775 888 3528 
Q 888 3366 970 3203 
Q 1053 3041 1206 2894 
L 1719 2469 
z
M 1375 2016 
Q 1116 1797 991 1539 
Q 866 1281 866 981 
Q 866 578 1086 336 
Q 1306 94 1647 94 
Q 1984 94 2187 284 
Q 2391 475 2391 747 
Q 2391 972 2272 1150 
Q 2050 1481 1375 2016 
z
" transform="scale(0.015625)"/>
       </defs>
       <use xlink:href="#TimesNewRomanPSMT-38"/>
      </g>
     </g>
    </g>
    <g id="xtick_6">
     <g id="line2d_11">
      <path d="M 195.637762 185.1332 
L 195.637762 10.8 
" clip-path="url(#p8f0bf84dad)" style="fill: none; stroke: #b0b0b0; stroke-opacity: 0.2; stroke-width: 0.8; stroke-linecap: square"/>
     </g>
     <g id="line2d_12">
      <g>
       <use xlink:href="#m08e3cd637a" x="195.637762" y="185.1332" style="stroke: #000000; stroke-width: 0.8"/>
      </g>
     </g>
     <g id="text_6">
      <!-- 10 -->
      <g transform="translate(190.637762 199.07695) scale(0.1 -0.1)">
       <defs>
        <path id="TimesNewRomanPSMT-31" d="M 750 3822 
L 1781 4325 
L 1884 4325 
L 1884 747 
Q 1884 391 1914 303 
Q 1944 216 2037 169 
Q 2131 122 2419 116 
L 2419 0 
L 825 0 
L 825 116 
Q 1125 122 1212 167 
Q 1300 213 1334 289 
Q 1369 366 1369 747 
L 1369 3034 
Q 1369 3497 1338 3628 
Q 1316 3728 1258 3775 
Q 1200 3822 1119 3822 
Q 1003 3822 797 3725 
L 750 3822 
z
" transform="scale(0.015625)"/>
       </defs>
       <use xlink:href="#TimesNewRomanPSMT-31"/>
       <use xlink:href="#TimesNewRomanPSMT-30" x="50"/>
      </g>
     </g>
    </g>
    <g id="xtick_7">
     <g id="line2d_13">
      <path d="M 222.097436 185.1332 
L 222.097436 10.8 
" clip-path="url(#p8f0bf84dad)" style="fill: none; stroke: #b0b0b0; stroke-opacity: 0.2; stroke-width: 0.8; stroke-linecap: square"/>
     </g>
     <g id="line2d_14">
      <g>
       <use xlink:href="#m08e3cd637a" x="222.097436" y="185.1332" style="stroke: #000000; stroke-width: 0.8"/>
      </g>
     </g>
     <g id="text_7">
      <!-- 12 -->
      <g transform="translate(217.097436 199.07695) scale(0.1 -0.1)">
       <use xlink:href="#TimesNewRomanPSMT-31"/>
       <use xlink:href="#TimesNewRomanPSMT-32" x="50"/>
      </g>
     </g>
    </g>
    <g id="text_8">
     <!-- Future observations (days) -->
     <g transform="translate(72.547583 215.215013) scale(0.144 -0.144)">
      <defs>
       <path id="TimesNewRomanPSMT-46" d="M 1309 4006 
L 1309 2341 
L 2081 2341 
Q 2347 2341 2470 2458 
Q 2594 2575 2634 2922 
L 2750 2922 
L 2750 1488 
L 2634 1488 
Q 2631 1734 2570 1850 
Q 2509 1966 2401 2023 
Q 2294 2081 2081 2081 
L 1309 2081 
L 1309 750 
Q 1309 428 1350 325 
Q 1381 247 1481 191 
Q 1619 116 1769 116 
L 1922 116 
L 1922 0 
L 103 0 
L 103 116 
L 253 116 
Q 516 116 634 269 
Q 709 369 709 750 
L 709 3488 
Q 709 3809 669 3913 
Q 638 3991 541 4047 
Q 406 4122 253 4122 
L 103 4122 
L 103 4238 
L 3256 4238 
L 3297 3306 
L 3188 3306 
Q 3106 3603 2998 3742 
Q 2891 3881 2733 3943 
Q 2575 4006 2244 4006 
L 1309 4006 
z
" transform="scale(0.015625)"/>
       <path id="TimesNewRomanPSMT-75" d="M 2709 2863 
L 2709 1128 
Q 2709 631 2732 520 
Q 2756 409 2807 365 
Q 2859 322 2928 322 
Q 3025 322 3147 375 
L 3191 266 
L 2334 -88 
L 2194 -88 
L 2194 519 
Q 1825 119 1631 15 
Q 1438 -88 1222 -88 
Q 981 -88 804 51 
Q 628 191 559 409 
Q 491 628 491 1028 
L 491 2306 
Q 491 2509 447 2587 
Q 403 2666 317 2708 
Q 231 2750 6 2747 
L 6 2863 
L 1009 2863 
L 1009 947 
Q 1009 547 1148 422 
Q 1288 297 1484 297 
Q 1619 297 1789 381 
Q 1959 466 2194 703 
L 2194 2325 
Q 2194 2569 2105 2655 
Q 2016 2741 1734 2747 
L 1734 2863 
L 2709 2863 
z
" transform="scale(0.015625)"/>
       <path id="TimesNewRomanPSMT-74" d="M 1031 3803 
L 1031 2863 
L 1700 2863 
L 1700 2644 
L 1031 2644 
L 1031 788 
Q 1031 509 1111 412 
Q 1191 316 1316 316 
Q 1419 316 1516 380 
Q 1613 444 1666 569 
L 1788 569 
Q 1678 263 1478 108 
Q 1278 -47 1066 -47 
Q 922 -47 784 33 
Q 647 113 581 261 
Q 516 409 516 719 
L 516 2644 
L 63 2644 
L 63 2747 
Q 234 2816 414 2980 
Q 594 3144 734 3369 
Q 806 3488 934 3803 
L 1031 3803 
z
" transform="scale(0.015625)"/>
       <path id="TimesNewRomanPSMT-72" d="M 1038 2947 
L 1038 2303 
Q 1397 2947 1775 2947 
Q 1947 2947 2059 2842 
Q 2172 2738 2172 2600 
Q 2172 2478 2090 2393 
Q 2009 2309 1897 2309 
Q 1788 2309 1652 2417 
Q 1516 2525 1450 2525 
Q 1394 2525 1328 2463 
Q 1188 2334 1038 2041 
L 1038 669 
Q 1038 431 1097 309 
Q 1138 225 1241 169 
Q 1344 113 1538 113 
L 1538 0 
L 72 0 
L 72 113 
Q 291 113 397 181 
Q 475 231 506 341 
Q 522 394 522 644 
L 522 1753 
Q 522 2253 501 2348 
Q 481 2444 426 2487 
Q 372 2531 291 2531 
Q 194 2531 72 2484 
L 41 2597 
L 906 2947 
L 1038 2947 
z
" transform="scale(0.015625)"/>
       <path id="TimesNewRomanPSMT-65" d="M 681 1784 
Q 678 1147 991 784 
Q 1303 422 1725 422 
Q 2006 422 2214 576 
Q 2422 731 2563 1106 
L 2659 1044 
Q 2594 616 2278 264 
Q 1963 -88 1488 -88 
Q 972 -88 605 314 
Q 238 716 238 1394 
Q 238 2128 614 2539 
Q 991 2950 1559 2950 
Q 2041 2950 2350 2633 
Q 2659 2316 2659 1784 
L 681 1784 
z
M 681 1966 
L 2006 1966 
Q 1991 2241 1941 2353 
Q 1863 2528 1708 2628 
Q 1553 2728 1384 2728 
Q 1125 2728 920 2526 
Q 716 2325 681 1966 
z
" transform="scale(0.015625)"/>
       <path id="TimesNewRomanPSMT-20" transform="scale(0.015625)"/>
       <path id="TimesNewRomanPSMT-6f" d="M 1600 2947 
Q 2250 2947 2644 2453 
Q 2978 2031 2978 1484 
Q 2978 1100 2793 706 
Q 2609 313 2286 112 
Q 1963 -88 1566 -88 
Q 919 -88 538 428 
Q 216 863 216 1403 
Q 216 1797 411 2186 
Q 606 2575 925 2761 
Q 1244 2947 1600 2947 
z
M 1503 2744 
Q 1338 2744 1170 2645 
Q 1003 2547 900 2300 
Q 797 2053 797 1666 
Q 797 1041 1045 587 
Q 1294 134 1700 134 
Q 2003 134 2200 384 
Q 2397 634 2397 1244 
Q 2397 2006 2069 2444 
Q 1847 2744 1503 2744 
z
" transform="scale(0.015625)"/>
       <path id="TimesNewRomanPSMT-62" d="M 984 2369 
Q 1400 2947 1881 2947 
Q 2322 2947 2650 2570 
Q 2978 2194 2978 1541 
Q 2978 778 2472 313 
Q 2038 -88 1503 -88 
Q 1253 -88 995 3 
Q 738 94 469 275 
L 469 3241 
Q 469 3728 445 3840 
Q 422 3953 372 3993 
Q 322 4034 247 4034 
Q 159 4034 28 3984 
L -16 4094 
L 844 4444 
L 984 4444 
L 984 2369 
z
M 984 2169 
L 984 456 
Q 1144 300 1314 220 
Q 1484 141 1663 141 
Q 1947 141 2192 453 
Q 2438 766 2438 1363 
Q 2438 1913 2192 2208 
Q 1947 2503 1634 2503 
Q 1469 2503 1303 2419 
Q 1178 2356 984 2169 
z
" transform="scale(0.015625)"/>
       <path id="TimesNewRomanPSMT-73" d="M 2050 2947 
L 2050 1972 
L 1947 1972 
Q 1828 2431 1642 2597 
Q 1456 2763 1169 2763 
Q 950 2763 815 2647 
Q 681 2531 681 2391 
Q 681 2216 781 2091 
Q 878 1963 1175 1819 
L 1631 1597 
Q 2266 1288 2266 781 
Q 2266 391 1970 151 
Q 1675 -88 1309 -88 
Q 1047 -88 709 6 
Q 606 38 541 38 
Q 469 38 428 -44 
L 325 -44 
L 325 978 
L 428 978 
Q 516 541 762 319 
Q 1009 97 1316 97 
Q 1531 97 1667 223 
Q 1803 350 1803 528 
Q 1803 744 1651 891 
Q 1500 1038 1047 1263 
Q 594 1488 453 1669 
Q 313 1847 313 2119 
Q 313 2472 555 2709 
Q 797 2947 1181 2947 
Q 1350 2947 1591 2875 
Q 1750 2828 1803 2828 
Q 1853 2828 1881 2850 
Q 1909 2872 1947 2947 
L 2050 2947 
z
" transform="scale(0.015625)"/>
       <path id="TimesNewRomanPSMT-76" d="M 53 2863 
L 1400 2863 
L 1400 2747 
L 1313 2747 
Q 1191 2747 1127 2687 
Q 1063 2628 1063 2528 
Q 1063 2419 1128 2269 
L 1794 688 
L 2463 2328 
Q 2534 2503 2534 2594 
Q 2534 2638 2509 2666 
Q 2475 2713 2422 2730 
Q 2369 2747 2206 2747 
L 2206 2863 
L 3141 2863 
L 3141 2747 
Q 2978 2734 2916 2681 
Q 2806 2588 2719 2369 
L 1703 -88 
L 1575 -88 
L 553 2328 
Q 484 2497 421 2570 
Q 359 2644 263 2694 
Q 209 2722 53 2747 
L 53 2863 
z
" transform="scale(0.015625)"/>
       <path id="TimesNewRomanPSMT-61" d="M 1822 413 
Q 1381 72 1269 19 
Q 1100 -59 909 -59 
Q 613 -59 420 144 
Q 228 347 228 678 
Q 228 888 322 1041 
Q 450 1253 767 1440 
Q 1084 1628 1822 1897 
L 1822 2009 
Q 1822 2438 1686 2597 
Q 1550 2756 1291 2756 
Q 1094 2756 978 2650 
Q 859 2544 859 2406 
L 866 2225 
Q 866 2081 792 2003 
Q 719 1925 600 1925 
Q 484 1925 411 2006 
Q 338 2088 338 2228 
Q 338 2497 613 2722 
Q 888 2947 1384 2947 
Q 1766 2947 2009 2819 
Q 2194 2722 2281 2516 
Q 2338 2381 2338 1966 
L 2338 994 
Q 2338 584 2353 492 
Q 2369 400 2405 369 
Q 2441 338 2488 338 
Q 2538 338 2575 359 
Q 2641 400 2828 588 
L 2828 413 
Q 2478 -56 2159 -56 
Q 2006 -56 1915 50 
Q 1825 156 1822 413 
z
M 1822 616 
L 1822 1706 
Q 1350 1519 1213 1441 
Q 966 1303 859 1153 
Q 753 1003 753 825 
Q 753 600 887 451 
Q 1022 303 1197 303 
Q 1434 303 1822 616 
z
" transform="scale(0.015625)"/>
       <path id="TimesNewRomanPSMT-69" d="M 928 4444 
Q 1059 4444 1151 4351 
Q 1244 4259 1244 4128 
Q 1244 3997 1151 3903 
Q 1059 3809 928 3809 
Q 797 3809 703 3903 
Q 609 3997 609 4128 
Q 609 4259 701 4351 
Q 794 4444 928 4444 
z
M 1188 2947 
L 1188 647 
Q 1188 378 1227 289 
Q 1266 200 1342 156 
Q 1419 113 1622 113 
L 1622 0 
L 231 0 
L 231 113 
Q 441 113 512 153 
Q 584 194 626 287 
Q 669 381 669 647 
L 669 1750 
Q 669 2216 641 2353 
Q 619 2453 572 2492 
Q 525 2531 444 2531 
Q 356 2531 231 2484 
L 188 2597 
L 1050 2947 
L 1188 2947 
z
" transform="scale(0.015625)"/>
       <path id="TimesNewRomanPSMT-6e" d="M 1034 2341 
Q 1538 2947 1994 2947 
Q 2228 2947 2397 2830 
Q 2566 2713 2666 2444 
Q 2734 2256 2734 1869 
L 2734 647 
Q 2734 375 2778 278 
Q 2813 200 2889 156 
Q 2966 113 3172 113 
L 3172 0 
L 1756 0 
L 1756 113 
L 1816 113 
Q 2016 113 2095 173 
Q 2175 234 2206 353 
Q 2219 400 2219 647 
L 2219 1819 
Q 2219 2209 2117 2386 
Q 2016 2563 1775 2563 
Q 1403 2563 1034 2156 
L 1034 647 
Q 1034 356 1069 288 
Q 1113 197 1189 155 
Q 1266 113 1500 113 
L 1500 0 
L 84 0 
L 84 113 
L 147 113 
Q 366 113 442 223 
Q 519 334 519 647 
L 519 1709 
Q 519 2225 495 2337 
Q 472 2450 423 2490 
Q 375 2531 294 2531 
Q 206 2531 84 2484 
L 38 2597 
L 900 2947 
L 1034 2947 
L 1034 2341 
z
" transform="scale(0.015625)"/>
       <path id="TimesNewRomanPSMT-28" d="M 1988 -1253 
L 1988 -1369 
Q 1516 -1131 1200 -813 
Q 750 -359 506 256 
Q 263 872 263 1534 
Q 263 2503 741 3301 
Q 1219 4100 1988 4444 
L 1988 4313 
Q 1603 4100 1356 3731 
Q 1109 3363 987 2797 
Q 866 2231 866 1616 
Q 866 947 969 400 
Q 1050 -31 1165 -292 
Q 1281 -553 1476 -793 
Q 1672 -1034 1988 -1253 
z
" transform="scale(0.015625)"/>
       <path id="TimesNewRomanPSMT-64" d="M 2222 322 
Q 2013 103 1813 7 
Q 1613 -88 1381 -88 
Q 913 -88 563 304 
Q 213 697 213 1313 
Q 213 1928 600 2439 
Q 988 2950 1597 2950 
Q 1975 2950 2222 2709 
L 2222 3238 
Q 2222 3728 2198 3840 
Q 2175 3953 2125 3993 
Q 2075 4034 2000 4034 
Q 1919 4034 1784 3984 
L 1744 4094 
L 2597 4444 
L 2738 4444 
L 2738 1134 
Q 2738 631 2761 520 
Q 2784 409 2836 365 
Q 2888 322 2956 322 
Q 3041 322 3181 375 
L 3216 266 
L 2366 -88 
L 2222 -88 
L 2222 322 
z
M 2222 541 
L 2222 2016 
Q 2203 2228 2109 2403 
Q 2016 2578 1861 2667 
Q 1706 2756 1559 2756 
Q 1284 2756 1069 2509 
Q 784 2184 784 1559 
Q 784 928 1059 592 
Q 1334 256 1672 256 
Q 1956 256 2222 541 
z
" transform="scale(0.015625)"/>
       <path id="TimesNewRomanPSMT-79" d="M 38 2863 
L 1372 2863 
L 1372 2747 
L 1306 2747 
Q 1166 2747 1095 2686 
Q 1025 2625 1025 2534 
Q 1025 2413 1128 2197 
L 1825 753 
L 2466 2334 
Q 2519 2463 2519 2588 
Q 2519 2644 2497 2672 
Q 2472 2706 2419 2726 
Q 2366 2747 2231 2747 
L 2231 2863 
L 3163 2863 
L 3163 2747 
Q 3047 2734 2984 2696 
Q 2922 2659 2847 2556 
Q 2819 2513 2741 2316 
L 1575 -541 
Q 1406 -956 1132 -1168 
Q 859 -1381 606 -1381 
Q 422 -1381 303 -1275 
Q 184 -1169 184 -1031 
Q 184 -900 270 -820 
Q 356 -741 506 -741 
Q 609 -741 788 -809 
Q 913 -856 944 -856 
Q 1038 -856 1148 -759 
Q 1259 -663 1372 -384 
L 1575 113 
L 547 2272 
Q 500 2369 397 2513 
Q 319 2622 269 2659 
Q 197 2709 38 2747 
L 38 2863 
z
" transform="scale(0.015625)"/>
       <path id="TimesNewRomanPSMT-29" d="M 144 4313 
L 144 4444 
Q 619 4209 934 3891 
Q 1381 3434 1625 2820 
Q 1869 2206 1869 1541 
Q 1869 572 1392 -226 
Q 916 -1025 144 -1369 
L 144 -1253 
Q 528 -1038 776 -670 
Q 1025 -303 1145 264 
Q 1266 831 1266 1447 
Q 1266 2113 1163 2663 
Q 1084 3094 967 3353 
Q 850 3613 656 3853 
Q 463 4094 144 4313 
z
" transform="scale(0.015625)"/>
      </defs>
      <use xlink:href="#TimesNewRomanPSMT-46"/>
      <use xlink:href="#TimesNewRomanPSMT-75" x="55.615234"/>
      <use xlink:href="#TimesNewRomanPSMT-74" x="105.615234"/>
      <use xlink:href="#TimesNewRomanPSMT-75" x="133.398438"/>
      <use xlink:href="#TimesNewRomanPSMT-72" x="183.398438"/>
      <use xlink:href="#TimesNewRomanPSMT-65" x="216.699219"/>
      <use xlink:href="#TimesNewRomanPSMT-20" x="261.083984"/>
      <use xlink:href="#TimesNewRomanPSMT-6f" x="286.083984"/>
      <use xlink:href="#TimesNewRomanPSMT-62" x="336.083984"/>
      <use xlink:href="#TimesNewRomanPSMT-73" x="386.083984"/>
      <use xlink:href="#TimesNewRomanPSMT-65" x="425"/>
      <use xlink:href="#TimesNewRomanPSMT-72" x="469.384766"/>
      <use xlink:href="#TimesNewRomanPSMT-76" x="502.685547"/>
      <use xlink:href="#TimesNewRomanPSMT-61" x="552.685547"/>
      <use xlink:href="#TimesNewRomanPSMT-74" x="597.070312"/>
      <use xlink:href="#TimesNewRomanPSMT-69" x="624.853516"/>
      <use xlink:href="#TimesNewRomanPSMT-6f" x="652.636719"/>
      <use xlink:href="#TimesNewRomanPSMT-6e" x="702.636719"/>
      <use xlink:href="#TimesNewRomanPSMT-73" x="752.636719"/>
      <use xlink:href="#TimesNewRomanPSMT-20" x="791.552734"/>
      <use xlink:href="#TimesNewRomanPSMT-28" x="816.552734"/>
      <use xlink:href="#TimesNewRomanPSMT-64" x="849.853516"/>
      <use xlink:href="#TimesNewRomanPSMT-61" x="899.853516"/>
      <use xlink:href="#TimesNewRomanPSMT-79" x="944.238281"/>
      <use xlink:href="#TimesNewRomanPSMT-73" x="994.238281"/>
      <use xlink:href="#TimesNewRomanPSMT-29" x="1033.154297"/>
     </g>
    </g>
   </g>
   <g id="matplotlib.axis_2">
    <g id="ytick_1">
     <g id="line2d_15">
      <path d="M 54.74 183.916275 
L 243.926667 183.916275 
" clip-path="url(#p8f0bf84dad)" style="fill: none; stroke: #b0b0b0; stroke-opacity: 0.2; stroke-width: 0.8; stroke-linecap: square"/>
     </g>
     <g id="line2d_16">
      <defs>
       <path id="m91c17e9d86" d="M 0 0 
L -3.5 0 
" style="stroke: #000000; stroke-width: 0.8"/>
      </defs>
      <g>
       <use xlink:href="#m91c17e9d86" x="54.74" y="183.916275" style="stroke: #000000; stroke-width: 0.8"/>
      </g>
     </g>
     <g id="text_9">
      <!-- 0 -->
      <g transform="translate(42.74 187.38815) scale(0.1 -0.1)">
       <use xlink:href="#TimesNewRomanPSMT-30"/>
      </g>
     </g>
    </g>
    <g id="ytick_2">
     <g id="line2d_17">
      <path d="M 54.74 158.800504 
L 243.926667 158.800504 
" clip-path="url(#p8f0bf84dad)" style="fill: none; stroke: #b0b0b0; stroke-opacity: 0.2; stroke-width: 0.8; stroke-linecap: square"/>
     </g>
     <g id="line2d_18">
      <g>
       <use xlink:href="#m91c17e9d86" x="54.74" y="158.800504" style="stroke: #000000; stroke-width: 0.8"/>
      </g>
     </g>
     <g id="text_10">
      <!-- 250 -->
      <g transform="translate(32.74 162.272379) scale(0.1 -0.1)">
       <defs>
        <path id="TimesNewRomanPSMT-35" d="M 2778 4238 
L 2534 3706 
L 1259 3706 
L 981 3138 
Q 1809 3016 2294 2522 
Q 2709 2097 2709 1522 
Q 2709 1188 2573 903 
Q 2438 619 2231 419 
Q 2025 219 1772 97 
Q 1413 -75 1034 -75 
Q 653 -75 479 54 
Q 306 184 306 341 
Q 306 428 378 495 
Q 450 563 559 563 
Q 641 563 702 538 
Q 763 513 909 409 
Q 1144 247 1384 247 
Q 1750 247 2026 523 
Q 2303 800 2303 1197 
Q 2303 1581 2056 1914 
Q 1809 2247 1375 2428 
Q 1034 2569 447 2591 
L 1259 4238 
L 2778 4238 
z
" transform="scale(0.015625)"/>
       </defs>
       <use xlink:href="#TimesNewRomanPSMT-32"/>
       <use xlink:href="#TimesNewRomanPSMT-35" x="50"/>
       <use xlink:href="#TimesNewRomanPSMT-30" x="100"/>
      </g>
     </g>
    </g>
    <g id="ytick_3">
     <g id="line2d_19">
      <path d="M 54.74 133.684733 
L 243.926667 133.684733 
" clip-path="url(#p8f0bf84dad)" style="fill: none; stroke: #b0b0b0; stroke-opacity: 0.2; stroke-width: 0.8; stroke-linecap: square"/>
     </g>
     <g id="line2d_20">
      <g>
       <use xlink:href="#m91c17e9d86" x="54.74" y="133.684733" style="stroke: #000000; stroke-width: 0.8"/>
      </g>
     </g>
     <g id="text_11">
      <!-- 500 -->
      <g transform="translate(32.74 137.156608) scale(0.1 -0.1)">
       <use xlink:href="#TimesNewRomanPSMT-35"/>
       <use xlink:href="#TimesNewRomanPSMT-30" x="50"/>
       <use xlink:href="#TimesNewRomanPSMT-30" x="100"/>
      </g>
     </g>
    </g>
    <g id="ytick_4">
     <g id="line2d_21">
      <path d="M 54.74 108.568962 
L 243.926667 108.568962 
" clip-path="url(#p8f0bf84dad)" style="fill: none; stroke: #b0b0b0; stroke-opacity: 0.2; stroke-width: 0.8; stroke-linecap: square"/>
     </g>
     <g id="line2d_22">
      <g>
       <use xlink:href="#m91c17e9d86" x="54.74" y="108.568962" style="stroke: #000000; stroke-width: 0.8"/>
      </g>
     </g>
     <g id="text_12">
      <!-- 750 -->
      <g transform="translate(32.74 112.040837) scale(0.1 -0.1)">
       <defs>
        <path id="TimesNewRomanPSMT-37" d="M 644 4238 
L 2916 4238 
L 2916 4119 
L 1503 -88 
L 1153 -88 
L 2419 3728 
L 1253 3728 
Q 900 3728 750 3644 
Q 488 3500 328 3200 
L 238 3234 
L 644 4238 
z
" transform="scale(0.015625)"/>
       </defs>
       <use xlink:href="#TimesNewRomanPSMT-37"/>
       <use xlink:href="#TimesNewRomanPSMT-35" x="50"/>
       <use xlink:href="#TimesNewRomanPSMT-30" x="100"/>
      </g>
     </g>
    </g>
    <g id="ytick_5">
     <g id="line2d_23">
      <path d="M 54.74 83.453191 
L 243.926667 83.453191 
" clip-path="url(#p8f0bf84dad)" style="fill: none; stroke: #b0b0b0; stroke-opacity: 0.2; stroke-width: 0.8; stroke-linecap: square"/>
     </g>
     <g id="line2d_24">
      <g>
       <use xlink:href="#m91c17e9d86" x="54.74" y="83.453191" style="stroke: #000000; stroke-width: 0.8"/>
      </g>
     </g>
     <g id="text_13">
      <!-- 1000 -->
      <g transform="translate(27.74 86.925066) scale(0.1 -0.1)">
       <use xlink:href="#TimesNewRomanPSMT-31"/>
       <use xlink:href="#TimesNewRomanPSMT-30" x="50"/>
       <use xlink:href="#TimesNewRomanPSMT-30" x="100"/>
       <use xlink:href="#TimesNewRomanPSMT-30" x="150"/>
      </g>
     </g>
    </g>
    <g id="ytick_6">
     <g id="line2d_25">
      <path d="M 54.74 58.33742 
L 243.926667 58.33742 
" clip-path="url(#p8f0bf84dad)" style="fill: none; stroke: #b0b0b0; stroke-opacity: 0.2; stroke-width: 0.8; stroke-linecap: square"/>
     </g>
     <g id="line2d_26">
      <g>
       <use xlink:href="#m91c17e9d86" x="54.74" y="58.33742" style="stroke: #000000; stroke-width: 0.8"/>
      </g>
     </g>
     <g id="text_14">
      <!-- 1250 -->
      <g transform="translate(27.74 61.809295) scale(0.1 -0.1)">
       <use xlink:href="#TimesNewRomanPSMT-31"/>
       <use xlink:href="#TimesNewRomanPSMT-32" x="50"/>
       <use xlink:href="#TimesNewRomanPSMT-35" x="100"/>
       <use xlink:href="#TimesNewRomanPSMT-30" x="150"/>
      </g>
     </g>
    </g>
    <g id="ytick_7">
     <g id="line2d_27">
      <path d="M 54.74 33.221649 
L 243.926667 33.221649 
" clip-path="url(#p8f0bf84dad)" style="fill: none; stroke: #b0b0b0; stroke-opacity: 0.2; stroke-width: 0.8; stroke-linecap: square"/>
     </g>
     <g id="line2d_28">
      <g>
       <use xlink:href="#m91c17e9d86" x="54.74" y="33.221649" style="stroke: #000000; stroke-width: 0.8"/>
      </g>
     </g>
     <g id="text_15">
      <!-- 1500 -->
      <g transform="translate(27.74 36.693524) scale(0.1 -0.1)">
       <use xlink:href="#TimesNewRomanPSMT-31"/>
       <use xlink:href="#TimesNewRomanPSMT-35" x="50"/>
       <use xlink:href="#TimesNewRomanPSMT-30" x="100"/>
       <use xlink:href="#TimesNewRomanPSMT-30" x="150"/>
      </g>
     </g>
    </g>
    <g id="text_16">
     <!-- IS -->
     <g transform="translate(20.65975 104.36785) rotate(-90) scale(0.144 -0.144)">
      <defs>
       <path id="TimesNewRomanPSMT-49" d="M 1975 116 
L 1975 0 
L 159 0 
L 159 116 
L 309 116 
Q 572 116 691 269 
Q 766 369 766 750 
L 766 3488 
Q 766 3809 725 3913 
Q 694 3991 597 4047 
Q 459 4122 309 4122 
L 159 4122 
L 159 4238 
L 1975 4238 
L 1975 4122 
L 1822 4122 
Q 1563 4122 1444 3969 
Q 1366 3869 1366 3488 
L 1366 750 
Q 1366 428 1406 325 
Q 1438 247 1538 191 
Q 1672 116 1822 116 
L 1975 116 
z
" transform="scale(0.015625)"/>
       <path id="TimesNewRomanPSMT-53" d="M 2934 4334 
L 2934 2869 
L 2819 2869 
Q 2763 3291 2617 3541 
Q 2472 3791 2203 3937 
Q 1934 4084 1647 4084 
Q 1322 4084 1109 3886 
Q 897 3688 897 3434 
Q 897 3241 1031 3081 
Q 1225 2847 1953 2456 
Q 2547 2138 2764 1967 
Q 2981 1797 3098 1565 
Q 3216 1334 3216 1081 
Q 3216 600 2842 251 
Q 2469 -97 1881 -97 
Q 1697 -97 1534 -69 
Q 1438 -53 1133 45 
Q 828 144 747 144 
Q 669 144 623 97 
Q 578 50 556 -97 
L 441 -97 
L 441 1356 
L 556 1356 
Q 638 900 775 673 
Q 913 447 1195 297 
Q 1478 147 1816 147 
Q 2206 147 2432 353 
Q 2659 559 2659 841 
Q 2659 997 2573 1156 
Q 2488 1316 2306 1453 
Q 2184 1547 1640 1851 
Q 1097 2156 867 2337 
Q 638 2519 519 2737 
Q 400 2956 400 3219 
Q 400 3675 750 4004 
Q 1100 4334 1641 4334 
Q 1978 4334 2356 4169 
Q 2531 4091 2603 4091 
Q 2684 4091 2736 4139 
Q 2788 4188 2819 4334 
L 2934 4334 
z
" transform="scale(0.015625)"/>
      </defs>
      <use xlink:href="#TimesNewRomanPSMT-49"/>
      <use xlink:href="#TimesNewRomanPSMT-53" x="33.300781"/>
     </g>
    </g>
   </g>
   <g id="line2d_29">
    <path d="M 63.339394 114.243507 
L 76.569231 120.025292 
L 89.799068 130.105872 
L 103.028904 131.124227 
L 116.258741 134.971274 
L 129.488578 140.017386 
L 142.718415 144.770266 
L 155.948252 149.42641 
L 169.178089 150.579201 
L 182.407925 150.214357 
L 195.637762 138.336303 
L 208.867599 154.011198 
L 222.097436 150.553869 
L 235.327273 153.845084 
" clip-path="url(#p8f0bf84dad)" style="fill: none; stroke: #dc143c; stroke-width: 1.5; stroke-linecap: square"/>
    <defs>
     <path id="m65422178ae" d="M 0 2.5 
C 0.663008 2.5 1.29895 2.236584 1.767767 1.767767 
C 2.236584 1.29895 2.5 0.663008 2.5 0 
C 2.5 -0.663008 2.236584 -1.29895 1.767767 -1.767767 
C 1.29895 -2.236584 0.663008 -2.5 0 -2.5 
C -0.663008 -2.5 -1.29895 -2.236584 -1.767767 -1.767767 
C -2.236584 -1.29895 -2.5 -0.663008 -2.5 0 
C -2.5 0.663008 -2.236584 1.29895 -1.767767 1.767767 
C -1.29895 2.236584 -0.663008 2.5 0 2.5 
z
" style="stroke: #dc143c"/>
    </defs>
    <g clip-path="url(#p8f0bf84dad)">
     <use xlink:href="#m65422178ae" x="63.339394" y="114.243507" style="fill: #dc143c; stroke: #dc143c"/>
     <use xlink:href="#m65422178ae" x="76.569231" y="120.025292" style="fill: #dc143c; stroke: #dc143c"/>
     <use xlink:href="#m65422178ae" x="89.799068" y="130.105872" style="fill: #dc143c; stroke: #dc143c"/>
     <use xlink:href="#m65422178ae" x="103.028904" y="131.124227" style="fill: #dc143c; stroke: #dc143c"/>
     <use xlink:href="#m65422178ae" x="116.258741" y="134.971274" style="fill: #dc143c; stroke: #dc143c"/>
     <use xlink:href="#m65422178ae" x="129.488578" y="140.017386" style="fill: #dc143c; stroke: #dc143c"/>
     <use xlink:href="#m65422178ae" x="142.718415" y="144.770266" style="fill: #dc143c; stroke: #dc143c"/>
     <use xlink:href="#m65422178ae" x="155.948252" y="149.42641" style="fill: #dc143c; stroke: #dc143c"/>
     <use xlink:href="#m65422178ae" x="169.178089" y="150.579201" style="fill: #dc143c; stroke: #dc143c"/>
     <use xlink:href="#m65422178ae" x="182.407925" y="150.214357" style="fill: #dc143c; stroke: #dc143c"/>
     <use xlink:href="#m65422178ae" x="195.637762" y="138.336303" style="fill: #dc143c; stroke: #dc143c"/>
     <use xlink:href="#m65422178ae" x="208.867599" y="154.011198" style="fill: #dc143c; stroke: #dc143c"/>
     <use xlink:href="#m65422178ae" x="222.097436" y="150.553869" style="fill: #dc143c; stroke: #dc143c"/>
     <use xlink:href="#m65422178ae" x="235.327273" y="153.845084" style="fill: #dc143c; stroke: #dc143c"/>
    </g>
   </g>
   <g id="line2d_30">
    <path d="M 63.339394 72.186967 
L 76.569231 98.615581 
L 89.799068 117.282961 
L 103.028904 129.675349 
L 116.258741 143.107124 
L 129.488578 154.845558 
L 142.718415 161.520178 
L 155.948252 167.405825 
L 169.178089 169.257833 
L 182.407925 171.710783 
L 195.637762 174.112132 
L 208.867599 175.570688 
L 222.097436 176.689023 
L 235.327273 177.208964 
" clip-path="url(#p8f0bf84dad)" style="fill: none; stroke: #1e90ff; stroke-width: 1.5; stroke-linecap: square"/>
    <defs>
     <path id="m095781f0c5" d="M 0 2.5 
C 0.663008 2.5 1.29895 2.236584 1.767767 1.767767 
C 2.236584 1.29895 2.5 0.663008 2.5 0 
C 2.5 -0.663008 2.236584 -1.29895 1.767767 -1.767767 
C 1.29895 -2.236584 0.663008 -2.5 0 -2.5 
C -0.663008 -2.5 -1.29895 -2.236584 -1.767767 -1.767767 
C -2.236584 -1.29895 -2.5 -0.663008 -2.5 0 
C -2.5 0.663008 -2.236584 1.29895 -1.767767 1.767767 
C -1.29895 2.236584 -0.663008 2.5 0 2.5 
z
" style="stroke: #1e90ff"/>
    </defs>
    <g clip-path="url(#p8f0bf84dad)">
     <use xlink:href="#m095781f0c5" x="63.339394" y="72.186967" style="fill: #1e90ff; stroke: #1e90ff"/>
     <use xlink:href="#m095781f0c5" x="76.569231" y="98.615581" style="fill: #1e90ff; stroke: #1e90ff"/>
     <use xlink:href="#m095781f0c5" x="89.799068" y="117.282961" style="fill: #1e90ff; stroke: #1e90ff"/>
     <use xlink:href="#m095781f0c5" x="103.028904" y="129.675349" style="fill: #1e90ff; stroke: #1e90ff"/>
     <use xlink:href="#m095781f0c5" x="116.258741" y="143.107124" style="fill: #1e90ff; stroke: #1e90ff"/>
     <use xlink:href="#m095781f0c5" x="129.488578" y="154.845558" style="fill: #1e90ff; stroke: #1e90ff"/>
     <use xlink:href="#m095781f0c5" x="142.718415" y="161.520178" style="fill: #1e90ff; stroke: #1e90ff"/>
     <use xlink:href="#m095781f0c5" x="155.948252" y="167.405825" style="fill: #1e90ff; stroke: #1e90ff"/>
     <use xlink:href="#m095781f0c5" x="169.178089" y="169.257833" style="fill: #1e90ff; stroke: #1e90ff"/>
     <use xlink:href="#m095781f0c5" x="182.407925" y="171.710783" style="fill: #1e90ff; stroke: #1e90ff"/>
     <use xlink:href="#m095781f0c5" x="195.637762" y="174.112132" style="fill: #1e90ff; stroke: #1e90ff"/>
     <use xlink:href="#m095781f0c5" x="208.867599" y="175.570688" style="fill: #1e90ff; stroke: #1e90ff"/>
     <use xlink:href="#m095781f0c5" x="222.097436" y="176.689023" style="fill: #1e90ff; stroke: #1e90ff"/>
     <use xlink:href="#m095781f0c5" x="235.327273" y="177.208964" style="fill: #1e90ff; stroke: #1e90ff"/>
    </g>
   </g>
   <g id="line2d_31">
    <path d="M 63.339394 86.028797 
L 76.569231 18.724236 
L 89.799068 37.895699 
L 103.028904 135.027435 
L 116.258741 144.040103 
L 129.488578 153.727236 
L 142.718415 157.687961 
L 155.948252 166.066071 
L 169.178089 168.597925 
L 182.407925 167.334784 
L 195.637762 167.267723 
L 208.867599 165.561367 
L 222.097436 163.479059 
L 235.327273 161.709363 
" clip-path="url(#p8f0bf84dad)" style="fill: none; stroke: #000000; stroke-width: 1.5; stroke-linecap: square"/>
    <defs>
     <path id="mfbb5b52fdb" d="M 0 2.5 
C 0.663008 2.5 1.29895 2.236584 1.767767 1.767767 
C 2.236584 1.29895 2.5 0.663008 2.5 0 
C 2.5 -0.663008 2.236584 -1.29895 1.767767 -1.767767 
C 1.29895 -2.236584 0.663008 -2.5 0 -2.5 
C -0.663008 -2.5 -1.29895 -2.236584 -1.767767 -1.767767 
C -2.236584 -1.29895 -2.5 -0.663008 -2.5 0 
C -2.5 0.663008 -2.236584 1.29895 -1.767767 1.767767 
C -1.29895 2.236584 -0.663008 2.5 0 2.5 
z
" style="stroke: #000000"/>
    </defs>
    <g clip-path="url(#p8f0bf84dad)">
     <use xlink:href="#mfbb5b52fdb" x="63.339394" y="86.028797" style="stroke: #000000"/>
     <use xlink:href="#mfbb5b52fdb" x="76.569231" y="18.724236" style="stroke: #000000"/>
     <use xlink:href="#mfbb5b52fdb" x="89.799068" y="37.895699" style="stroke: #000000"/>
     <use xlink:href="#mfbb5b52fdb" x="103.028904" y="135.027435" style="stroke: #000000"/>
     <use xlink:href="#mfbb5b52fdb" x="116.258741" y="144.040103" style="stroke: #000000"/>
     <use xlink:href="#mfbb5b52fdb" x="129.488578" y="153.727236" style="stroke: #000000"/>
     <use xlink:href="#mfbb5b52fdb" x="142.718415" y="157.687961" style="stroke: #000000"/>
     <use xlink:href="#mfbb5b52fdb" x="155.948252" y="166.066071" style="stroke: #000000"/>
     <use xlink:href="#mfbb5b52fdb" x="169.178089" y="168.597925" style="stroke: #000000"/>
     <use xlink:href="#mfbb5b52fdb" x="182.407925" y="167.334784" style="stroke: #000000"/>
     <use xlink:href="#mfbb5b52fdb" x="195.637762" y="167.267723" style="stroke: #000000"/>
     <use xlink:href="#mfbb5b52fdb" x="208.867599" y="165.561367" style="stroke: #000000"/>
     <use xlink:href="#mfbb5b52fdb" x="222.097436" y="163.479059" style="stroke: #000000"/>
     <use xlink:href="#mfbb5b52fdb" x="235.327273" y="161.709363" style="stroke: #000000"/>
    </g>
   </g>
   <g id="patch_3">
    <path d="M 54.74 185.1332 
L 54.74 10.8 
" style="fill: none; stroke: #000000; stroke-width: 0.8; stroke-linejoin: miter; stroke-linecap: square"/>
   </g>
   <g id="patch_4">
    <path d="M 243.926667 185.1332 
L 243.926667 10.8 
" style="fill: none; stroke: #000000; stroke-width: 0.8; stroke-linejoin: miter; stroke-linecap: square"/>
   </g>
   <g id="patch_5">
    <path d="M 54.74 185.1332 
L 243.926667 185.1332 
" style="fill: none; stroke: #000000; stroke-width: 0.8; stroke-linejoin: miter; stroke-linecap: square"/>
   </g>
   <g id="patch_6">
    <path d="M 54.74 10.8 
L 243.926667 10.8 
" style="fill: none; stroke: #000000; stroke-width: 0.8; stroke-linejoin: miter; stroke-linecap: square"/>
   </g>
   <g id="legend_1">
    <g id="patch_7">
     <path d="M 149.929792 61.217187 
L 236.926667 61.217187 
Q 238.926667 61.217187 238.926667 59.217187 
L 238.926667 17.8 
Q 238.926667 15.8 236.926667 15.8 
L 149.929792 15.8 
Q 147.929792 15.8 147.929792 17.8 
L 147.929792 59.217187 
Q 147.929792 61.217187 149.929792 61.217187 
z
" style="fill: #ffffff; opacity: 0.8; stroke: #cccccc; stroke-linejoin: miter"/>
    </g>
    <g id="line2d_32">
     <path d="M 151.929792 23.3 
L 161.929792 23.3 
L 171.929792 23.3 
" style="fill: none; stroke: #dc143c; stroke-width: 1.5; stroke-linecap: square"/>
     <g>
      <use xlink:href="#m65422178ae" x="161.929792" y="23.3" style="fill: #dc143c; stroke: #dc143c"/>
     </g>
    </g>
    <g id="text_17">
     <!-- NowcastPNN -->
     <g transform="translate(179.929792 26.8) scale(0.1 -0.1)">
      <defs>
       <path id="TimesNewRomanPSMT-4e" d="M -84 4238 
L 1066 4238 
L 3656 1059 
L 3656 3503 
Q 3656 3894 3569 3991 
Q 3453 4122 3203 4122 
L 3056 4122 
L 3056 4238 
L 4531 4238 
L 4531 4122 
L 4381 4122 
Q 4113 4122 4000 3959 
Q 3931 3859 3931 3503 
L 3931 -69 
L 3819 -69 
L 1025 3344 
L 1025 734 
Q 1025 344 1109 247 
Q 1228 116 1475 116 
L 1625 116 
L 1625 0 
L 150 0 
L 150 116 
L 297 116 
Q 569 116 681 278 
Q 750 378 750 734 
L 750 3681 
Q 566 3897 470 3965 
Q 375 4034 191 4094 
Q 100 4122 -84 4122 
L -84 4238 
z
" transform="scale(0.015625)"/>
       <path id="TimesNewRomanPSMT-77" d="M 41 2863 
L 1241 2863 
L 1241 2747 
Q 1075 2734 1023 2687 
Q 972 2641 972 2553 
Q 972 2456 1025 2319 
L 1638 672 
L 2253 2013 
L 2091 2434 
Q 2016 2622 1894 2694 
Q 1825 2738 1638 2747 
L 1638 2863 
L 3000 2863 
L 3000 2747 
Q 2775 2738 2681 2666 
Q 2619 2616 2619 2506 
Q 2619 2444 2644 2378 
L 3294 734 
L 3897 2319 
Q 3959 2488 3959 2588 
Q 3959 2647 3898 2694 
Q 3838 2741 3659 2747 
L 3659 2863 
L 4563 2863 
L 4563 2747 
Q 4291 2706 4163 2378 
L 3206 -88 
L 3078 -88 
L 2363 1741 
L 1528 -88 
L 1413 -88 
L 494 2319 
Q 403 2547 315 2626 
Q 228 2706 41 2747 
L 41 2863 
z
" transform="scale(0.015625)"/>
       <path id="TimesNewRomanPSMT-63" d="M 2631 1088 
Q 2516 522 2178 217 
Q 1841 -88 1431 -88 
Q 944 -88 581 321 
Q 219 731 219 1428 
Q 219 2103 620 2525 
Q 1022 2947 1584 2947 
Q 2006 2947 2278 2723 
Q 2550 2500 2550 2259 
Q 2550 2141 2473 2067 
Q 2397 1994 2259 1994 
Q 2075 1994 1981 2113 
Q 1928 2178 1911 2362 
Q 1894 2547 1784 2644 
Q 1675 2738 1481 2738 
Q 1169 2738 978 2506 
Q 725 2200 725 1697 
Q 725 1184 976 792 
Q 1228 400 1656 400 
Q 1963 400 2206 609 
Q 2378 753 2541 1131 
L 2631 1088 
z
" transform="scale(0.015625)"/>
       <path id="TimesNewRomanPSMT-50" d="M 1313 1984 
L 1313 750 
Q 1313 350 1400 253 
Q 1519 116 1759 116 
L 1922 116 
L 1922 0 
L 106 0 
L 106 116 
L 266 116 
Q 534 116 650 291 
Q 713 388 713 750 
L 713 3488 
Q 713 3888 628 3984 
Q 506 4122 266 4122 
L 106 4122 
L 106 4238 
L 1659 4238 
Q 2228 4238 2556 4120 
Q 2884 4003 3109 3725 
Q 3334 3447 3334 3066 
Q 3334 2547 2992 2222 
Q 2650 1897 2025 1897 
Q 1872 1897 1694 1919 
Q 1516 1941 1313 1984 
z
M 1313 2163 
Q 1478 2131 1606 2115 
Q 1734 2100 1825 2100 
Q 2150 2100 2386 2351 
Q 2622 2603 2622 3003 
Q 2622 3278 2509 3514 
Q 2397 3750 2190 3867 
Q 1984 3984 1722 3984 
Q 1563 3984 1313 3925 
L 1313 2163 
z
" transform="scale(0.015625)"/>
      </defs>
      <use xlink:href="#TimesNewRomanPSMT-4e"/>
      <use xlink:href="#TimesNewRomanPSMT-6f" x="72.216797"/>
      <use xlink:href="#TimesNewRomanPSMT-77" x="122.216797"/>
      <use xlink:href="#TimesNewRomanPSMT-63" x="194.433594"/>
      <use xlink:href="#TimesNewRomanPSMT-61" x="238.818359"/>
      <use xlink:href="#TimesNewRomanPSMT-73" x="283.203125"/>
      <use xlink:href="#TimesNewRomanPSMT-74" x="322.119141"/>
      <use xlink:href="#TimesNewRomanPSMT-50" x="349.902344"/>
      <use xlink:href="#TimesNewRomanPSMT-4e" x="405.517578"/>
      <use xlink:href="#TimesNewRomanPSMT-4e" x="477.734375"/>
     </g>
    </g>
    <g id="line2d_33">
     <path d="M 151.929792 37.439062 
L 161.929792 37.439062 
L 171.929792 37.439062 
" style="fill: none; stroke: #1e90ff; stroke-width: 1.5; stroke-linecap: square"/>
     <g>
      <use xlink:href="#m095781f0c5" x="161.929792" y="37.439062" style="fill: #1e90ff; stroke: #1e90ff"/>
     </g>
    </g>
    <g id="text_18">
     <!-- Epinowcast -->
     <g transform="translate(179.929792 40.939062) scale(0.1 -0.1)">
      <defs>
       <path id="TimesNewRomanPSMT-45" d="M 1338 4006 
L 1338 2331 
L 2269 2331 
Q 2631 2331 2753 2441 
Q 2916 2584 2934 2947 
L 3050 2947 
L 3050 1472 
L 2934 1472 
Q 2891 1781 2847 1869 
Q 2791 1978 2662 2040 
Q 2534 2103 2269 2103 
L 1338 2103 
L 1338 706 
Q 1338 425 1363 364 
Q 1388 303 1450 267 
Q 1513 231 1688 231 
L 2406 231 
Q 2766 231 2928 281 
Q 3091 331 3241 478 
Q 3434 672 3638 1063 
L 3763 1063 
L 3397 0 
L 131 0 
L 131 116 
L 281 116 
Q 431 116 566 188 
Q 666 238 702 338 
Q 738 438 738 747 
L 738 3500 
Q 738 3903 656 3997 
Q 544 4122 281 4122 
L 131 4122 
L 131 4238 
L 3397 4238 
L 3444 3309 
L 3322 3309 
Q 3256 3644 3176 3769 
Q 3097 3894 2941 3959 
Q 2816 4006 2500 4006 
L 1338 4006 
z
" transform="scale(0.015625)"/>
       <path id="TimesNewRomanPSMT-70" d="M -6 2578 
L 875 2934 
L 994 2934 
L 994 2266 
Q 1216 2644 1439 2795 
Q 1663 2947 1909 2947 
Q 2341 2947 2628 2609 
Q 2981 2197 2981 1534 
Q 2981 794 2556 309 
Q 2206 -88 1675 -88 
Q 1444 -88 1275 -22 
Q 1150 25 994 166 
L 994 -706 
Q 994 -1000 1030 -1079 
Q 1066 -1159 1155 -1206 
Q 1244 -1253 1478 -1253 
L 1478 -1369 
L -22 -1369 
L -22 -1253 
L 56 -1253 
Q 228 -1256 350 -1188 
Q 409 -1153 442 -1076 
Q 475 -1000 475 -688 
L 475 2019 
Q 475 2297 450 2372 
Q 425 2447 370 2484 
Q 316 2522 222 2522 
Q 147 2522 31 2478 
L -6 2578 
z
M 994 2081 
L 994 1013 
Q 994 666 1022 556 
Q 1066 375 1236 237 
Q 1406 100 1666 100 
Q 1978 100 2172 344 
Q 2425 663 2425 1241 
Q 2425 1897 2138 2250 
Q 1938 2494 1663 2494 
Q 1513 2494 1366 2419 
Q 1253 2363 994 2081 
z
" transform="scale(0.015625)"/>
      </defs>
      <use xlink:href="#TimesNewRomanPSMT-45"/>
      <use xlink:href="#TimesNewRomanPSMT-70" x="61.083984"/>
      <use xlink:href="#TimesNewRomanPSMT-69" x="111.083984"/>
      <use xlink:href="#TimesNewRomanPSMT-6e" x="138.867188"/>
      <use xlink:href="#TimesNewRomanPSMT-6f" x="188.867188"/>
      <use xlink:href="#TimesNewRomanPSMT-77" x="238.867188"/>
      <use xlink:href="#TimesNewRomanPSMT-63" x="311.083984"/>
      <use xlink:href="#TimesNewRomanPSMT-61" x="355.46875"/>
      <use xlink:href="#TimesNewRomanPSMT-73" x="399.853516"/>
      <use xlink:href="#TimesNewRomanPSMT-74" x="438.769531"/>
     </g>
    </g>
    <g id="line2d_34">
     <path d="M 151.929792 51.578125 
L 161.929792 51.578125 
L 171.929792 51.578125 
" style="fill: none; stroke: #000000; stroke-width: 1.5; stroke-linecap: square"/>
     <g>
      <use xlink:href="#mfbb5b52fdb" x="161.929792" y="51.578125" style="stroke: #000000"/>
     </g>
    </g>
    <g id="text_19">
     <!-- RIVM -->
     <g transform="translate(179.929792 55.078125) scale(0.1 -0.1)">
      <defs>
       <path id="TimesNewRomanPSMT-52" d="M 4325 0 
L 3194 0 
L 1759 1981 
Q 1600 1975 1500 1975 
Q 1459 1975 1412 1976 
Q 1366 1978 1316 1981 
L 1316 750 
Q 1316 350 1403 253 
Q 1522 116 1759 116 
L 1925 116 
L 1925 0 
L 109 0 
L 109 116 
L 269 116 
Q 538 116 653 291 
Q 719 388 719 750 
L 719 3488 
Q 719 3888 631 3984 
Q 509 4122 269 4122 
L 109 4122 
L 109 4238 
L 1653 4238 
Q 2328 4238 2648 4139 
Q 2969 4041 3192 3777 
Q 3416 3513 3416 3147 
Q 3416 2756 3161 2468 
Q 2906 2181 2372 2063 
L 3247 847 
Q 3547 428 3762 290 
Q 3978 153 4325 116 
L 4325 0 
z
M 1316 2178 
Q 1375 2178 1419 2176 
Q 1463 2175 1491 2175 
Q 2097 2175 2405 2437 
Q 2713 2700 2713 3106 
Q 2713 3503 2464 3751 
Q 2216 4000 1806 4000 
Q 1625 4000 1316 3941 
L 1316 2178 
z
" transform="scale(0.015625)"/>
       <path id="TimesNewRomanPSMT-56" d="M 4544 4238 
L 4544 4122 
Q 4319 4081 4203 3978 
Q 4038 3825 3909 3509 
L 2431 -97 
L 2316 -97 
L 728 3556 
Q 606 3838 556 3900 
Q 478 3997 364 4051 
Q 250 4106 56 4122 
L 56 4238 
L 1788 4238 
L 1788 4122 
Q 1494 4094 1406 4022 
Q 1319 3950 1319 3838 
Q 1319 3681 1463 3350 
L 2541 866 
L 3541 3319 
Q 3688 3681 3688 3822 
Q 3688 3913 3597 3995 
Q 3506 4078 3291 4113 
Q 3275 4116 3238 4122 
L 3238 4238 
L 4544 4238 
z
" transform="scale(0.015625)"/>
       <path id="TimesNewRomanPSMT-4d" d="M 2619 0 
L 981 3566 
L 981 734 
Q 981 344 1066 247 
Q 1181 116 1431 116 
L 1581 116 
L 1581 0 
L 106 0 
L 106 116 
L 256 116 
Q 525 116 638 278 
Q 706 378 706 734 
L 706 3503 
Q 706 3784 644 3909 
Q 600 4000 483 4061 
Q 366 4122 106 4122 
L 106 4238 
L 1306 4238 
L 2844 922 
L 4356 4238 
L 5556 4238 
L 5556 4122 
L 5409 4122 
Q 5138 4122 5025 3959 
Q 4956 3859 4956 3503 
L 4956 734 
Q 4956 344 5044 247 
Q 5159 116 5409 116 
L 5556 116 
L 5556 0 
L 3756 0 
L 3756 116 
L 3906 116 
Q 4178 116 4288 278 
Q 4356 378 4356 734 
L 4356 3566 
L 2722 0 
L 2619 0 
z
" transform="scale(0.015625)"/>
      </defs>
      <use xlink:href="#TimesNewRomanPSMT-52"/>
      <use xlink:href="#TimesNewRomanPSMT-49" x="66.699219"/>
      <use xlink:href="#TimesNewRomanPSMT-56" x="100"/>
      <use xlink:href="#TimesNewRomanPSMT-4d" x="172.216797"/>
     </g>
    </g>
   </g>
  </g>
  <g id="axes_2">
   <g id="patch_8">
    <path d="M 341.376667 185.1332 
L 530.563333 185.1332 
L 530.563333 10.8 
L 341.376667 10.8 
z
" style="fill: #ffffff"/>
   </g>
   <g id="patch_9">
    <path d="M 346.726357 177.208964 
L 349.535613 177.208964 
L 349.535613 156.664647 
L 346.726357 156.664647 
z
" clip-path="url(#p773f010250)" style="fill: #f0f8ff; stroke: #000000; stroke-width: 0.4; stroke-linejoin: miter"/>
   </g>
   <g id="patch_10">
    <path d="M 367.264062 59.812869 
L 381.056535 59.812869 
L 381.056535 39.268553 
L 367.264062 39.268553 
z
" clip-path="url(#p773f010250)" style="fill: #ffe4e1; stroke: #000000; stroke-width: 0.4; stroke-linejoin: miter"/>
   </g>
   <g id="patch_11">
    <path d="M 381.056535 59.812869 
L 389.870303 59.812869 
L 389.870303 39.268553 
L 381.056535 39.268553 
z
" clip-path="url(#p773f010250)" style="fill: #f5626e; stroke: #000000; stroke-width: 0.4; stroke-linejoin: miter"/>
   </g>
   <g id="matplotlib.axis_3">
    <g id="xtick_8">
     <g id="line2d_35">
      <path d="M 341.376667 185.1332 
L 341.376667 10.8 
" clip-path="url(#p773f010250)" style="fill: none; stroke: #b0b0b0; stroke-opacity: 0.4; stroke-width: 0.8; stroke-linecap: square"/>
     </g>
     <g id="line2d_36">
      <g>
       <use xlink:href="#m08e3cd637a" x="341.376667" y="185.1332" style="stroke: #000000; stroke-width: 0.8"/>
      </g>
     </g>
     <g id="text_20">
      <!-- 0 -->
      <g transform="translate(338.876667 199.07695) scale(0.1 -0.1)">
       <use xlink:href="#TimesNewRomanPSMT-30"/>
      </g>
     </g>
    </g>
    <g id="xtick_9">
     <g id="line2d_37">
      <path d="M 373.778577 185.1332 
L 373.778577 10.8 
" clip-path="url(#p773f010250)" style="fill: none; stroke: #b0b0b0; stroke-opacity: 0.4; stroke-width: 0.8; stroke-linecap: square"/>
     </g>
     <g id="line2d_38">
      <g>
       <use xlink:href="#m08e3cd637a" x="373.778577" y="185.1332" style="stroke: #000000; stroke-width: 0.8"/>
      </g>
     </g>
     <g id="text_21">
      <!-- 200 -->
      <g transform="translate(366.278577 199.07695) scale(0.1 -0.1)">
       <use xlink:href="#TimesNewRomanPSMT-32"/>
       <use xlink:href="#TimesNewRomanPSMT-30" x="50"/>
       <use xlink:href="#TimesNewRomanPSMT-30" x="100"/>
      </g>
     </g>
    </g>
    <g id="xtick_10">
     <g id="line2d_39">
      <path d="M 406.180488 185.1332 
L 406.180488 10.8 
" clip-path="url(#p773f010250)" style="fill: none; stroke: #b0b0b0; stroke-opacity: 0.4; stroke-width: 0.8; stroke-linecap: square"/>
     </g>
     <g id="line2d_40">
      <g>
       <use xlink:href="#m08e3cd637a" x="406.180488" y="185.1332" style="stroke: #000000; stroke-width: 0.8"/>
      </g>
     </g>
     <g id="text_22">
      <!-- 400 -->
      <g transform="translate(398.680488 199.07695) scale(0.1 -0.1)">
       <use xlink:href="#TimesNewRomanPSMT-34"/>
       <use xlink:href="#TimesNewRomanPSMT-30" x="50"/>
       <use xlink:href="#TimesNewRomanPSMT-30" x="100"/>
      </g>
     </g>
    </g>
    <g id="xtick_11">
     <g id="line2d_41">
      <path d="M 438.582398 185.1332 
L 438.582398 10.8 
" clip-path="url(#p773f010250)" style="fill: none; stroke: #b0b0b0; stroke-opacity: 0.4; stroke-width: 0.8; stroke-linecap: square"/>
     </g>
     <g id="line2d_42">
      <g>
       <use xlink:href="#m08e3cd637a" x="438.582398" y="185.1332" style="stroke: #000000; stroke-width: 0.8"/>
      </g>
     </g>
     <g id="text_23">
      <!-- 600 -->
      <g transform="translate(431.082398 199.07695) scale(0.1 -0.1)">
       <use xlink:href="#TimesNewRomanPSMT-36"/>
       <use xlink:href="#TimesNewRomanPSMT-30" x="50"/>
       <use xlink:href="#TimesNewRomanPSMT-30" x="100"/>
      </g>
     </g>
    </g>
    <g id="xtick_12">
     <g id="line2d_43">
      <path d="M 470.984309 185.1332 
L 470.984309 10.8 
" clip-path="url(#p773f010250)" style="fill: none; stroke: #b0b0b0; stroke-opacity: 0.4; stroke-width: 0.8; stroke-linecap: square"/>
     </g>
     <g id="line2d_44">
      <g>
       <use xlink:href="#m08e3cd637a" x="470.984309" y="185.1332" style="stroke: #000000; stroke-width: 0.8"/>
      </g>
     </g>
     <g id="text_24">
      <!-- 800 -->
      <g transform="translate(463.484309 199.07695) scale(0.1 -0.1)">
       <use xlink:href="#TimesNewRomanPSMT-38"/>
       <use xlink:href="#TimesNewRomanPSMT-30" x="50"/>
       <use xlink:href="#TimesNewRomanPSMT-30" x="100"/>
      </g>
     </g>
    </g>
    <g id="xtick_13">
     <g id="line2d_45">
      <path d="M 503.38622 185.1332 
L 503.38622 10.8 
" clip-path="url(#p773f010250)" style="fill: none; stroke: #b0b0b0; stroke-opacity: 0.4; stroke-width: 0.8; stroke-linecap: square"/>
     </g>
     <g id="line2d_46">
      <g>
       <use xlink:href="#m08e3cd637a" x="503.38622" y="185.1332" style="stroke: #000000; stroke-width: 0.8"/>
      </g>
     </g>
     <g id="text_25">
      <!-- 1000 -->
      <g transform="translate(493.38622 199.07695) scale(0.1 -0.1)">
       <use xlink:href="#TimesNewRomanPSMT-31"/>
       <use xlink:href="#TimesNewRomanPSMT-30" x="50"/>
       <use xlink:href="#TimesNewRomanPSMT-30" x="100"/>
       <use xlink:href="#TimesNewRomanPSMT-30" x="150"/>
      </g>
     </g>
    </g>
    <g id="text_26">
     <!-- IS Decomposition -->
     <g transform="translate(383.773375 215.215013) scale(0.144 -0.144)">
      <defs>
       <path id="TimesNewRomanPSMT-44" d="M 109 0 
L 109 116 
L 269 116 
Q 538 116 650 288 
Q 719 391 719 750 
L 719 3488 
Q 719 3884 631 3984 
Q 509 4122 269 4122 
L 109 4122 
L 109 4238 
L 1834 4238 
Q 2784 4238 3279 4022 
Q 3775 3806 4076 3303 
Q 4378 2800 4378 2141 
Q 4378 1256 3841 663 
Q 3238 0 2003 0 
L 109 0 
z
M 1319 306 
Q 1716 219 1984 219 
Q 2709 219 3187 728 
Q 3666 1238 3666 2109 
Q 3666 2988 3187 3494 
Q 2709 4000 1959 4000 
Q 1678 4000 1319 3909 
L 1319 306 
z
" transform="scale(0.015625)"/>
       <path id="TimesNewRomanPSMT-6d" d="M 1050 2338 
Q 1363 2650 1419 2697 
Q 1559 2816 1721 2881 
Q 1884 2947 2044 2947 
Q 2313 2947 2506 2790 
Q 2700 2634 2766 2338 
Q 3088 2713 3309 2830 
Q 3531 2947 3766 2947 
Q 3994 2947 4170 2830 
Q 4347 2713 4450 2447 
Q 4519 2266 4519 1878 
L 4519 647 
Q 4519 378 4559 278 
Q 4591 209 4675 161 
Q 4759 113 4950 113 
L 4950 0 
L 3538 0 
L 3538 113 
L 3597 113 
Q 3781 113 3884 184 
Q 3956 234 3988 344 
Q 4000 397 4000 647 
L 4000 1878 
Q 4000 2228 3916 2372 
Q 3794 2572 3525 2572 
Q 3359 2572 3192 2489 
Q 3025 2406 2788 2181 
L 2781 2147 
L 2788 2013 
L 2788 647 
Q 2788 353 2820 281 
Q 2853 209 2943 161 
Q 3034 113 3253 113 
L 3253 0 
L 1806 0 
L 1806 113 
Q 2044 113 2133 169 
Q 2222 225 2256 338 
Q 2272 391 2272 647 
L 2272 1878 
Q 2272 2228 2169 2381 
Q 2031 2581 1784 2581 
Q 1616 2581 1450 2491 
Q 1191 2353 1050 2181 
L 1050 647 
Q 1050 366 1089 281 
Q 1128 197 1204 155 
Q 1281 113 1516 113 
L 1516 0 
L 100 0 
L 100 113 
Q 297 113 375 155 
Q 453 197 493 289 
Q 534 381 534 647 
L 534 1741 
Q 534 2213 506 2350 
Q 484 2453 437 2492 
Q 391 2531 309 2531 
Q 222 2531 100 2484 
L 53 2597 
L 916 2947 
L 1050 2947 
L 1050 2338 
z
" transform="scale(0.015625)"/>
      </defs>
      <use xlink:href="#TimesNewRomanPSMT-49"/>
      <use xlink:href="#TimesNewRomanPSMT-53" x="33.300781"/>
      <use xlink:href="#TimesNewRomanPSMT-20" x="88.916016"/>
      <use xlink:href="#TimesNewRomanPSMT-44" x="113.916016"/>
      <use xlink:href="#TimesNewRomanPSMT-65" x="186.132812"/>
      <use xlink:href="#TimesNewRomanPSMT-63" x="230.517578"/>
      <use xlink:href="#TimesNewRomanPSMT-6f" x="274.902344"/>
      <use xlink:href="#TimesNewRomanPSMT-6d" x="324.902344"/>
      <use xlink:href="#TimesNewRomanPSMT-70" x="402.685547"/>
      <use xlink:href="#TimesNewRomanPSMT-6f" x="452.685547"/>
      <use xlink:href="#TimesNewRomanPSMT-73" x="502.685547"/>
      <use xlink:href="#TimesNewRomanPSMT-69" x="541.601562"/>
      <use xlink:href="#TimesNewRomanPSMT-74" x="569.384766"/>
      <use xlink:href="#TimesNewRomanPSMT-69" x="597.167969"/>
      <use xlink:href="#TimesNewRomanPSMT-6f" x="624.951172"/>
      <use xlink:href="#TimesNewRomanPSMT-6e" x="674.951172"/>
     </g>
    </g>
   </g>
   <g id="matplotlib.axis_4">
    <g id="ytick_8">
     <g id="line2d_47">
      <path d="M 341.376667 156.664647 
L 530.563333 156.664647 
" clip-path="url(#p773f010250)" style="fill: none; stroke: #b0b0b0; stroke-opacity: 0.4; stroke-width: 0.8; stroke-linecap: square"/>
     </g>
     <g id="line2d_48">
      <g>
       <use xlink:href="#m91c17e9d86" x="341.376667" y="156.664647" style="stroke: #000000; stroke-width: 0.8"/>
      </g>
     </g>
     <g id="text_27">
      <!-- Epinowcast -->
      <g transform="translate(267.191667 161.664147) scale(0.144 -0.144)">
       <use xlink:href="#TimesNewRomanPSMT-45"/>
       <use xlink:href="#TimesNewRomanPSMT-70" x="61.083984"/>
       <use xlink:href="#TimesNewRomanPSMT-69" x="111.083984"/>
       <use xlink:href="#TimesNewRomanPSMT-6e" x="138.867188"/>
       <use xlink:href="#TimesNewRomanPSMT-6f" x="188.867188"/>
       <use xlink:href="#TimesNewRomanPSMT-77" x="238.867188"/>
       <use xlink:href="#TimesNewRomanPSMT-63" x="311.083984"/>
       <use xlink:href="#TimesNewRomanPSMT-61" x="355.46875"/>
       <use xlink:href="#TimesNewRomanPSMT-73" x="399.853516"/>
       <use xlink:href="#TimesNewRomanPSMT-74" x="438.769531"/>
      </g>
     </g>
    </g>
    <g id="ytick_9">
     <g id="line2d_49">
      <path d="M 341.376667 97.9666 
L 530.563333 97.9666 
" clip-path="url(#p773f010250)" style="fill: none; stroke: #b0b0b0; stroke-opacity: 0.4; stroke-width: 0.8; stroke-linecap: square"/>
     </g>
     <g id="line2d_50">
      <g>
       <use xlink:href="#m91c17e9d86" x="341.376667" y="97.9666" style="stroke: #000000; stroke-width: 0.8"/>
      </g>
     </g>
     <g id="text_28">
      <!-- RIVM -->
      <g transform="translate(296.772417 102.9661) scale(0.144 -0.144)">
       <use xlink:href="#TimesNewRomanPSMT-52"/>
       <use xlink:href="#TimesNewRomanPSMT-49" x="66.699219"/>
       <use xlink:href="#TimesNewRomanPSMT-56" x="100"/>
       <use xlink:href="#TimesNewRomanPSMT-4d" x="172.216797"/>
      </g>
     </g>
    </g>
    <g id="ytick_10">
     <g id="line2d_51">
      <path d="M 341.376667 39.268553 
L 530.563333 39.268553 
" clip-path="url(#p773f010250)" style="fill: none; stroke: #b0b0b0; stroke-opacity: 0.4; stroke-width: 0.8; stroke-linecap: square"/>
     </g>
     <g id="line2d_52">
      <g>
       <use xlink:href="#m91c17e9d86" x="341.376667" y="39.268553" style="stroke: #000000; stroke-width: 0.8"/>
      </g>
     </g>
     <g id="text_29">
      <!-- NowcastPNN -->
      <g transform="translate(255.181167 44.268053) scale(0.144 -0.144)">
       <use xlink:href="#TimesNewRomanPSMT-4e"/>
       <use xlink:href="#TimesNewRomanPSMT-6f" x="72.216797"/>
       <use xlink:href="#TimesNewRomanPSMT-77" x="122.216797"/>
       <use xlink:href="#TimesNewRomanPSMT-63" x="194.433594"/>
       <use xlink:href="#TimesNewRomanPSMT-61" x="238.818359"/>
       <use xlink:href="#TimesNewRomanPSMT-73" x="283.203125"/>
       <use xlink:href="#TimesNewRomanPSMT-74" x="322.119141"/>
       <use xlink:href="#TimesNewRomanPSMT-50" x="349.902344"/>
       <use xlink:href="#TimesNewRomanPSMT-4e" x="405.517578"/>
       <use xlink:href="#TimesNewRomanPSMT-4e" x="477.734375"/>
      </g>
     </g>
    </g>
   </g>
   <g id="patch_12">
    <path d="M 341.376667 185.1332 
L 341.376667 10.8 
" style="fill: none; stroke: #000000; stroke-width: 0.8; stroke-linejoin: miter; stroke-linecap: square"/>
   </g>
   <g id="patch_13">
    <path d="M 530.563333 185.1332 
L 530.563333 10.8 
" style="fill: none; stroke: #000000; stroke-width: 0.8; stroke-linejoin: miter; stroke-linecap: square"/>
   </g>
   <g id="patch_14">
    <path d="M 341.376667 185.1332 
L 530.563333 185.1332 
" style="fill: none; stroke: #000000; stroke-width: 0.8; stroke-linejoin: miter; stroke-linecap: square"/>
   </g>
   <g id="patch_15">
    <path d="M 341.376667 10.8 
L 530.563333 10.8 
" style="fill: none; stroke: #000000; stroke-width: 0.8; stroke-linejoin: miter; stroke-linecap: square"/>
   </g>
   <g id="patch_16">
    <path d="M 341.376667 156.664647 
L 356.223473 156.664647 
L 356.223473 136.120331 
L 341.376667 136.120331 
z
" clip-path="url(#p773f010250)" style="fill: #1e90ff; stroke: #000000; stroke-width: 0.4; stroke-linejoin: miter"/>
   </g>
   <g id="patch_17">
    <path d="M 356.223473 156.664647 
L 462.791697 156.664647 
L 462.791697 136.120331 
L 356.223473 136.120331 
z
" clip-path="url(#p773f010250)" style="fill: #f0f8ff; stroke: #000000; stroke-width: 0.4; stroke-linejoin: miter"/>
   </g>
   <g id="patch_18">
    <path d="M 462.791697 156.664647 
L 521.554444 156.664647 
L 521.554444 136.120331 
L 462.791697 136.120331 
z
" clip-path="url(#p773f010250)" style="fill: #00bfff; stroke: #000000; stroke-width: 0.4; stroke-linejoin: miter"/>
   </g>
   <g id="patch_19">
    <path d="M 341.376667 97.9666 
L 389.78842 97.9666 
L 389.78842 77.422284 
L 341.376667 77.422284 
z
" clip-path="url(#p773f010250)" style="stroke: #000000; stroke-width: 0.4; stroke-linejoin: miter"/>
   </g>
   <g id="patch_20">
    <path d="M 389.78842 97.9666 
L 477.50323 97.9666 
L 477.50323 77.422284 
L 389.78842 77.422284 
z
" clip-path="url(#p773f010250)" style="fill: #dcdcdc; stroke: #000000; stroke-width: 0.4; stroke-linejoin: miter"/>
   </g>
   <g id="patch_21">
    <path d="M 477.50323 97.9666 
L 499.232726 97.9666 
L 499.232726 77.422284 
L 477.50323 77.422284 
z
" clip-path="url(#p773f010250)" style="fill: #808080; stroke: #000000; stroke-width: 0.4; stroke-linejoin: miter"/>
   </g>
   <g id="patch_22">
    <path d="M 341.376667 39.268553 
L 360.700986 39.268553 
L 360.700986 18.724236 
L 341.376667 18.724236 
z
" clip-path="url(#p773f010250)" style="fill: #dc143c; stroke: #000000; stroke-width: 0.4; stroke-linejoin: miter"/>
   </g>
   <g id="patch_23">
    <path d="M 360.700986 39.268553 
L 438.038056 39.268553 
L 438.038056 18.724236 
L 360.700986 18.724236 
z
" clip-path="url(#p773f010250)" style="fill: #ffe4e1; stroke: #000000; stroke-width: 0.4; stroke-linejoin: miter"/>
   </g>
   <g id="patch_24">
    <path d="M 438.038056 39.268553 
L 453.732902 39.268553 
L 453.732902 18.724236 
L 438.038056 18.724236 
z
" clip-path="url(#p773f010250)" style="fill: #f5626e; stroke: #000000; stroke-width: 0.4; stroke-linejoin: miter"/>
   </g>
   <g id="patch_25">
    <path d="M 341.376667 177.208964 
L 346.726357 177.208964 
L 346.726357 156.664647 
L 341.376667 156.664647 
z
" clip-path="url(#p773f010250)" style="fill: #1e90ff; stroke: #000000; stroke-width: 0.4; stroke-linejoin: miter"/>
   </g>
   <g id="patch_26">
    <path d="M 349.535613 177.208964 
L 352.193062 177.208964 
L 352.193062 156.664647 
L 349.535613 156.664647 
z
" clip-path="url(#p773f010250)" style="fill: #00bfff; stroke: #000000; stroke-width: 0.5; stroke-linejoin: miter"/>
   </g>
   <g id="patch_27">
    <path d="M 341.376667 118.510916 
L 373.781079 118.510916 
L 373.781079 97.9666 
L 341.376667 97.9666 
z
" clip-path="url(#p773f010250)" style="stroke: #000000; stroke-width: 0.4; stroke-linejoin: miter"/>
   </g>
   <g id="patch_28">
    <path d="M 373.781079 118.510916 
L 375.819428 118.510916 
L 375.819428 97.9666 
L 373.781079 97.9666 
z
" clip-path="url(#p773f010250)" style="fill: #dcdcdc; stroke: #000000; stroke-width: 0.4; stroke-linejoin: miter"/>
   </g>
   <g id="patch_29">
    <path d="M 375.819428 118.510916 
L 377.188148 118.510916 
L 377.188148 97.9666 
L 375.819428 97.9666 
z
" clip-path="url(#p773f010250)" style="fill: #808080; stroke: #000000; stroke-width: 0.4; stroke-linejoin: miter"/>
   </g>
   <g id="patch_30">
    <path d="M 341.376667 59.812869 
L 367.264062 59.812869 
L 367.264062 39.268553 
L 341.376667 39.268553 
z
" clip-path="url(#p773f010250)" style="fill: #dc143c; stroke: #000000; stroke-width: 0.4; stroke-linejoin: miter"/>
   </g>
   <g id="text_30">
    <g id="patch_31">
     <path d="M 472.282461 36.971713 
L 510.681401 36.971713 
L 510.681401 21.870151 
L 472.282461 21.870151 
L 472.282461 18.09476 
L 460.956289 29.420932 
L 472.282461 40.747104 
L 472.282461 36.971713 
z
" style="fill: #dcdcdc; opacity: 0.7; stroke: #000000; stroke-width: 0.1; stroke-linejoin: miter"/>
    </g>
    <!-- same-day -->
    <g transform="translate(469.364213 31.813901) scale(0.1 -0.1)">
     <defs>
      <path id="TimesNewRomanPSMT-2d" d="M 259 1672 
L 1875 1672 
L 1875 1200 
L 259 1200 
L 259 1672 
z
" transform="scale(0.015625)"/>
     </defs>
     <use xlink:href="#TimesNewRomanPSMT-73"/>
     <use xlink:href="#TimesNewRomanPSMT-61" x="38.916016"/>
     <use xlink:href="#TimesNewRomanPSMT-6d" x="83.300781"/>
     <use xlink:href="#TimesNewRomanPSMT-65" x="161.083984"/>
     <use xlink:href="#TimesNewRomanPSMT-2d" x="205.46875"/>
     <use xlink:href="#TimesNewRomanPSMT-64" x="238.769531"/>
     <use xlink:href="#TimesNewRomanPSMT-61" x="288.769531"/>
     <use xlink:href="#TimesNewRomanPSMT-79" x="333.154297"/>
    </g>
   </g>
   <g id="text_31">
    <g id="patch_32">
     <path d="M 407.473953 58.495147 
L 452.560392 58.495147 
L 452.560392 43.412334 
L 407.473953 43.412334 
L 407.473953 39.641631 
L 396.161843 50.95374 
L 407.473953 62.26585 
L 407.473953 58.495147 
z
" style="fill: #dcdcdc; opacity: 0.7; stroke: #000000; stroke-width: 0.1; stroke-linejoin: miter"/>
    </g>
    <!-- 13 fut. obs. -->
    <g transform="translate(404.560392 53.356084) scale(0.1 -0.1)">
     <defs>
      <path id="TimesNewRomanPSMT-33" d="M 325 3431 
Q 506 3859 782 4092 
Q 1059 4325 1472 4325 
Q 1981 4325 2253 3994 
Q 2459 3747 2459 3466 
Q 2459 3003 1878 2509 
Q 2269 2356 2469 2072 
Q 2669 1788 2669 1403 
Q 2669 853 2319 450 
Q 1863 -75 997 -75 
Q 569 -75 414 31 
Q 259 138 259 259 
Q 259 350 332 419 
Q 406 488 509 488 
Q 588 488 669 463 
Q 722 447 909 348 
Q 1097 250 1169 231 
Q 1284 197 1416 197 
Q 1734 197 1970 444 
Q 2206 691 2206 1028 
Q 2206 1275 2097 1509 
Q 2016 1684 1919 1775 
Q 1784 1900 1550 2001 
Q 1316 2103 1072 2103 
L 972 2103 
L 972 2197 
Q 1219 2228 1467 2375 
Q 1716 2522 1828 2728 
Q 1941 2934 1941 3181 
Q 1941 3503 1739 3701 
Q 1538 3900 1238 3900 
Q 753 3900 428 3381 
L 325 3431 
z
" transform="scale(0.015625)"/>
      <path id="TimesNewRomanPSMT-66" d="M 1319 2638 
L 1319 756 
Q 1319 356 1406 250 
Q 1522 113 1716 113 
L 1975 113 
L 1975 0 
L 266 0 
L 266 113 
L 394 113 
Q 519 113 622 175 
Q 725 238 764 344 
Q 803 450 803 756 
L 803 2638 
L 247 2638 
L 247 2863 
L 803 2863 
L 803 3050 
Q 803 3478 940 3775 
Q 1078 4072 1361 4255 
Q 1644 4438 1997 4438 
Q 2325 4438 2600 4225 
Q 2781 4084 2781 3909 
Q 2781 3816 2700 3733 
Q 2619 3650 2525 3650 
Q 2453 3650 2373 3701 
Q 2294 3753 2178 3923 
Q 2063 4094 1966 4153 
Q 1869 4213 1750 4213 
Q 1606 4213 1506 4136 
Q 1406 4059 1362 3898 
Q 1319 3738 1319 3069 
L 1319 2863 
L 2056 2863 
L 2056 2638 
L 1319 2638 
z
" transform="scale(0.015625)"/>
      <path id="TimesNewRomanPSMT-2e" d="M 800 606 
Q 947 606 1047 504 
Q 1147 403 1147 259 
Q 1147 116 1045 14 
Q 944 -88 800 -88 
Q 656 -88 554 14 
Q 453 116 453 259 
Q 453 406 554 506 
Q 656 606 800 606 
z
" transform="scale(0.015625)"/>
     </defs>
     <use xlink:href="#TimesNewRomanPSMT-31"/>
     <use xlink:href="#TimesNewRomanPSMT-33" x="50"/>
     <use xlink:href="#TimesNewRomanPSMT-20" x="100"/>
     <use xlink:href="#TimesNewRomanPSMT-66" x="125"/>
     <use xlink:href="#TimesNewRomanPSMT-75" x="158.300781"/>
     <use xlink:href="#TimesNewRomanPSMT-74" x="208.300781"/>
     <use xlink:href="#TimesNewRomanPSMT-2e" x="236.083984"/>
     <use xlink:href="#TimesNewRomanPSMT-20" x="261.083984"/>
     <use xlink:href="#TimesNewRomanPSMT-6f" x="286.083984"/>
     <use xlink:href="#TimesNewRomanPSMT-62" x="336.083984"/>
     <use xlink:href="#TimesNewRomanPSMT-73" x="386.083984"/>
     <use xlink:href="#TimesNewRomanPSMT-2e" x="425"/>
    </g>
   </g>
   <g id="legend_2">
    <g id="patch_33">
     <path d="M 317.32625 230.769844 
L 337.32625 230.769844 
L 337.32625 223.769844 
L 317.32625 223.769844 
z
" style="stroke: #000000; stroke-width: 0.4; stroke-linejoin: miter"/>
    </g>
    <g id="text_32">
     <!-- Underpred. -->
     <g transform="translate(345.32625 230.769844) scale(0.1 -0.1)">
      <defs>
       <path id="TimesNewRomanPSMT-55" d="M 3053 4122 
L 3053 4238 
L 4553 4238 
L 4553 4122 
L 4394 4122 
Q 4144 4122 4009 3913 
Q 3944 3816 3944 3463 
L 3944 1744 
Q 3944 1106 3817 754 
Q 3691 403 3320 151 
Q 2950 -100 2313 -100 
Q 1619 -100 1259 140 
Q 900 381 750 788 
Q 650 1066 650 1831 
L 650 3488 
Q 650 3878 542 4000 
Q 434 4122 194 4122 
L 34 4122 
L 34 4238 
L 1866 4238 
L 1866 4122 
L 1703 4122 
Q 1441 4122 1328 3956 
Q 1250 3844 1250 3488 
L 1250 1641 
Q 1250 1394 1295 1075 
Q 1341 756 1459 578 
Q 1578 400 1801 284 
Q 2025 169 2350 169 
Q 2766 169 3094 350 
Q 3422 531 3542 814 
Q 3663 1097 3663 1772 
L 3663 3488 
Q 3663 3884 3575 3984 
Q 3453 4122 3213 4122 
L 3053 4122 
z
" transform="scale(0.015625)"/>
      </defs>
      <use xlink:href="#TimesNewRomanPSMT-55"/>
      <use xlink:href="#TimesNewRomanPSMT-6e" x="72.216797"/>
      <use xlink:href="#TimesNewRomanPSMT-64" x="122.216797"/>
      <use xlink:href="#TimesNewRomanPSMT-65" x="172.216797"/>
      <use xlink:href="#TimesNewRomanPSMT-72" x="216.601562"/>
      <use xlink:href="#TimesNewRomanPSMT-70" x="249.902344"/>
      <use xlink:href="#TimesNewRomanPSMT-72" x="299.902344"/>
      <use xlink:href="#TimesNewRomanPSMT-65" x="333.203125"/>
      <use xlink:href="#TimesNewRomanPSMT-64" x="377.587891"/>
      <use xlink:href="#TimesNewRomanPSMT-2e" x="427.587891"/>
     </g>
    </g>
    <g id="patch_34">
     <path d="M 410.585625 230.769844 
L 430.585625 230.769844 
L 430.585625 223.769844 
L 410.585625 223.769844 
z
" style="fill: #dcdcdc; stroke: #000000; stroke-width: 0.4; stroke-linejoin: miter"/>
    </g>
    <g id="text_33">
     <!-- Spread -->
     <g transform="translate(438.585625 230.769844) scale(0.1 -0.1)">
      <use xlink:href="#TimesNewRomanPSMT-53"/>
      <use xlink:href="#TimesNewRomanPSMT-70" x="55.615234"/>
      <use xlink:href="#TimesNewRomanPSMT-72" x="105.615234"/>
      <use xlink:href="#TimesNewRomanPSMT-65" x="138.916016"/>
      <use xlink:href="#TimesNewRomanPSMT-61" x="183.300781"/>
      <use xlink:href="#TimesNewRomanPSMT-64" x="227.685547"/>
     </g>
    </g>
    <g id="patch_35">
     <path d="M 486.354375 230.769844 
L 506.354375 230.769844 
L 506.354375 223.769844 
L 486.354375 223.769844 
z
" style="fill: #808080; stroke: #000000; stroke-width: 0.4; stroke-linejoin: miter"/>
    </g>
    <g id="text_34">
     <!-- Overpred. -->
     <g transform="translate(514.354375 230.769844) scale(0.1 -0.1)">
      <defs>
       <path id="TimesNewRomanPSMT-4f" d="M 2341 4334 
Q 3166 4334 3770 3707 
Q 4375 3081 4375 2144 
Q 4375 1178 3765 540 
Q 3156 -97 2291 -97 
Q 1416 -97 820 525 
Q 225 1147 225 2134 
Q 225 3144 913 3781 
Q 1509 4334 2341 4334 
z
M 2281 4106 
Q 1713 4106 1369 3684 
Q 941 3159 941 2147 
Q 941 1109 1384 550 
Q 1725 125 2284 125 
Q 2881 125 3270 590 
Q 3659 1056 3659 2059 
Q 3659 3147 3231 3681 
Q 2888 4106 2281 4106 
z
" transform="scale(0.015625)"/>
      </defs>
      <use xlink:href="#TimesNewRomanPSMT-4f"/>
      <use xlink:href="#TimesNewRomanPSMT-76" x="72.216797"/>
      <use xlink:href="#TimesNewRomanPSMT-65" x="122.216797"/>
      <use xlink:href="#TimesNewRomanPSMT-72" x="166.601562"/>
      <use xlink:href="#TimesNewRomanPSMT-70" x="199.902344"/>
      <use xlink:href="#TimesNewRomanPSMT-72" x="249.902344"/>
      <use xlink:href="#TimesNewRomanPSMT-65" x="283.203125"/>
      <use xlink:href="#TimesNewRomanPSMT-64" x="327.587891"/>
      <use xlink:href="#TimesNewRomanPSMT-2e" x="377.587891"/>
     </g>
    </g>
   </g>
  </g>
  <g id="axes_3">
   <g id="patch_36">
    <path d="M 628.013333 185.1332 
L 817.2 185.1332 
L 817.2 10.8 
L 628.013333 10.8 
z
" style="fill: #ffffff"/>
   </g>
   <g id="matplotlib.axis_5">
    <g id="xtick_14">
     <g id="line2d_53">
      <path d="M 636.612727 185.1332 
L 636.612727 10.8 
" clip-path="url(#p4c172d9775)" style="fill: none; stroke: #b0b0b0; stroke-opacity: 0.2; stroke-width: 0.8; stroke-linecap: square"/>
     </g>
     <g id="line2d_54">
      <g>
       <use xlink:href="#m08e3cd637a" x="636.612727" y="185.1332" style="stroke: #000000; stroke-width: 0.8"/>
      </g>
     </g>
     <g id="text_35">
      <!-- 0 -->
      <g transform="translate(634.112727 199.07695) scale(0.1 -0.1)">
       <use xlink:href="#TimesNewRomanPSMT-30"/>
      </g>
     </g>
    </g>
    <g id="xtick_15">
     <g id="line2d_55">
      <path d="M 663.072401 185.1332 
L 663.072401 10.8 
" clip-path="url(#p4c172d9775)" style="fill: none; stroke: #b0b0b0; stroke-opacity: 0.2; stroke-width: 0.8; stroke-linecap: square"/>
     </g>
     <g id="line2d_56">
      <g>
       <use xlink:href="#m08e3cd637a" x="663.072401" y="185.1332" style="stroke: #000000; stroke-width: 0.8"/>
      </g>
     </g>
     <g id="text_36">
      <!-- 2 -->
      <g transform="translate(660.572401 199.07695) scale(0.1 -0.1)">
       <use xlink:href="#TimesNewRomanPSMT-32"/>
      </g>
     </g>
    </g>
    <g id="xtick_16">
     <g id="line2d_57">
      <path d="M 689.532075 185.1332 
L 689.532075 10.8 
" clip-path="url(#p4c172d9775)" style="fill: none; stroke: #b0b0b0; stroke-opacity: 0.2; stroke-width: 0.8; stroke-linecap: square"/>
     </g>
     <g id="line2d_58">
      <g>
       <use xlink:href="#m08e3cd637a" x="689.532075" y="185.1332" style="stroke: #000000; stroke-width: 0.8"/>
      </g>
     </g>
     <g id="text_37">
      <!-- 4 -->
      <g transform="translate(687.032075 199.07695) scale(0.1 -0.1)">
       <use xlink:href="#TimesNewRomanPSMT-34"/>
      </g>
     </g>
    </g>
    <g id="xtick_17">
     <g id="line2d_59">
      <path d="M 715.991748 185.1332 
L 715.991748 10.8 
" clip-path="url(#p4c172d9775)" style="fill: none; stroke: #b0b0b0; stroke-opacity: 0.2; stroke-width: 0.8; stroke-linecap: square"/>
     </g>
     <g id="line2d_60">
      <g>
       <use xlink:href="#m08e3cd637a" x="715.991748" y="185.1332" style="stroke: #000000; stroke-width: 0.8"/>
      </g>
     </g>
     <g id="text_38">
      <!-- 6 -->
      <g transform="translate(713.491748 199.07695) scale(0.1 -0.1)">
       <use xlink:href="#TimesNewRomanPSMT-36"/>
      </g>
     </g>
    </g>
    <g id="xtick_18">
     <g id="line2d_61">
      <path d="M 742.451422 185.1332 
L 742.451422 10.8 
" clip-path="url(#p4c172d9775)" style="fill: none; stroke: #b0b0b0; stroke-opacity: 0.2; stroke-width: 0.8; stroke-linecap: square"/>
     </g>
     <g id="line2d_62">
      <g>
       <use xlink:href="#m08e3cd637a" x="742.451422" y="185.1332" style="stroke: #000000; stroke-width: 0.8"/>
      </g>
     </g>
     <g id="text_39">
      <!-- 8 -->
      <g transform="translate(739.951422 199.07695) scale(0.1 -0.1)">
       <use xlink:href="#TimesNewRomanPSMT-38"/>
      </g>
     </g>
    </g>
    <g id="xtick_19">
     <g id="line2d_63">
      <path d="M 768.911096 185.1332 
L 768.911096 10.8 
" clip-path="url(#p4c172d9775)" style="fill: none; stroke: #b0b0b0; stroke-opacity: 0.2; stroke-width: 0.8; stroke-linecap: square"/>
     </g>
     <g id="line2d_64">
      <g>
       <use xlink:href="#m08e3cd637a" x="768.911096" y="185.1332" style="stroke: #000000; stroke-width: 0.8"/>
      </g>
     </g>
     <g id="text_40">
      <!-- 10 -->
      <g transform="translate(763.911096 199.07695) scale(0.1 -0.1)">
       <use xlink:href="#TimesNewRomanPSMT-31"/>
       <use xlink:href="#TimesNewRomanPSMT-30" x="50"/>
      </g>
     </g>
    </g>
    <g id="xtick_20">
     <g id="line2d_65">
      <path d="M 795.370769 185.1332 
L 795.370769 10.8 
" clip-path="url(#p4c172d9775)" style="fill: none; stroke: #b0b0b0; stroke-opacity: 0.2; stroke-width: 0.8; stroke-linecap: square"/>
     </g>
     <g id="line2d_66">
      <g>
       <use xlink:href="#m08e3cd637a" x="795.370769" y="185.1332" style="stroke: #000000; stroke-width: 0.8"/>
      </g>
     </g>
     <g id="text_41">
      <!-- 12 -->
      <g transform="translate(790.370769 199.07695) scale(0.1 -0.1)">
       <use xlink:href="#TimesNewRomanPSMT-31"/>
       <use xlink:href="#TimesNewRomanPSMT-32" x="50"/>
      </g>
     </g>
    </g>
    <g id="text_42">
     <!-- Future observations (days) -->
     <g transform="translate(645.820917 215.215013) scale(0.144 -0.144)">
      <use xlink:href="#TimesNewRomanPSMT-46"/>
      <use xlink:href="#TimesNewRomanPSMT-75" x="55.615234"/>
      <use xlink:href="#TimesNewRomanPSMT-74" x="105.615234"/>
      <use xlink:href="#TimesNewRomanPSMT-75" x="133.398438"/>
      <use xlink:href="#TimesNewRomanPSMT-72" x="183.398438"/>
      <use xlink:href="#TimesNewRomanPSMT-65" x="216.699219"/>
      <use xlink:href="#TimesNewRomanPSMT-20" x="261.083984"/>
      <use xlink:href="#TimesNewRomanPSMT-6f" x="286.083984"/>
      <use xlink:href="#TimesNewRomanPSMT-62" x="336.083984"/>
      <use xlink:href="#TimesNewRomanPSMT-73" x="386.083984"/>
      <use xlink:href="#TimesNewRomanPSMT-65" x="425"/>
      <use xlink:href="#TimesNewRomanPSMT-72" x="469.384766"/>
      <use xlink:href="#TimesNewRomanPSMT-76" x="502.685547"/>
      <use xlink:href="#TimesNewRomanPSMT-61" x="552.685547"/>
      <use xlink:href="#TimesNewRomanPSMT-74" x="597.070312"/>
      <use xlink:href="#TimesNewRomanPSMT-69" x="624.853516"/>
      <use xlink:href="#TimesNewRomanPSMT-6f" x="652.636719"/>
      <use xlink:href="#TimesNewRomanPSMT-6e" x="702.636719"/>
      <use xlink:href="#TimesNewRomanPSMT-73" x="752.636719"/>
      <use xlink:href="#TimesNewRomanPSMT-20" x="791.552734"/>
      <use xlink:href="#TimesNewRomanPSMT-28" x="816.552734"/>
      <use xlink:href="#TimesNewRomanPSMT-64" x="849.853516"/>
      <use xlink:href="#TimesNewRomanPSMT-61" x="899.853516"/>
      <use xlink:href="#TimesNewRomanPSMT-79" x="944.238281"/>
      <use xlink:href="#TimesNewRomanPSMT-73" x="994.238281"/>
      <use xlink:href="#TimesNewRomanPSMT-29" x="1033.154297"/>
     </g>
    </g>
   </g>
   <g id="matplotlib.axis_6">
    <g id="ytick_11">
     <g id="line2d_67">
      <path d="M 628.013333 183.865989 
L 817.2 183.865989 
" clip-path="url(#p4c172d9775)" style="fill: none; stroke: #b0b0b0; stroke-opacity: 0.2; stroke-width: 0.8; stroke-linecap: square"/>
     </g>
     <g id="line2d_68">
      <g>
       <use xlink:href="#m91c17e9d86" x="628.013333" y="183.865989" style="stroke: #000000; stroke-width: 0.8"/>
      </g>
     </g>
     <g id="text_43">
      <!-- 0 -->
      <g transform="translate(616.013333 187.337864) scale(0.1 -0.1)">
       <use xlink:href="#TimesNewRomanPSMT-30"/>
      </g>
     </g>
    </g>
    <g id="ytick_12">
     <g id="line2d_69">
      <path d="M 628.013333 154.475364 
L 817.2 154.475364 
" clip-path="url(#p4c172d9775)" style="fill: none; stroke: #b0b0b0; stroke-opacity: 0.2; stroke-width: 0.8; stroke-linecap: square"/>
     </g>
     <g id="line2d_70">
      <g>
       <use xlink:href="#m91c17e9d86" x="628.013333" y="154.475364" style="stroke: #000000; stroke-width: 0.8"/>
      </g>
     </g>
     <g id="text_44">
      <!-- 100 -->
      <g transform="translate(606.013333 157.947239) scale(0.1 -0.1)">
       <use xlink:href="#TimesNewRomanPSMT-31"/>
       <use xlink:href="#TimesNewRomanPSMT-30" x="50"/>
       <use xlink:href="#TimesNewRomanPSMT-30" x="100"/>
      </g>
     </g>
    </g>
    <g id="ytick_13">
     <g id="line2d_71">
      <path d="M 628.013333 125.084738 
L 817.2 125.084738 
" clip-path="url(#p4c172d9775)" style="fill: none; stroke: #b0b0b0; stroke-opacity: 0.2; stroke-width: 0.8; stroke-linecap: square"/>
     </g>
     <g id="line2d_72">
      <g>
       <use xlink:href="#m91c17e9d86" x="628.013333" y="125.084738" style="stroke: #000000; stroke-width: 0.8"/>
      </g>
     </g>
     <g id="text_45">
      <!-- 200 -->
      <g transform="translate(606.013333 128.556613) scale(0.1 -0.1)">
       <use xlink:href="#TimesNewRomanPSMT-32"/>
       <use xlink:href="#TimesNewRomanPSMT-30" x="50"/>
       <use xlink:href="#TimesNewRomanPSMT-30" x="100"/>
      </g>
     </g>
    </g>
    <g id="ytick_14">
     <g id="line2d_73">
      <path d="M 628.013333 95.694112 
L 817.2 95.694112 
" clip-path="url(#p4c172d9775)" style="fill: none; stroke: #b0b0b0; stroke-opacity: 0.2; stroke-width: 0.8; stroke-linecap: square"/>
     </g>
     <g id="line2d_74">
      <g>
       <use xlink:href="#m91c17e9d86" x="628.013333" y="95.694112" style="stroke: #000000; stroke-width: 0.8"/>
      </g>
     </g>
     <g id="text_46">
      <!-- 300 -->
      <g transform="translate(606.013333 99.165987) scale(0.1 -0.1)">
       <use xlink:href="#TimesNewRomanPSMT-33"/>
       <use xlink:href="#TimesNewRomanPSMT-30" x="50"/>
       <use xlink:href="#TimesNewRomanPSMT-30" x="100"/>
      </g>
     </g>
    </g>
    <g id="ytick_15">
     <g id="line2d_75">
      <path d="M 628.013333 66.303486 
L 817.2 66.303486 
" clip-path="url(#p4c172d9775)" style="fill: none; stroke: #b0b0b0; stroke-opacity: 0.2; stroke-width: 0.8; stroke-linecap: square"/>
     </g>
     <g id="line2d_76">
      <g>
       <use xlink:href="#m91c17e9d86" x="628.013333" y="66.303486" style="stroke: #000000; stroke-width: 0.8"/>
      </g>
     </g>
     <g id="text_47">
      <!-- 400 -->
      <g transform="translate(606.013333 69.775361) scale(0.1 -0.1)">
       <use xlink:href="#TimesNewRomanPSMT-34"/>
       <use xlink:href="#TimesNewRomanPSMT-30" x="50"/>
       <use xlink:href="#TimesNewRomanPSMT-30" x="100"/>
      </g>
     </g>
    </g>
    <g id="ytick_16">
     <g id="line2d_77">
      <path d="M 628.013333 36.912861 
L 817.2 36.912861 
" clip-path="url(#p4c172d9775)" style="fill: none; stroke: #b0b0b0; stroke-opacity: 0.2; stroke-width: 0.8; stroke-linecap: square"/>
     </g>
     <g id="line2d_78">
      <g>
       <use xlink:href="#m91c17e9d86" x="628.013333" y="36.912861" style="stroke: #000000; stroke-width: 0.8"/>
      </g>
     </g>
     <g id="text_48">
      <!-- 500 -->
      <g transform="translate(606.013333 40.384736) scale(0.1 -0.1)">
       <use xlink:href="#TimesNewRomanPSMT-35"/>
       <use xlink:href="#TimesNewRomanPSMT-30" x="50"/>
       <use xlink:href="#TimesNewRomanPSMT-30" x="100"/>
      </g>
     </g>
    </g>
    <g id="text_49">
     <!-- WIS -->
     <g transform="translate(598.933083 111.163975) rotate(-90) scale(0.144 -0.144)">
      <defs>
       <path id="TimesNewRomanPSMT-57" d="M 5991 4238 
L 5991 4122 
Q 5825 4122 5722 4062 
Q 5619 4003 5525 3841 
Q 5463 3731 5328 3319 
L 4147 -97 
L 4022 -97 
L 3056 2613 
L 2097 -97 
L 1984 -97 
L 725 3422 
Q 584 3816 547 3888 
Q 484 4006 376 4064 
Q 269 4122 84 4122 
L 84 4238 
L 1653 4238 
L 1653 4122 
L 1578 4122 
Q 1413 4122 1325 4047 
Q 1238 3972 1238 3866 
Q 1238 3756 1375 3363 
L 2209 984 
L 2913 3006 
L 2788 3363 
L 2688 3647 
Q 2622 3803 2541 3922 
Q 2500 3981 2441 4022 
Q 2363 4078 2284 4103 
Q 2225 4122 2097 4122 
L 2097 4238 
L 3747 4238 
L 3747 4122 
L 3634 4122 
Q 3459 4122 3378 4047 
Q 3297 3972 3297 3844 
Q 3297 3684 3438 3288 
L 4250 984 
L 5056 3319 
Q 5194 3706 5194 3856 
Q 5194 3928 5148 3990 
Q 5103 4053 5034 4078 
Q 4916 4122 4725 4122 
L 4725 4238 
L 5991 4238 
z
" transform="scale(0.015625)"/>
      </defs>
      <use xlink:href="#TimesNewRomanPSMT-57"/>
      <use xlink:href="#TimesNewRomanPSMT-49" x="94.384766"/>
      <use xlink:href="#TimesNewRomanPSMT-53" x="127.685547"/>
     </g>
    </g>
   </g>
   <g id="line2d_79">
    <path d="M 636.612727 117.814591 
L 649.842564 124.093349 
L 663.072401 133.218801 
L 676.302238 134.929749 
L 689.532075 137.443599 
L 702.761911 142.504563 
L 715.991748 147.065884 
L 729.221585 152.338555 
L 742.451422 153.419055 
L 755.681259 153.643683 
L 768.911096 137.121344 
L 782.140932 155.035349 
L 795.370769 152.005314 
L 808.600606 153.896793 
" clip-path="url(#p4c172d9775)" style="fill: none; stroke: #dc143c; stroke-width: 1.5; stroke-linecap: square"/>
    <g clip-path="url(#p4c172d9775)">
     <use xlink:href="#m65422178ae" x="636.612727" y="117.814591" style="fill: #dc143c; stroke: #dc143c"/>
     <use xlink:href="#m65422178ae" x="649.842564" y="124.093349" style="fill: #dc143c; stroke: #dc143c"/>
     <use xlink:href="#m65422178ae" x="663.072401" y="133.218801" style="fill: #dc143c; stroke: #dc143c"/>
     <use xlink:href="#m65422178ae" x="676.302238" y="134.929749" style="fill: #dc143c; stroke: #dc143c"/>
     <use xlink:href="#m65422178ae" x="689.532075" y="137.443599" style="fill: #dc143c; stroke: #dc143c"/>
     <use xlink:href="#m65422178ae" x="702.761911" y="142.504563" style="fill: #dc143c; stroke: #dc143c"/>
     <use xlink:href="#m65422178ae" x="715.991748" y="147.065884" style="fill: #dc143c; stroke: #dc143c"/>
     <use xlink:href="#m65422178ae" x="729.221585" y="152.338555" style="fill: #dc143c; stroke: #dc143c"/>
     <use xlink:href="#m65422178ae" x="742.451422" y="153.419055" style="fill: #dc143c; stroke: #dc143c"/>
     <use xlink:href="#m65422178ae" x="755.681259" y="153.643683" style="fill: #dc143c; stroke: #dc143c"/>
     <use xlink:href="#m65422178ae" x="768.911096" y="137.121344" style="fill: #dc143c; stroke: #dc143c"/>
     <use xlink:href="#m65422178ae" x="782.140932" y="155.035349" style="fill: #dc143c; stroke: #dc143c"/>
     <use xlink:href="#m65422178ae" x="795.370769" y="152.005314" style="fill: #dc143c; stroke: #dc143c"/>
     <use xlink:href="#m65422178ae" x="808.600606" y="153.896793" style="fill: #dc143c; stroke: #dc143c"/>
    </g>
   </g>
   <g id="line2d_80">
    <path d="M 636.612727 78.685523 
L 649.842564 104.116204 
L 663.072401 120.537343 
L 676.302238 131.11547 
L 689.532075 143.657604 
L 702.761911 155.512768 
L 715.991748 162.236358 
L 729.221585 168.181512 
L 742.451422 169.759567 
L 755.681259 172.089979 
L 768.911096 174.457946 
L 782.140932 175.781163 
L 795.370769 176.807456 
L 808.600606 177.208964 
" clip-path="url(#p4c172d9775)" style="fill: none; stroke: #1e90ff; stroke-width: 1.5; stroke-linecap: square"/>
    <g clip-path="url(#p4c172d9775)">
     <use xlink:href="#m095781f0c5" x="636.612727" y="78.685523" style="fill: #1e90ff; stroke: #1e90ff"/>
     <use xlink:href="#m095781f0c5" x="649.842564" y="104.116204" style="fill: #1e90ff; stroke: #1e90ff"/>
     <use xlink:href="#m095781f0c5" x="663.072401" y="120.537343" style="fill: #1e90ff; stroke: #1e90ff"/>
     <use xlink:href="#m095781f0c5" x="676.302238" y="131.11547" style="fill: #1e90ff; stroke: #1e90ff"/>
     <use xlink:href="#m095781f0c5" x="689.532075" y="143.657604" style="fill: #1e90ff; stroke: #1e90ff"/>
     <use xlink:href="#m095781f0c5" x="702.761911" y="155.512768" style="fill: #1e90ff; stroke: #1e90ff"/>
     <use xlink:href="#m095781f0c5" x="715.991748" y="162.236358" style="fill: #1e90ff; stroke: #1e90ff"/>
     <use xlink:href="#m095781f0c5" x="729.221585" y="168.181512" style="fill: #1e90ff; stroke: #1e90ff"/>
     <use xlink:href="#m095781f0c5" x="742.451422" y="169.759567" style="fill: #1e90ff; stroke: #1e90ff"/>
     <use xlink:href="#m095781f0c5" x="755.681259" y="172.089979" style="fill: #1e90ff; stroke: #1e90ff"/>
     <use xlink:href="#m095781f0c5" x="768.911096" y="174.457946" style="fill: #1e90ff; stroke: #1e90ff"/>
     <use xlink:href="#m095781f0c5" x="782.140932" y="175.781163" style="fill: #1e90ff; stroke: #1e90ff"/>
     <use xlink:href="#m095781f0c5" x="795.370769" y="176.807456" style="fill: #1e90ff; stroke: #1e90ff"/>
     <use xlink:href="#m095781f0c5" x="808.600606" y="177.208964" style="fill: #1e90ff; stroke: #1e90ff"/>
    </g>
   </g>
   <g id="line2d_81">
    <path d="M 636.612727 91.749459 
L 649.842564 23.119729 
L 663.072401 18.724236 
L 676.302238 137.824965 
L 689.532075 145.454033 
L 702.761911 155.080862 
L 715.991748 158.412893 
L 729.221585 166.529562 
L 742.451422 168.889821 
L 755.681259 167.123147 
L 768.911096 166.771412 
L 782.140932 164.750648 
L 795.370769 162.193463 
L 808.600606 159.994165 
" clip-path="url(#p4c172d9775)" style="fill: none; stroke: #000000; stroke-width: 1.5; stroke-linecap: square"/>
    <g clip-path="url(#p4c172d9775)">
     <use xlink:href="#mfbb5b52fdb" x="636.612727" y="91.749459" style="stroke: #000000"/>
     <use xlink:href="#mfbb5b52fdb" x="649.842564" y="23.119729" style="stroke: #000000"/>
     <use xlink:href="#mfbb5b52fdb" x="663.072401" y="18.724236" style="stroke: #000000"/>
     <use xlink:href="#mfbb5b52fdb" x="676.302238" y="137.824965" style="stroke: #000000"/>
     <use xlink:href="#mfbb5b52fdb" x="689.532075" y="145.454033" style="stroke: #000000"/>
     <use xlink:href="#mfbb5b52fdb" x="702.761911" y="155.080862" style="stroke: #000000"/>
     <use xlink:href="#mfbb5b52fdb" x="715.991748" y="158.412893" style="stroke: #000000"/>
     <use xlink:href="#mfbb5b52fdb" x="729.221585" y="166.529562" style="stroke: #000000"/>
     <use xlink:href="#mfbb5b52fdb" x="742.451422" y="168.889821" style="stroke: #000000"/>
     <use xlink:href="#mfbb5b52fdb" x="755.681259" y="167.123147" style="stroke: #000000"/>
     <use xlink:href="#mfbb5b52fdb" x="768.911096" y="166.771412" style="stroke: #000000"/>
     <use xlink:href="#mfbb5b52fdb" x="782.140932" y="164.750648" style="stroke: #000000"/>
     <use xlink:href="#mfbb5b52fdb" x="795.370769" y="162.193463" style="stroke: #000000"/>
     <use xlink:href="#mfbb5b52fdb" x="808.600606" y="159.994165" style="stroke: #000000"/>
    </g>
   </g>
   <g id="patch_37">
    <path d="M 628.013333 185.1332 
L 628.013333 10.8 
" style="fill: none; stroke: #000000; stroke-width: 0.8; stroke-linejoin: miter; stroke-linecap: square"/>
   </g>
   <g id="patch_38">
    <path d="M 817.2 185.1332 
L 817.2 10.8 
" style="fill: none; stroke: #000000; stroke-width: 0.8; stroke-linejoin: miter; stroke-linecap: square"/>
   </g>
   <g id="patch_39">
    <path d="M 628.013333 185.1332 
L 817.2 185.1332 
" style="fill: none; stroke: #000000; stroke-width: 0.8; stroke-linejoin: miter; stroke-linecap: square"/>
   </g>
   <g id="patch_40">
    <path d="M 628.013333 10.8 
L 817.2 10.8 
" style="fill: none; stroke: #000000; stroke-width: 0.8; stroke-linejoin: miter; stroke-linecap: square"/>
   </g>
  </g>
 </g>
 <defs>
  <clipPath id="p8f0bf84dad">
   <rect x="54.74" y="10.8" width="189.186667" height="174.3332"/>
  </clipPath>
  <clipPath id="p773f010250">
   <rect x="341.376667" y="10.8" width="189.186667" height="174.3332"/>
  </clipPath>
  <clipPath id="p4c172d9775">
   <rect x="628.013333" y="10.8" width="189.186667" height="174.3332"/>
  </clipPath>
 </defs>
</svg>
